<svg xmlns="http://www.w3.org/2000/svg" viewBox="0 0 200 100"><defs><style>.cls-1{fill:#2bbba0;}.cls-2{fill:#474747;}.cls-3,.cls-8,.cls-9{fill:none;stroke-miterlimit:10;stroke-width:0.25px;}.cls-3{stroke:#474747;}.cls-4{font-size:4px;fill:#fff;font-family:WorkSans-Regular, Work Sans;}.cls-5{letter-spacing:-0.02em;}.cls-6{letter-spacing:-0.02em;}.cls-7{letter-spacing:-0.01em;}.cls-8,.cls-9{stroke:#fff;}.cls-8{stroke-dasharray:1;}</style></defs><title>riñihuazo</title><g id="Figura_3" data-name="Figura 3"><rect class="cls-1" y="-0.44" width="200" height="83.94"/><polygon class="cls-2" points="132.17 72.16 167.62 72.16 167.62 72.95 169.12 72.95 169.12 73.52 170.41 73.52 170.41 73.89 171.59 73.89 171.59 74.58 172.63 74.58 172.63 75.32 173.94 75.32 173.94 75.82 174.9 75.82 174.9 76.46 176.11 76.46 176.11 76.95 177.34 76.95 177.34 77.62 178.58 77.62 178.58 78.14 179.52 78.14 179.52 78.71 180.98 78.71 180.98 81.64 132.17 81.64 132.17 72.16"/><rect class="cls-2" x="132.17" y="54.32" width="0.99" height="17.84"/><polyline class="cls-3" points="136.26 59.57 136.26 68.3 141.43 68.3 141.43 59.57"/><path class="cls-3" d="M138.84,57a2.57,2.57,0,0,0-2.58,2.58h5.17A2.58,2.58,0,0,0,138.84,57Z"/><rect class="cls-2" x="138.69" y="59.57" width="0.29" height="8.72"/><rect class="cls-2" x="138.69" y="59.47" width="0.29" height="5.17" transform="translate(76.79 200.9) rotate(-90)"/><circle class="cls-3" cx="138.83" cy="59.26" r="0.22"/><line class="cls-3" x1="138.84" y1="59.03" x2="138.84" y2="56.99"/><line class="cls-3" x1="139.06" y1="59.18" x2="140.54" y2="57.7"/><line class="cls-3" x1="138.61" y1="59.18" x2="137.13" y2="57.7"/><rect class="cls-2" x="144.51" y="54.32" width="0.99" height="17.84"/><rect class="cls-2" x="155.24" y="54.32" width="0.99" height="17.84"/><rect class="cls-2" x="189.26" y="45.54" width="0.99" height="35.91"/><polyline class="cls-3" points="148.6 59.57 148.6 68.3 153.77 68.3 153.77 59.57"/><path class="cls-3" d="M151.19,57a2.58,2.58,0,0,0-2.59,2.58h5.17A2.58,2.58,0,0,0,151.19,57Z"/><rect class="cls-2" x="151.03" y="59.57" width="0.29" height="8.72"/><rect class="cls-2" x="151.04" y="59.47" width="0.29" height="5.17" transform="translate(89.13 213.24) rotate(-90)"/><circle class="cls-3" cx="151.18" cy="59.26" r="0.22"/><line class="cls-3" x1="151.19" y1="59.03" x2="151.19" y2="56.99"/><line class="cls-3" x1="151.4" y1="59.18" x2="152.89" y2="57.7"/><line class="cls-3" x1="150.95" y1="59.18" x2="149.47" y2="57.7"/><polyline class="cls-3" points="148.25 40.95 148.25 49.62 153.38 49.62 153.38 40.95"/><path class="cls-3" d="M150.81,38.39A2.55,2.55,0,0,0,148.25,41h5.13A2.56,2.56,0,0,0,150.81,38.39Z"/><rect class="cls-2" x="150.66" y="40.95" width="0.29" height="8.67"/><rect class="cls-2" x="150.67" y="40.85" width="0.29" height="5.13" transform="translate(107.39 194.23) rotate(-90)"/><circle class="cls-3" cx="150.81" cy="40.64" r="0.22"/><line class="cls-3" x1="150.81" y1="40.42" x2="150.81" y2="38.39"/><line class="cls-3" x1="151.03" y1="40.56" x2="152.5" y2="39.09"/><line class="cls-3" x1="150.58" y1="40.56" x2="149.11" y2="39.09"/><polyline class="cls-3" points="159.63 40.95 159.63 49.62 164.76 49.62 164.76 40.95"/><path class="cls-3" d="M162.19,38.39A2.56,2.56,0,0,0,159.62,41h5.14A2.56,2.56,0,0,0,162.19,38.39Z"/><rect class="cls-2" x="162.04" y="40.95" width="0.29" height="8.67"/><rect class="cls-2" x="162.04" y="40.85" width="0.29" height="5.13" transform="translate(118.77 205.61) rotate(-90)"/><circle class="cls-3" cx="162.18" cy="40.64" r="0.22"/><line class="cls-3" x1="162.19" y1="40.42" x2="162.19" y2="38.39"/><line class="cls-3" x1="162.41" y1="40.56" x2="163.88" y2="39.09"/><line class="cls-3" x1="161.96" y1="40.56" x2="160.49" y2="39.09"/><polyline class="cls-3" points="159.78 59.22 159.78 71.35 166.96 71.35 166.96 59.22"/><path class="cls-3" d="M163.37,55.62a3.6,3.6,0,0,0-3.6,3.6H167A3.6,3.6,0,0,0,163.37,55.62Z"/><rect class="cls-2" x="163.16" y="59.22" width="0.41" height="12.13"/><rect class="cls-2" x="163.16" y="59.08" width="0.41" height="7.19" transform="translate(100.7 226.04) rotate(-90)"/><circle class="cls-3" cx="163.36" cy="58.78" r="0.31"/><line class="cls-3" x1="163.37" y1="58.47" x2="163.37" y2="55.62"/><line class="cls-3" x1="163.67" y1="58.67" x2="165.73" y2="56.61"/><line class="cls-3" x1="163.05" y1="58.67" x2="160.99" y2="56.61"/><polyline class="cls-3" points="170.55 40.95 170.55 49.62 175.69 49.62 175.69 40.95"/><path class="cls-3" d="M173.12,38.39A2.56,2.56,0,0,0,170.55,41h5.14A2.56,2.56,0,0,0,173.12,38.39Z"/><rect class="cls-2" x="172.97" y="40.95" width="0.29" height="8.67"/><rect class="cls-2" x="172.97" y="40.85" width="0.29" height="5.13" transform="translate(129.7 216.54) rotate(-90)"/><circle class="cls-3" cx="173.11" cy="40.64" r="0.22"/><line class="cls-3" x1="173.12" y1="40.42" x2="173.12" y2="38.39"/><line class="cls-3" x1="173.34" y1="40.56" x2="174.81" y2="39.09"/><line class="cls-3" x1="172.89" y1="40.56" x2="171.42" y2="39.09"/><polyline class="cls-3" points="172.25 59.57 172.25 68.3 177.42 68.3 177.42 59.57"/><path class="cls-3" d="M174.84,57a2.58,2.58,0,0,0-2.59,2.58h5.17A2.58,2.58,0,0,0,174.84,57Z"/><rect class="cls-2" x="174.68" y="59.57" width="0.29" height="8.72"/><rect class="cls-2" x="174.69" y="59.47" width="0.29" height="5.17" transform="translate(112.78 236.89) rotate(-90)"/><circle class="cls-3" cx="174.83" cy="59.26" r="0.22"/><line class="cls-3" x1="174.84" y1="59.03" x2="174.84" y2="56.99"/><line class="cls-3" x1="175.05" y1="59.18" x2="176.54" y2="57.7"/><line class="cls-3" x1="174.6" y1="59.18" x2="173.12" y2="57.7"/><polyline class="cls-3" points="181.59 59.57 181.59 68.3 186.76 68.3 186.76 59.57"/><path class="cls-3" d="M184.18,57a2.57,2.57,0,0,0-2.58,2.58h5.16A2.57,2.57,0,0,0,184.18,57Z"/><rect class="cls-2" x="184.03" y="59.57" width="0.29" height="8.72"/><rect class="cls-2" x="184.03" y="59.47" width="0.29" height="5.17" transform="translate(122.12 246.23) rotate(-90)"/><circle class="cls-3" cx="184.17" cy="59.26" r="0.22"/><line class="cls-3" x1="184.18" y1="59.03" x2="184.18" y2="56.99"/><line class="cls-3" x1="184.4" y1="59.18" x2="185.88" y2="57.7"/><line class="cls-3" x1="183.95" y1="59.18" x2="182.47" y2="57.7"/><rect class="cls-2" x="131.57" y="53.58" width="38.49" height="0.74"/><rect class="cls-3" x="131.57" y="50.35" width="38.33" height="3.23"/><line class="cls-3" x1="132.17" y1="50.35" x2="132.17" y2="53.58"/><line class="cls-3" x1="132.75" y1="50.35" x2="132.75" y2="53.58"/><line class="cls-3" x1="133.34" y1="50.35" x2="133.34" y2="53.58"/><line class="cls-3" x1="134.52" y1="50.35" x2="134.52" y2="53.58"/><line class="cls-3" x1="133.93" y1="50.35" x2="133.93" y2="53.58"/><line class="cls-3" x1="135.11" y1="50.35" x2="135.11" y2="53.58"/><line class="cls-3" x1="135.7" y1="50.35" x2="135.7" y2="53.58"/><line class="cls-3" x1="136.88" y1="50.35" x2="136.88" y2="53.58"/><line class="cls-3" x1="136.29" y1="50.35" x2="136.29" y2="53.58"/><line class="cls-3" x1="137.46" y1="50.35" x2="137.46" y2="53.58"/><line class="cls-3" x1="138.64" y1="50.35" x2="138.64" y2="53.58"/><line class="cls-3" x1="140.41" y1="50.35" x2="140.41" y2="53.58"/><line class="cls-3" x1="139.23" y1="50.35" x2="139.23" y2="53.58"/><line class="cls-3" x1="141.59" y1="50.35" x2="141.59" y2="53.58"/><line class="cls-3" x1="142.76" y1="50.35" x2="142.76" y2="53.58"/><line class="cls-3" x1="144.53" y1="50.35" x2="144.53" y2="53.58"/><line class="cls-3" x1="138.05" y1="50.35" x2="138.05" y2="53.58"/><line class="cls-3" x1="139.82" y1="50.35" x2="139.82" y2="53.58"/><line class="cls-3" x1="141" y1="50.35" x2="141" y2="53.58"/><line class="cls-3" x1="143.35" y1="50.35" x2="143.35" y2="53.58"/><line class="cls-3" x1="142.17" y1="50.35" x2="142.17" y2="53.58"/><line class="cls-3" x1="143.94" y1="50.35" x2="143.94" y2="53.58"/><line class="cls-3" x1="145.12" y1="50.35" x2="145.12" y2="53.58"/><line class="cls-3" x1="146.3" y1="50.35" x2="146.3" y2="53.58"/><line class="cls-3" x1="145.71" y1="50.35" x2="145.71" y2="53.58"/><line class="cls-3" x1="146.88" y1="50.35" x2="146.88" y2="53.58"/><line class="cls-3" x1="147.47" y1="50.35" x2="147.47" y2="53.58"/><line class="cls-3" x1="148.65" y1="50.35" x2="148.65" y2="53.58"/><line class="cls-3" x1="148.06" y1="50.35" x2="148.06" y2="53.58"/><line class="cls-3" x1="149.83" y1="50.35" x2="149.83" y2="53.58"/><line class="cls-3" x1="150.42" y1="50.35" x2="150.42" y2="53.58"/><line class="cls-3" x1="152.18" y1="50.35" x2="152.18" y2="53.58"/><line class="cls-3" x1="149.24" y1="50.35" x2="149.24" y2="53.58"/><line class="cls-3" x1="151.01" y1="50.35" x2="151.01" y2="53.58"/><line class="cls-3" x1="151.59" y1="50.35" x2="151.59" y2="53.58"/><line class="cls-3" x1="153.36" y1="50.35" x2="153.36" y2="53.58"/><line class="cls-3" x1="152.77" y1="50.35" x2="152.77" y2="53.58"/><line class="cls-3" x1="153.95" y1="50.35" x2="153.95" y2="53.58"/><line class="cls-3" x1="154.54" y1="50.35" x2="154.54" y2="53.58"/><line class="cls-3" x1="155.72" y1="50.35" x2="155.72" y2="53.58"/><line class="cls-3" x1="155.13" y1="50.35" x2="155.13" y2="53.58"/><line class="cls-3" x1="156.3" y1="50.35" x2="156.3" y2="53.58"/><line class="cls-3" x1="157.48" y1="50.35" x2="157.48" y2="53.58"/><line class="cls-3" x1="159.25" y1="50.35" x2="159.25" y2="53.58"/><line class="cls-3" x1="158.07" y1="50.35" x2="158.07" y2="53.58"/><line class="cls-3" x1="160.43" y1="50.35" x2="160.43" y2="53.58"/><line class="cls-3" x1="161.6" y1="50.35" x2="161.6" y2="53.58"/><line class="cls-3" x1="163.37" y1="50.35" x2="163.37" y2="53.58"/><line class="cls-3" x1="156.89" y1="50.35" x2="156.89" y2="53.58"/><line class="cls-3" x1="158.66" y1="50.35" x2="158.66" y2="53.58"/><line class="cls-3" x1="159.84" y1="50.35" x2="159.84" y2="53.58"/><line class="cls-3" x1="162.19" y1="50.35" x2="162.19" y2="53.58"/><line class="cls-3" x1="161.01" y1="50.35" x2="161.01" y2="53.58"/><line class="cls-3" x1="162.78" y1="50.35" x2="162.78" y2="53.58"/><line class="cls-3" x1="163.96" y1="50.35" x2="163.96" y2="53.58"/><line class="cls-3" x1="165.14" y1="50.35" x2="165.14" y2="53.58"/><line class="cls-3" x1="164.55" y1="50.35" x2="164.55" y2="53.58"/><line class="cls-3" x1="165.72" y1="50.35" x2="165.72" y2="53.58"/><line class="cls-3" x1="166.31" y1="50.35" x2="166.31" y2="53.58"/><line class="cls-3" x1="167.49" y1="50.35" x2="167.49" y2="53.58"/><line class="cls-3" x1="166.9" y1="50.35" x2="166.9" y2="53.58"/><line class="cls-3" x1="168.08" y1="50.35" x2="168.08" y2="53.58"/><line class="cls-3" x1="168.67" y1="50.35" x2="168.67" y2="53.58"/><line class="cls-3" x1="169.26" y1="50.35" x2="169.26" y2="53.58"/><rect class="cls-2" x="169.9" y="51.75" width="20.36" height="1.14"/><rect class="cls-2" x="168.67" y="54.32" width="0.45" height="18.63"/><polygon class="cls-2" points="161.18 22.01 141.25 39.24 129.96 43.05 130.24 43.9 139.46 40.79 129.79 49.16 130.3 49.75 132.17 48.13 132.17 48.46 137.93 48.46 137.93 47.68 132.69 47.68 161.19 23.02 191.96 47.8 192.45 47.2 161.18 22.01"/><line class="cls-3" x1="132.29" y1="43.21" x2="132.29" y2="47"/><line class="cls-3" x1="132.29" y1="48.46" x2="132.29" y2="50.35"/><rect class="cls-2" x="180.91" y="45.1" width="4.14" height="0.45"/><rect class="cls-2" x="180.91" y="49.39" width="4.14" height="0.45"/><rect class="cls-3" x="183.15" y="45.54" width="1.9" height="3.85"/><rect class="cls-3" x="180.91" y="45.54" width="1.9" height="3.85"/><rect class="cls-2" x="140.1" y="45.1" width="4.14" height="0.45"/><rect class="cls-2" x="140.1" y="49.39" width="4.14" height="0.45"/><rect class="cls-3" x="142.35" y="45.54" width="1.9" height="3.85"/><rect class="cls-3" x="140.1" y="45.54" width="1.9" height="3.85"/><rect class="cls-3" x="149.11" y="74.86" width="4.14" height="0.45"/><rect class="cls-3" x="149.11" y="79.16" width="4.14" height="0.45"/><rect class="cls-3" x="151.35" y="75.31" width="1.9" height="3.85"/><rect class="cls-3" x="149.11" y="75.31" width="1.9" height="3.85"/><path class="cls-2" d="M126.44,78.71a26.78,26.78,0,0,0-1.75,2.94c-.06.14-.08.33-.28.34a.31.31,0,0,1-.28-.18c-.1-.19,0-.34.11-.47a39.77,39.77,0,0,0,2.11-3.48.51.51,0,0,0,.09-.26,15.28,15.28,0,0,0,0-2.53c0-.06,0-.16,0-.19-.58-.36-.24-.89-.24-1.34a2.15,2.15,0,0,1,.17-.65c.13-.36.27-.7-.15-1-.11-.07-.07-.22-.08-.33a15.73,15.73,0,0,1,.1-1.82,2.07,2.07,0,0,1,.45-1l.3-.46a.4.4,0,0,0-.11-.61,1.59,1.59,0,0,1-.59-1.51.78.78,0,0,1,.44-.66,4.75,4.75,0,0,1,1.52-.4c.27-.06.29.29.31.45a.68.68,0,0,0,.42.65.27.27,0,0,1,.1.11,2.1,2.1,0,0,1-.22,1.45c-.21.21-.08.35.08.48A6.81,6.81,0,0,1,130,69.51a1.79,1.79,0,0,1,.4,1.13c0,.94,0,1.87.05,2.81a1.73,1.73,0,0,0,.2.55c.25.64.16.9-.42,1.2-.17.08-.18.22-.2.36a36.2,36.2,0,0,0-.65,5.3c0,.38-.24.41-.53.42.1.19.25.12.37.14a.34.34,0,0,1,.28.37c0,.18-.16.17-.28.2a4.17,4.17,0,0,1-1.61.12c-.13,0-.35,0-.36-.11-.08-.62-.72-1-.75-1.6S126.47,79.28,126.44,78.71Z"/><path class="cls-2" d="M15.1,71a25.91,25.91,0,0,1-.29,4.43,3.18,3.18,0,0,0,.12,1.15c.27,1.28.12,2.59.28,3.88.06.48.22.7.64.81.21.06.48.1.44.39s-.32.27-.53.26c-.45,0-.91-.09-1.36-.15a.37.37,0,0,1-.33-.33c-.27-1.27-.42-2.55-.64-3.83S13,75,12.71,73.74a2.1,2.1,0,0,0-.16-.28c-.18.62-.36,1.13-.47,1.66a27.45,27.45,0,0,0-.54,3.94c0,.55-.14,1.09-.12,1.66,0,1.08-.61,1.62-1.54,1.36-.13,0-.28,0-.33-.2a.29.29,0,0,1,.19-.33c.3-.15.27-.38.27-.67a21.38,21.38,0,0,1,.11-4.73,6.5,6.5,0,0,0,0-2,7.63,7.63,0,0,1-.07-1.91,3.11,3.11,0,0,0,0-.86,1.55,1.55,0,0,1,0-.8c.45-.93.14-1.93.34-3a2.75,2.75,0,0,1-1,.91.92.92,0,0,1-1.29-.3L8,68.1c-.44-.45-.52-1.14-1.3-1.39-.61-.19-.7-.82-.42-1.52.1-.24,0-.6.34-.73a.69.69,0,0,1,.9.51,3,3,0,0,0,.89,1.65c.22.16.33.18.48,0a4.92,4.92,0,0,0,.55-.85,3,3,0,0,1,1.93-1.79c.38-.15.42-.31.23-.67a7.43,7.43,0,0,1-.42-1.39c-.17-.53.28-.93.69-1.25a1.2,1.2,0,0,1,1.38,0,.92.92,0,0,1,.51,1A3.39,3.39,0,0,1,13.6,63a.64.64,0,0,0,.3.75,1.87,1.87,0,0,0,.31.17,2.56,2.56,0,0,1,1.88,2.56c.05,1.16.35,2.29.31,3.47a7.47,7.47,0,0,0,.19,1.65,2.43,2.43,0,0,1-.24,1.88c-.12.17-.28.34-.49.3s-.18-.34-.2-.51c-.05-.55-.06-1.11-.08-1.66A.75.75,0,0,0,15.1,71Z"/><path class="cls-2" d="M116.08,82.15c.12-2.92-.68-10.09-.67-13a22.8,22.8,0,0,1,.77-5.1c.16-.68.46-1.63,1.1-1.63,1,0,2-.68,3,.23.43.4,1,.21,1.4-.26.19-.23.37-.47.56-.69.65-.73.59-1.17-.29-1.84A1.35,1.35,0,0,1,123.47,61a.79.79,0,0,0,.59.73,3.59,3.59,0,0,1,1.84,1.08c.46.36,1,.4,1.31-.11A10.86,10.86,0,0,0,128.33,61c.34-.82.58-1.77,1.64-2a.51.51,0,0,0,.33-.34c.21-1.1.93-1,1.74-.8.48.13,1-.1,1-.54,0-.86.61-1.21,1.16-1.55.76-.48,1.18-1.35,2.24-1.51.73-.1.77-1.2,1.38-1.66-.59-.65-.07-1.85-1.13-2.27a.42.42,0,0,1-.33-.44c.08-1.06-1.15-1.7-.88-2.9.07-.32-.27-.86-.07-1.36s.22-.91-.58-1a1.43,1.43,0,0,1-1.54-1.27c-.15-.81-.37-1.93-1.66-2.06a1.58,1.58,0,0,1-1.4-1.71,2.92,2.92,0,0,1,.49-1.78.81.81,0,0,0-.14-1.3,2,2,0,0,0-2.14-.08c-.52.43-.64.22-1.08-.09-.72-.52-1.23-1.91-2.54-.85.26-1.75-.06-2.06-1.62-1.59-.46.14-.41-.18-.43-.43,0-.45-.13-1-.55-1.09a10.09,10.09,0,0,0-3.14-.6c-.52.06-1,.3-.82-.54.07-.36-.19-.46-.48-.48s-.62,0-.85-.2c-.72-.68-1.89-.39-2.54-1.24-.15-.19-.5-.13-.76,0s-.43.17-.65,0c-.67-.61-.83-.08-1,.45-.08.37-.11.76-.16,1.14h-.15c-.35-.39-.76-1-1.3-.63s-1.58.29-1.38,1.46a.64.64,0,0,1-.89.7c-1.81-.53-2.25-.34-3.28,1.26-.23.34-.53.84-1,.28s-.84-.21-1.25,0a.89.89,0,0,0-.62,1c.11.59.07.81-.62.58s-1.15.21-1.22,1c0,.28.15.59-.18.87-.8-.75-1.85-.32-2.8-.57-.71-.19-1,.56-.8,1.23s0,1.71.82,2.59c-.4-.09-.48-.08-.52-.12-.4-.39-.77-.94-1.43-.54s-.53,1-.26,1.59a.56.56,0,0,1-.22.84,1,1,0,0,0-.47.74c-.1.84-.6,1.13-1.41,1.22s-1.38.4-1,1.37a.7.7,0,0,1-.15.74,1.47,1.47,0,0,0,0,1.9c.39.65-.1,1.43,0,2.15,0,.05-.22.22-.3.2-1-.26-1.3.56-1.79,1.11A1.17,1.17,0,0,0,89.51,53c.21.51.66.57,1.17.51.35,0,.68-.08.95.32.54.78,1,1.6,2.25,1.56a1,1,0,0,1,1,1.26c-.35,1.33.6,1.38,1.4,1.59a1.8,1.8,0,0,1,1.4,1.09c.36.94.57,2,1.72,2.46.26.1.59,0,.85.31a2.33,2.33,0,0,0,3.41-.11,1,1,0,0,1,1.65,0c.36.43,1.1.89,1.3.59.55-.81,1.3-.63,2-.75a3.29,3.29,0,0,1,3.51,2.84c0,1.89,0,3.79.06,5.67.12,2.82-.51,9-.75,11.85Z"/><path class="cls-2" d="M40.61,74.86C39.92,76.05,39.35,77,38.8,78a1.2,1.2,0,0,0,.05,1.2A1.21,1.21,0,0,1,39,80.37c-.2.35-.45.67-.9.61s-.46-.42-.52-.74a4.15,4.15,0,0,1,.36-2.95,7.73,7.73,0,0,0,.49-1.05.93.93,0,0,0-.07-.94,2.4,2.4,0,0,0-3.18-.85,10.93,10.93,0,0,1-1.62.52.89.89,0,0,0-.75,1.17,28.31,28.31,0,0,1,.45,3.54,7.64,7.64,0,0,1-.27,2c-.09.43-1.12.62-1.67.33s-.12-.57,0-.8a.74.74,0,0,0,0-.82,6.44,6.44,0,0,1-.78-3.26c.05-.82-.31-1.6.11-2.5.2-.43-.31-1.31-.68-1.85A8.19,8.19,0,0,1,29,70.57c-.16-.48.24-.93.46-1.37a5.14,5.14,0,0,0-.15-2.67.45.45,0,0,0-.63-.11c-.41.18-.85.3-1.15-.1a1.41,1.41,0,0,1-.34-1.49,3.44,3.44,0,0,0,.15-2.77A1,1,0,0,1,27.59,61a1.49,1.49,0,0,0,.5-1.75c-.11-.26-.17-.74.2-.86s.34.34.49.54c.36.46.66.63.94-.07.08-.21.11-.52.44-.46a.5.5,0,0,1,.38.46c.25,1.95,1.65,3.25,2.71,4.73.27.39.11.87.37,1.25s.25,1,1,.55c.25-.15.53.13.72.27a3.75,3.75,0,0,0,2.29.6,16.23,16.23,0,0,1,2.42.07,8.35,8.35,0,0,0,6-1.42,1.57,1.57,0,0,0,.88-1.59c-.22-4.1-.38-8.21-.61-12.31,0-.44-.49-.85,0-1.35a11.57,11.57,0,0,1,.24,2.85c.24,3.38.37,6.78.57,10.17,0,.47-.14,1.17.39,1.37s1-.3,1.46-.67.71-1.27,1.57-1.5c.37-.11.22-.84.13-1.24-.2-.92.51-1.11,1-1.26a1,1,0,0,1,1.19.91c0,.41.37.86-.14,1.23-.28.21-.09.43.1.59a2,2,0,0,0,1.06.63,2.81,2.81,0,0,1,1.69.68,2.81,2.81,0,0,1-.32-1.79.87.87,0,0,1,1-.86c.55,0,1.07.36,1,.85-.26,1.19.39,1.73,1.36,2.2.21-.53.54-1.12,1.3-.82a1.25,1.25,0,0,1,.76,1.68c-.1.37,0,.7.44.73s.3-.36.34-.61a9.56,9.56,0,0,1,.18-1.59,1.07,1.07,0,0,1,.95-.83c.54,0,.68.39.82.79a9.52,9.52,0,0,0,1.87,3.56c.31.33.29.87-.28,1s0,.64-.37.73c.69.17.16.55.13.83s-.21.61-.14.87c.18.75-.08,1-.82,1-.57,0-.66,1.41-.16,1.89a5.67,5.67,0,0,1,.27,7.4c-1.06,1.18-2.7,1.06-3.25-.46s-1.66-1.4-2.71-1.72c-.44-.13-.41.23-.47.47a5.73,5.73,0,0,1-.87,2.05c-1,1.36-2.28,1.38-3.31,0a1.59,1.59,0,0,0-.71-.65,2.51,2.51,0,0,1-1.56-1.63,1.1,1.1,0,0,0-1.17-.87,3.57,3.57,0,0,1-.71-.1c-.82-.18-1.49-.13-1.62.92a1.64,1.64,0,0,1-.22.49,2.49,2.49,0,0,1-2.47,1.58,2.62,2.62,0,0,1-2-2.19c-.08-.35-.12-.71-.19-1.06a.53.53,0,0,0-.49-.45c-.34-.06-.41.21-.45.43a3.56,3.56,0,0,0-.16,1.24c.12.88-.43,1.65-.32,2.53,0,.29-.2.49-.5.52a1.23,1.23,0,0,1-1-.16c-.29-.26-.08-.58.08-.81C41.07,78.92,40.79,77,40.61,74.86Zm8.2-7.94a14.73,14.73,0,0,1-2.32.1c-1-.1-2-.12-3-.13s-1.34.41-.95,1.37a4.21,4.21,0,0,1,.16.61,13.55,13.55,0,0,0,1.84,3.95c.08.15.21.35.41.25s.1-.36,0-.53a7.37,7.37,0,0,0-1-1.7c-.24-.34-.47-.91.08-1s.53-.52.56-.9,0-.84.08-1.25a.39.39,0,0,1,.29-.41c.22,0,.33.12.38.3.15.48.54.47.93.51A3.55,3.55,0,0,0,48.81,66.92Zm15.41,9.94a4.77,4.77,0,0,0-.54-2.32c-.07-.13-.17-.27-.34-.23s-.14.17-.13.18a1.3,1.3,0,0,1,.15,1.8s.14.17.22.26c.47.53.31.93-.33,1s-1,1-1.84.63c0,0-.14.14-.13.2a1.91,1.91,0,0,0,.85,1.49c.51.29.92,0,1.23-.4A5.22,5.22,0,0,0,64.22,76.86Zm-19.78-1.2a3.1,3.1,0,0,0,0,3.44.9.9,0,0,0,1.52,0A1.43,1.43,0,0,0,46.49,78c-.85.37-1.22-.46-1.85-.67C43.52,77,44.83,76.21,44.44,75.66Zm-.25-9.34.06.18,2.28.09c.58,0,.61-.36.51-.78s-.15-.87-.71-.61C45.6,65.53,44.9,65.94,44.19,66.32Zm5.06-.79s.36-.4-.15-.46-1.67.47-1.71.84c-.06.56.27.7.76.75C48.92,66.75,49.4,66.58,49.25,65.53Z"/><path class="cls-2" d="M21.84,82.15,20.2,82c-.31,0-.4-.23-.52-.54-.3-.82.13-1.55.15-2.32,0-.53.05-1.06,0-1.59a3.28,3.28,0,0,1,.18-1.23A2.1,2.1,0,0,0,20,75a7.47,7.47,0,0,0-1.1-2.62,1.84,1.84,0,0,1-.22-1.27A3.9,3.9,0,0,1,19,69.3c.14-.27-.05-.38-.24-.46s-.39.06-.44-.17a1.4,1.4,0,0,1,0-.73,5.78,5.78,0,0,0,.18-1,.42.42,0,0,0,0-.27c-.54-1,0-1.93.13-2.86a3.18,3.18,0,0,1,1.28-1.6,1.4,1.4,0,0,1,1.56-.11,2.82,2.82,0,0,0,.72.18,1.2,1.2,0,0,1,1,.89,1,1,0,0,1-.64,1.09c-.47.23-.72.72-1.21.91-.17.06,0,.21.08.28.37.34.74.68,1.12,1a1.22,1.22,0,0,1,.43.76,48.91,48.91,0,0,1,.73,5.1c0,.34,0,.6-.41.65s-.32.23-.34.47c0,.47-.1.94-.13,1.4A9.48,9.48,0,0,1,22,77.25,8.57,8.57,0,0,0,21.5,80a2.44,2.44,0,0,1,0,.38c-.2.67.18.93.74,1.13.22.08.65.07.57.41s-.45.16-.7.19a1.31,1.31,0,0,1-.28,0Z"/><text class="cls-4" transform="translate(79.77 42.35)">Ol<tspan class="cls-5" x="4.22" y="0">a</tspan><tspan x="6.39" y="0" xml:space="preserve"> de 8 m de a</tspan><tspan class="cls-6" x="31.38" y="0">l</tspan><tspan x="32.52" y="0">tu</tspan><tspan class="cls-7" x="36.67" y="0">r</tspan><tspan class="cls-5" x="38.24" y="0">a</tspan></text><line class="cls-8" x1="98.94" y1="77.99" x2="98.94" y2="45.1"/><polyline class="cls-9" points="100.35 77.58 98.89 79.04 97.53 77.67"/><line class="cls-8" x1="98.94" y1="5.04" x2="98.94" y2="37.44"/><polyline class="cls-9" points="97.53 5.52 98.99 4.06 100.35 5.42"/><rect class="cls-2" y="81.45" width="199.97" height="18.55"/></g></svg>