<?xml version="1.0" encoding="utf-8"?>
<!-- Generator: Adobe Illustrator 23.0.1, SVG Export Plug-In . SVG Version: 6.00 Build 0)  -->
<svg version="1.1" id="Capa_1" xmlns="http://www.w3.org/2000/svg" xmlns:xlink="http://www.w3.org/1999/xlink" x="0px" y="0px"
	 viewBox="0 0 100.2 100.1" style="enable-background:new 0 0 100.2 100.1;" xml:space="preserve">
<style type="text/css">
	.st0{fill:#2BBBA0;}
	.st1{fill:#708088;}
	.st2{fill:none;stroke:#000000;stroke-width:0.1;stroke-miterlimit:10;}
	.st3{font-family:'WorkSans-Regular';}
	.st4{font-size:3px;}
	.st5{fill:#FFFFFF;}
	.st6{fill:none;}
	.st7{fill:none;stroke:#708088;stroke-width:0.1;stroke-miterlimit:10;}
</style>
<title>Sin título-1</title>
<image style="overflow:visible;enable-background:new    ;" width="1206" height="1206" xlink:href="DA24BB97DBC22ECC.png"  transform="matrix(8.270831e-02 0 0 8.270831e-02 -2.807425e-02 -8.189255e-02)">
</image>
<g>
	<polygon class="st0" points="99.1,1 97.3,3.6 94.3,5.6 91.2,8.9 89.6,11.3 85.8,11.2 84.9,12.1 84.5,13.2 83.9,13.1 82.2,14.4 
		80.4,16.3 80.4,17.7 81,19.8 80.9,21.4 81.2,23.5 79.3,25.2 77.8,25.2 75.6,25.4 72.9,25.3 70.4,24.2 68.9,25.3 65.8,26 63.5,27.9 
		60.9,29.6 59.7,30.4 59.6,33 57.5,32.9 54.9,34.3 53.8,34.5 52.4,35.1 49.2,34.7 47.4,35.7 45.7,36 44.4,36.7 43.9,38.4 43.7,40.5 
		42.5,43.2 38.7,46.5 36.7,47.7 35,49.5 33.4,51.5 32.4,54.4 32.3,62.2 31.7,62.9 29.8,64.6 24.5,66.9 22.2,67.4 20.9,67.5 
		19.5,68.8 18.8,72.2 22.5,77.7 24.9,80.9 26.2,82.7 26.5,85.9 26.7,89.2 25.9,91.5 24.6,94.4 23,97.5 22.4,98.7 22.5,99.2 
		19.9,99.3 20,98.9 21.2,97 24.7,90.8 24.9,88.6 24.4,87.1 23.2,84.7 22.7,83.1 22.1,81.6 21,80.4 20.8,79.3 22.6,81 22.9,79.8 
		21.9,79.2 19.9,77.8 16.3,73.1 16.3,71.7 17.2,69.5 17.9,67.7 20.3,66 22.2,65 24.2,63.9 26.4,64.2 28.1,63.7 30.4,61.4 30.4,55.4 
		30.4,53.2 30.9,51.2 33.2,48.8 34.9,47.1 39.4,42.6 40.6,41.7 41.2,40.5 41.8,38.8 41.6,37.7 41.2,36.4 41.6,34.5 45.9,32.5 
		47,31.7 47.6,32.7 48,33.3 49.2,33 51.1,33 52.3,32.7 52.6,33 53.5,33 55,32.8 55,32 55,30.8 55,29 55.5,27.6 56.1,25.5 57,24.3 
		58.9,23.7 61.8,23.2 63.8,22.5 65.6,22 67.6,21.4 69.8,21.4 73.9,21.3 75.6,19.5 76.7,18.2 76.6,17.2 76.3,15.4 76.8,14.6 
		77.1,13.7 77.3,12.7 76.8,11.1 76.1,8 78.4,6.1 79.2,5.5 77.7,3.8 76.8,3 76.8,2 76.8,1 	"/>
	<polygon class="st1" points="40.6,43.9 40.8,44.8 40.8,45.8 40.6,46.7 40,46.7 39.5,46.8 39.2,47.3 39.1,47.7 38.4,47.9 38,47.7 
		37.4,47.2 36.9,46.1 36.8,45.7 36.6,45 36.6,44.3 37,43.3 37.4,42.2 38,41.3 39.3,41 40,41 40.7,41.9 	"/>
	<path class="st1" d="M25.7,97.1L23.9,96l-2.1-0.8h-3.1l-1.1-1.3l-0.8-1.5l-0.5-1.9V89L15,87.9v-1.2l1.1-2.3l0.7-1.5l0.6-0.9
		l0.1-1.3l1.8-1.9l1.1-1.6h2.1l1-0.6c0.4,0.5,1.3,2.2,1.3,2.2l0.9,1.3l1.8,1.9l1.2,1.7l1,2.1l0.8,1.8v2.1L30,91.8l-1,2.1L28.4,95
		l-1.1,1.7L26.7,97L25.7,97.1z"/>
	<polygon class="st1" points="32.6,56 30.9,56 29.3,55.2 28.9,54.9 29.2,53.5 29.5,52.5 29.5,51.7 30.1,50.9 30.8,50.5 30.8,49.9 
		31.5,49.3 32.3,49 34.2,48.5 35.2,48.5 35.8,49.2 36.2,49.8 36.2,50.6 35.4,51.7 34.7,52.5 34.1,53.6 33.5,54.4 33.3,55.2 	"/>
</g>
<g>
	<g>
		<polyline class="st2" points="92.1,90.8 92.1,92.4 70.4,92.4 70.4,90.8 		"/>
		<text transform="matrix(1 0 0 1 77.72 95.8)" class="st3 st4">1 Km</text>
	</g>
	<g>
		<path d="M78.9,87.3l-0.2,0.1c-0.2-0.3-0.4-0.6-0.7-0.9c-0.2-0.3-0.5-0.5-0.8-0.7s-0.6-0.4-0.9-0.7l0,0c0.3-0.2,0.6-0.4,0.9-0.7
			c0.3-0.2,0.5-0.5,0.7-0.7c0.2-0.3,0.5-0.6,0.7-0.9l0.2,0.1c-0.3,0.4-0.7,0.8-1.1,1.2c-0.3,0.3-0.7,0.6-1.1,0.9h4.5v0.2h-4.5
			c0.4,0.2,0.7,0.5,1.1,0.8C78.2,86.5,78.5,86.9,78.9,87.3z"/>
		<path d="M86.1,82.8v4.8h-0.3l-2.9-4.2L82.6,83l0,0v0.5v4.1h-0.2v-4.8h0.3l3,4.2l0.2,0.4v-4.6L86.1,82.8z"/>
	</g>
</g>
<g>
	<g>
		<rect x="2.5" y="2.3" class="st5" width="32.6" height="32.6"/>
		<g>
			<path class="st1" d="M27.4,26.9c0.2-0.1,0.2,0,0.3,0.1s0.1,0.1,0.1,0.1c0.1,0,0.1,0,0.1,0.1s0,0.1-0.1,0.1s-0.1,0.1-0.2,0.2
				c0,0.1-0.1,0.1,0,0.2s0,0.1,0.1,0.1c0.1,0.1,0.1,0.2,0,0.2l0,0c0,0,0,0.1-0.1,0.1S27.5,28,27.5,28c0-0.1-0.1-0.2-0.2-0.2l0,0
				h-0.1h-0.1c0,0-0.4-0.2-0.5-0.4v-0.1v-0.1c-0.1-0.2-0.2-0.2-0.3-0.1c-0.1,0.1-0.1,0.1-0.2,0.2H26c-0.1,0-0.2,0-0.2,0
				c-0.1,0-0.1,0-0.1-0.1s0-0.1,0-0.2c-0.1-0.1-0.1-0.1-0.2,0v0.1c0,0,0,0.1-0.1,0.1l0,0c0,0-0.1,0,0-0.1s0-0.1,0-0.1
				s-0.1,0-0.1-0.1L25,27c-0.1-0.1-0.1-0.2,0-0.3 M25,26.6c0-0.2,0.1-0.3,0.2-0.4s0.1-0.1,0.1-0.2s0-0.2,0-0.3
				c0.1-0.1,0.1-0.2,0.2-0.1c0,0,0-0.1-0.1-0.1s0-0.1,0-0.1s0.1-0.1,0-0.1s-0.2-0.1-0.2-0.2c0-0.2,0-0.5,0-0.7c0-0.1,0-0.2,0.2-0.1
				h0.2c-0.1-0.2-0.2-0.4-0.4-0.5v-0.1c0,0,0.1-0.2,0.3-0.2h0.1c0.1-0.1,0.2,0,0.2,0.1c0,0.2,0.1,0.3,0.2,0.5c0,0,0,0,0,0.1
				c0-0.1,0-0.2,0-0.3c0-0.1,0-0.2,0-0.2c0-0.1,0-0.2,0-0.2l0,0c0,0-0.1-0.1-0.2-0.1s0-0.1,0-0.1s0.1,0,0.1-0.1s-0.1,0-0.2,0.1
				s0-0.1-0.1-0.1s-0.2-0.1-0.4-0.2s0-0.1,0-0.1c0.1-0.2,0.2-0.3,0.4-0.5v-0.1c-0.1-0.1-0.2-0.3-0.3-0.4c-0.1-0.1-0.3-0.2-0.4-0.1
				h-0.1c0,0,0,0,0.1,0s0.1,0,0,0.1h-0.1l0,0l0,0c0,0-0.1,0-0.1,0.1s0.1,0.4,0.2,0.6v0.1c0,0.1,0,0.1-0.1,0.1s-0.2,0-0.3-0.1
				c-0.1,0-0.2-0.1-0.2-0.1s-0.1,0,0,0s0,0.1-0.1,0l-0.8-0.2l0,0c0-0.1,0.1-0.2,0.1-0.3c0-0.1,0-0.2-0.1-0.2s-0.1,0-0.1,0
				c0-0.1,0-0.1-0.1-0.2c0-0.1-0.1-0.1-0.1-0.2c0-0.2,0-0.4-0.1-0.6s-0.1-0.3-0.1-0.5c0-0.1,0-0.1,0.1-0.1s0.1-0.1,0-0.2V20
				c0-0.2,0.1-0.3,0.1-0.5s0.1-0.1,0.1-0.1c0.1-0.1,0.1-0.2,0-0.3V19c0-0.1,0-0.3,0-0.4s0-0.1,0-0.1h0.1c0.1,0.1,0.2,0.1,0.3,0.1
				c0.1,0,0.2,0,0.2,0h0.1c0.2,0,0.4,0,0.5,0c0.2,0,0.3,0.1,0.4,0.3c0.1,0.2,0.3,0.3,0.5,0.4c0,0,0.1,0,0.1,0.1
				c0.1,0.1,0.2,0.1,0.3,0.1c0.2,0,0.4,0,0.6,0c0.3,0,0.5-0.1,0.8-0.2v0.1c0,0-0.1,0.1,0,0.3c0,0.1,0.1,0.2,0.1,0.3
				c0.1,0.1,0.1,0.2,0,0.2v0.1l0,0c0.1,0.1,0.1,0.3,0,0.4s0,0,0,0.1s0.1,0.1,0,0.2s0,0.2,0,0.2v0.1c0,0,0.1,0.3,0.1,0.5l0,0
				c-0.1,0.1,0,0.2,0,0.3c0.1,0.1,0.1,0.2,0.1,0.3v0.1c0,0,0,0.2,0,0.3c0,0.1,0,0.2,0.1,0.3c0.1,0.2,0.1,0.3-0.1,0.4
				c-0.1,0-0.1,0-0.2,0.1h-0.1L27,23.5h-0.1c0,0-0.1,0-0.2,0.1s0,0.1,0,0.2s0.1,0.2,0.1,0.4s0,0.1,0.1,0.1s0.1,0.1,0.1,0.2
				s0,0.3-0.1,0.4c0,0-0.1,0.1-0.1,0.2s0,0.1-0.1,0.1c0,0,0,0,0,0.1s0,0.1,0,0.2s0,0.1,0,0.2c0,0.2,0.1,0.3,0.2,0.4l0,0
				c0.1,0,0.2,0.1,0.2,0.2s0.1,0.1,0.2,0.1l0.1,0.1c0.1,0,0.1,0.1,0.1,0.1c0,0.1,0,0.1,0,0.2v0.1L27.4,27c0,0-0.1,0.1-0.1,0.2v0.1
				c0.1,0.1,0.1,0.2,0.1,0.4L25,26.6z"/>
			<path class="st1" d="M23.4,12.9c0-0.1,0-0.3,0.1-0.4c0.1-0.2,0.1-0.5,0-0.7s-0.2-0.4-0.3-0.6c-0.2-0.2-0.2-0.4,0-0.6
				c0-0.1,0-0.2,0-0.3s0-0.1-0.1-0.2C22.9,10,23,9.9,23,9.7s0-0.1,0.1-0.1s0.2,0.1,0.3,0.1c0.1,0.1,0.3,0.1,0.4,0
				c0.1,0,0.2-0.1,0.2-0.3c0.1-0.1,0.1-0.3,0-0.4c0-0.1,0-0.1,0-0.2c0-0.1,0-0.2,0-0.3s0-0.2,0.1-0.2l0,0c0.2,0,0.2,0,0.2-0.3
				c0,0,0-0.1,0-0.2s0-0.1,0.1-0.2s0,0,0-0.1c0-0.2,0.1-0.4,0.2-0.6c0-0.1,0-0.1,0-0.2s0-0.2,0-0.4c0-0.2,0-0.2,0.2-0.1
				c0.1,0.1,0.2,0.1,0.3,0.1c0,0,0,0,0.1,0.1s0,0.1,0,0.1s0.2,0.2,0.2,0.3h0.1h0.1l0,0c0.1-0.1,0.2-0.1,0.3-0.1S26,6.6,26,6.6
				s0.1-0.1,0.1,0l0,0c0.1,0.2,0.2,0.2,0.4,0.2h0.1c0.2,0.2,0.3,0.3,0.6,0.3c0.1,0,0.2,0.1,0.3,0.2s0.1,0.1,0.2,0.2h0.1
				c0-0.1,0.1-0.1,0.2-0.2c0.1,0,0.1-0.1,0.1-0.2s0.1,0,0.1,0c0.1,0.1,0.1,0.3,0.1,0.4s0,0.2-0.1,0.2s0,0.1,0,0.1
				c0,0.1,0,0.2-0.1,0.3c0,0,0,0.1,0,0.2c0,0.1,0,0.2-0.1,0.2s-0.1,0.1,0,0.1c0.2,0.2,0.2,0.4,0,0.6c0,0.1-0.1,0.1-0.1,0.2
				s0,0.2,0.1,0.3s0.1,0.4,0,0.5s-0.1,0.2,0,0.3c0,0.1,0.1,0.2,0,0.4s0,0.1,0,0.1l0.1,0.1c0,0,0,0.1,0.1,0.1s0,0.2-0.1,0.2
				s-0.1,0-0.2,0h-0.3c-0.1,0-0.2,0-0.2,0.1c0,0,0,0.1-0.1,0.1L27,11.8h-0.1c0-0.1,0-0.2,0-0.3s-0.1-0.2-0.2-0.2h-0.1h-0.1
				c0,0-0.1,0-0.2,0l0,0c0-0.1-0.2-0.1-0.2-0.1H26c-0.1-0.1-0.2-0.1-0.2-0.2c0,0,0-0.1-0.1-0.1c-0.2,0-0.3-0.2-0.4-0.4v-0.1
				c0,0-0.1-0.1-0.2-0.1s-0.1,0-0.2,0c-0.1-0.1-0.2-0.1-0.3-0.1s-0.1,0-0.2,0s-0.2,0.1-0.4,0.1c-0.1,0-0.1,0-0.1,0.1
				s-0.1,0.1-0.1,0.2c0,0.1,0,0.1,0.1,0.2s0.1,0.1,0,0.3c-0.1,0-0.1,0.1-0.1,0.2c0,0.1,0,0.1,0,0.1s0.2,0.4,0.2,0.5s0,0.1,0.1,0.2
				h0.1c0,0,0.1,0,0,0.1c0,0.1-0.1,0.1-0.1,0.2c-0.1,0.1-0.2,0.2-0.3,0.3c-0.1,0.1-0.1,0.2-0.2,0.3C23.5,12.9,23.5,12.9,23.4,12.9z"
				/>
			<path class="st1" d="M30,3.6c0,0.1,0,0.2-0.1,0.2h-0.2c-0.1,0-0.2,0.1-0.1,0.3c0,0.1,0.1,0.2,0.2,0.2s0.1,0,0.1,0.2
				c0,0.1,0,0.3,0.1,0.4C30,5,30.1,5,30,5.1s0,0,0,0.1c0,0,0,0.1,0,0.2v0.1c0,0,0,0.1,0,0.2c-0.1,0-0.1,0.1,0,0.2c0,0,0,0.1,0,0.2
				v0.1c0,0.1-0.1,0.1-0.1,0.2c0,0,0,0.1-0.1,0.1l0,0l0,0c-0.2,0-0.2,0-0.2,0.1s-0.1,0.1-0.1,0.2c-0.1,0-0.2,0.2-0.2,0.3v0.1
				c0,0,0,0.1-0.1,0.1H29c-0.1,0-0.1,0-0.2,0.1l0,0c0,0.1,0,0.1-0.1,0.1s-0.1,0-0.1-0.1V7.3c0-0.1-0.1-0.2-0.2-0.1h-0.1
				c-0.1,0.1-0.2,0.2-0.3,0.2l-0.1,0.1c0,0-0.1,0.1-0.1,0s-0.2-0.2-0.3-0.2c-0.2,0-0.4-0.1-0.5-0.3c-0.1-0.1-0.2-0.1-0.3-0.1
				c-0.1,0-0.1,0-0.1-0.1l-0.2-0.2c-0.1-0.1-0.2-0.1-0.2,0.1s0,0.1-0.1,0.1l0,0c-0.1,0-0.2,0-0.2-0.1h-0.1c-0.1,0-0.2,0-0.2-0.1
				s0-0.1-0.1-0.1l0,0c-0.1,0-0.2,0-0.2-0.1c0,0-0.1,0-0.2,0s-0.1,0,0-0.1s0.2-0.2,0.3-0.3c0.1-0.1,0.1-0.1,0-0.2
				c0-0.1-0.1-0.2-0.1-0.3c-0.1,0-0.1-0.1,0-0.2l0,0l0-0.3c0.1-0.1,0.2-0.2,0.1-0.3V4.6c0.1-0.1,0.1-0.2,0.2-0.3l0.1-0.1
				c0-0.1,0.1-0.2,0.2-0.2C26,3.9,26.1,3.8,26,3.6l0,0c0-0.1,0-0.2,0-0.3c0-0.2,0.1-0.3,0.2-0.5c0.1-0.1,0.1-0.1,0.2,0
				C26.4,3,26.5,3,26.7,3c0.1,0,0.2,0.1,0.2,0.2c0.1,0.1,0.1,0.1,0.2,0s0.2-0.1,0.3-0.1c0.1,0,0.2,0,0.3,0.1s0.1,0,0.1-0.1
				S27.9,3,28,3s0.1,0,0.1,0s0.2,0,0.3,0l0,0c0.1,0.1,0.3,0.1,0.4,0.1s0.3,0.1,0.4,0.2c0.1,0.1,0.1,0.1,0.3,0.1s0,0,0.1,0
				s0.2,0.1,0.3,0.1c0,0,0.1-0.1,0.1,0C30,3.5,30.1,3.6,30,3.6C30,3.5,30,3.6,30,3.6z"/>
			<path class="st0" d="M23.8,17.2c0.1-0.2,0.1-0.3,0-0.5c0-0.1,0-0.1,0-0.2c0.1-0.2,0.2-0.4,0.2-0.6c0-0.1,0.1-0.1,0.1-0.2
				c0.1,0,0.2-0.1,0.2-0.2l0.1-0.1h0.1v0.1v0.1l0.1,0.1c0,0,0.2,0,0.4,0h0.2c0.2,0,0.4,0.1,0.5,0.2c0.1,0,0.1,0,0.1,0h0.1
				c0.2,0,0.4,0,0.5-0.1c0-0.1,0.1-0.1,0.2-0.1h0.1c0.1,0.1,0.2,0.1,0.3,0.2c0.1,0,0.1,0.1,0.1,0.1c-0.1,0.2,0,0.5,0,0.7
				c0,0,0,0.1,0.1,0.1s0.1,0.1,0,0.2s-0.1,0.2-0.1,0.3c0,0,0,0.1-0.1,0.1h-0.1c-0.1,0-0.1,0-0.1,0.1c0,0,0,0,0,0.1
				c0,0.2,0.1,0.3,0.2,0.4s0.1,0.1,0,0.2s-0.1,0.1-0.2,0.2s0,0.2-0.1,0.2s0,0,0,0c0,0.2-0.1,0.2-0.2,0.2s-0.3,0.1-0.4,0
				c-0.1,0-0.3,0-0.5,0c-0.1,0-0.2,0.1-0.4,0s-0.1,0-0.1,0s-0.1,0-0.2-0.1c0,0,0-0.1-0.1,0c-0.1,0-0.1-0.1-0.1-0.2s-0.1-0.2-0.2-0.2
				s-0.2-0.1-0.2-0.1h-0.1c-0.1,0-0.2,0-0.3,0l0,0c-0.1,0-0.1,0-0.1-0.1S23.7,18,23.6,18s-0.1,0-0.2,0s-0.1,0-0.1-0.1v-0.1
				c0-0.1,0-0.3,0-0.4v-0.1h0.1c0,0,0,0,0.1,0l0,0v-0.1C23.6,17.1,23.6,17.1,23.8,17.2z"/>
			<path class="st1" d="M23.2,22.5c0.1,0,0.2-0.1,0.3-0.2c0.1-0.1,0.2,0,0.3-0.1s0.1,0.1,0.1,0.1 M23.9,22.4
				C23.9,22.4,23.9,22.5,23.9,22.4c0,0.1,0,0.1,0,0.2c0,0-0.1,0.1,0,0.2l0,0c0,0,0,0.1,0.1,0.1c0.1,0.1,0.1,0.2,0.2,0.3
				s0.1,0.1,0,0.2s0,0,0,0s0.1,0.2,0.1,0.3s0,0.1-0.1,0s-0.2,0.1-0.3,0h-0.1v0.1l0,0c0,0.2,0.2,0.2,0.3,0.4v0.1v0.1H24
				c0,0-0.1-0.1-0.2-0.2c-0.1,0-0.2,0-0.3,0c0,0.1,0.1,0,0.1,0.1s0,0.1,0,0.1l-0.2,0.1c0,0-0.1,0-0.1,0.1c0.1,0,0.2-0.1,0.3-0.1
				c0.1,0,0.1,0,0.1,0.1s0,0.2,0.1,0.2s0,0,0,0.1s-0.1,0-0.1,0s-0.1-0.1-0.2-0.1c0,0.1,0.1,0.2,0.2,0.2c0.2,0,0.3,0.2,0.2,0.3
				c0,0,0,0.1-0.1,0.1s-0.2,0-0.2,0c0.2,0,0.3,0.1,0.5,0.2s0.1,0,0,0.1s-0.1,0-0.1,0c-0.1,0-0.2,0-0.3-0.1c0,0.1,0,0.2,0.1,0.3
				c0.1,0.1,0,0.3-0.1,0.3c0,0-0.1,0-0.1,0.1s0,0,0,0.1s0,0-0.1,0v-0.1c0-0.1,0-0.1,0.1-0.1s0,0,0-0.1s-0.1,0.1-0.1,0.1h-0.1l0,0
				c0.2,0.1,0.2,0.3,0.2,0.5l0,0v0.1c0,0-0.1,0-0.2,0c0,0,0,0-0.1,0s-0.1,0.1-0.2,0s-0.1-0.1-0.2,0s0,0,0,0s-0.1,0-0.1,0.1s0,0,0,0
				s-0.2-0.1-0.3-0.2c-0.1,0-0.2-0.1-0.3-0.1c-0.1,0-0.1-0.1,0-0.1c0.1-0.1,0.1-0.3,0.1-0.4c0,0,0,0,0.1-0.1s0.1-0.1,0.1-0.2
				s0-0.2,0.1-0.3s0-0.1,0-0.1c0-0.2,0-0.3,0-0.5c0-0.1,0-0.2-0.1-0.3c-0.1-0.1-0.1-0.3,0-0.4c0-0.1,0-0.2,0-0.4
				c0-0.1,0-0.2,0.1-0.3c0.1-0.1,0.2-0.4,0.1-0.5c0-0.1,0-0.2,0-0.2c0.1-0.1,0-0.1,0-0.2s-0.1-0.1,0-0.2s0.1,0,0.1,0l0,0
				c0.1,0,0.2,0,0.2,0.2s0,0.1,0,0.1L23.9,22.4z"/>
			<path class="st1" d="M22.4,30.9c-0.1-0.1-0.2-0.3-0.2-0.4c0,0,0-0.1,0.1-0.1c0.2-0.1,0.3-0.1,0.5-0.1h0.1c0.1,0,0.1,0,0.2,0
				s0.1-0.1,0.2,0c0.1,0,0.1,0,0.1-0.1l0.1-0.1h-0.1c-0.1,0-0.2,0-0.3,0.1c-0.1,0.1-0.2,0.1-0.3,0.1c-0.1,0-0.2,0-0.4,0.1
				c-0.1,0-0.2,0-0.2,0h-0.1c-0.1,0-0.1,0-0.2,0s-0.1-0.1-0.1-0.2s0.1-0.1,0.2-0.1h0.1l0,0l0,0c0,0-0.1-0.1,0-0.1s0,0,0-0.1
				c0,0,0-0.1,0.1-0.1c0,0-0.1,0-0.1-0.1s0-0.1,0-0.1s0.1,0,0.1-0.1s-0.1-0.2-0.1-0.3s0-0.2,0.1-0.2s0.1,0,0.2-0.1l0,0h0.2
				c0,0.1,0,0.1,0,0.2l0.2,0.1c0,0,0.1,0,0.1-0.1s0.1-0.1,0.2,0s0.1,0.2,0.1,0.2c0,0.1,0,0.2,0.1,0.2c0.1,0.1,0,0.2,0,0.3l0.2-0.2
				l0,0c0.1,0.1,0.1,0.1,0.1,0.3s0,0.1,0,0.1h0.1c0,0,0.1,0,0.1,0.1s0,0.2-0.1,0.2s0,0.1,0,0.1s0.1,0.2,0,0.2s0,0,0,0
				c0,0.1,0,0.3,0,0.4c0,0,0,0,0,0.1s-0.2,0.2-0.3,0.1l0,0v-0.1c0-0.1,0-0.3-0.1-0.4s-0.1-0.1-0.1-0.2c0,0.1,0,0.2,0.1,0.2
				s0,0.1,0,0.1h-0.1l0,0c-0.1-0.1-0.2,0-0.2,0c-0.1,0.1-0.1,0.1-0.2,0.1h-0.1C22.6,30.9,22.5,30.9,22.4,30.9L22.4,30.9z M22.5,29.2
				C22.6,29.2,22.7,29.2,22.5,29.2c0-0.2,0.1-0.1,0.1-0.1h0.1c0,0,0.1,0.2,0.1,0.3s0,0.1,0,0.1c0,0.1,0,0.1,0,0.2s0,0.1,0.1,0.1
				s0.2,0,0.2,0.1s0,0,0.1,0s0.3,0,0.4,0l0.1-0.1c0,0-0.1,0-0.1-0.1s-0.1,0-0.1,0s-0.1,0.1-0.2,0.1s-0.2-0.1-0.3-0.1
				c-0.1,0-0.2-0.2-0.2-0.3c0-0.1,0-0.2-0.1-0.3c0-0.1-0.1-0.1-0.2-0.1c0,0-0.1,0-0.1,0.1s-0.1,0-0.1,0.1
				C22.4,29.1,22.5,29.1,22.5,29.2L22.5,29.2c0,0,0,0.1,0,0.2c0,0.2,0.1,0.4,0.3,0.4c0-0.1-0.1-0.1-0.1-0.2l0,0
				c-0.1,0-0.1-0.1,0-0.2c0-0.1,0-0.1,0-0.2L22.5,29.2z"/>
			<path class="st1" d="M23.7,33.4L23.7,33.4c0,0,0.1,0.1,0,0.2s-0.1,0-0.1-0.1c0,0-0.1-0.1-0.1-0.2c0-0.2,0.1-0.5,0.2-0.7
				c0.1-0.1,0.1-0.1,0.3,0s0.1,0.1,0.1,0.2c0,0.1,0,0.2,0,0.3l0,0c-0.1,0,0,0.1,0,0.2s0,0.1,0,0.1s-0.1,0.1-0.2,0
				S23.8,33.4,23.7,33.4z"/>
			<path class="st1" d="M23,31c0,0.1,0.1,0.1,0.1,0c0.1,0,0.2,0.1,0.2,0.1v0.1c-0.1,0.1-0.3,0.1-0.4,0.1h-0.1
				c-0.1,0.1-0.2,0.1-0.3,0v-0.1c0,0,0,0,0-0.1h-0.1V31h0.1c0.1,0,0.2,0,0.2,0s0.3-0.2,0.5-0.1L23,31z"/>
			<path class="st1" d="M23.3,28.4h-0.1c-0.1-0.1-0.2-0.2-0.4-0.2c-0.1,0-0.1,0-0.1-0.1s0.1-0.2,0.2-0.2H23h0.1c0,0,0.1,0.1,0.1,0
				s0.1-0.1,0.3,0c0.1,0.1,0.1,0.2,0,0.3v0.1C23.4,28.4,23.4,28.4,23.3,28.4z"/>
			<path class="st1" d="M23.6,31c0,0.1,0,0.1,0,0.2s-0.1,0.1-0.1,0.1s0,0-0.1,0s-0.1-0.1-0.2-0.2V31l0,0l0,0h-0.1H23l0,0
				c0,0-0.1-0.1-0.2-0.1c0,0-0.1,0-0.1-0.1s0.1-0.1,0.1-0.1c0.1,0,0.1,0,0.2-0.1h0.1c0.1,0,0.1,0,0.2,0c0.1-0.1,0.2,0,0.2,0.1
				S23.5,31,23.6,31L23.6,31z"/>
			<path class="st1" d="M22.4,30.9c0.1,0.1,0,0.2-0.1,0.2s-0.1,0-0.2-0.1c0,0,0-0.1-0.1-0.1c-0.1-0.1-0.1-0.1,0-0.2
				c-0.1,0-0.2,0-0.3,0s-0.1,0,0-0.1s0.1-0.1,0.2-0.1s0.2,0,0.2,0.2C22.2,30.8,22.3,30.9,22.4,30.9L22.4,30.9z"/>
			<path class="st1" d="M21.6,27.5L21.6,27.5c-0.1-0.1-0.1-0.1-0.1-0.2s0-0.1,0.1-0.1l0,0c0,0,0-0.1,0.1-0.1s0.1,0.1,0.2,0.1l0,0
				l0.1,0.1c0,0-0.1,0-0.1,0.1C21.8,27.4,21.7,27.5,21.6,27.5L21.6,27.5z"/>
			<path class="st1" d="M23.5,28.4c0-0.1,0-0.1,0.1-0.1s0.1,0,0.1,0s0.1,0.1,0.1,0.2s0,0.1,0,0.1c0,0.1,0,0.2,0,0.2l0,0
				c-0.1,0-0.1,0-0.1-0.1s0-0.1-0.1-0.2L23.5,28.4z"/>
			<path class="st1" d="M21,31.2c0,0.1,0,0.2-0.1,0.2c0,0-0.1,0-0.1-0.1s0-0.1-0.1-0.2c0,0,0-0.1,0-0.2h0.1l0,0
				C20.9,31.1,21,31.1,21,31.2z"/>
			<path class="st1" d="M24.1,32c0.1,0.1,0.1,0.1,0.1,0.2c0,0.1,0,0.1-0.1,0.1s-0.1,0-0.2,0C23.9,32.2,24,32.1,24.1,32L24.1,32z"/>
			<path class="st1" d="M21.5,30.4C21.6,30.5,21.6,30.5,21.5,30.4c0,0.1-0.1,0.1-0.1,0.1h-0.1c0-0.1-0.1-0.1-0.1-0.2s0-0.1,0.1-0.1
				s0.1,0,0.1,0.1C21.5,30.3,21.5,30.4,21.5,30.4L21.5,30.4z"/>
			<path class="st1" d="M21.6,33.5C21.6,33.5,21.6,33.6,21.6,33.5l-0.2-0.1c-0.1,0-0.1-0.1-0.2-0.1h-0.1c0,0,0,0,0.1,0s0.1,0,0.1,0
				h0.1l0,0C21.6,33.4,21.6,33.4,21.6,33.5z"/>
			<path class="st1" d="M24.5,24.6c-0.1,0-0.1,0-0.1-0.1v-0.1c0,0,0,0,0.1,0s0,0,0.1,0s0.1,0,0.1,0C24.6,24.5,24.5,24.6,24.5,24.6z"
				/>
			<path class="st1" d="M24.4,24c0,0.1,0,0.1,0,0.1v0.1c0,0,0,0-0.1,0s-0.1,0-0.1,0s-0.1,0-0.1-0.1l0.1-0.1
				C24.2,24,24.2,23.9,24.4,24C24.3,23.9,24.4,23.9,24.4,24L24.4,24z"/>
			<path class="st1" d="M24,28.7h0.1l0,0c0,0.1,0,0.1-0.1,0.1h-0.1c0,0-0.1,0-0.1-0.1S24,28.7,24,28.7z"/>
			<path class="st1" d="M24.6,23.6C24.6,23.6,24.6,23.5,24.6,23.6l0.1-0.1c0,0,0.1,0,0.1,0.1s0,0.1-0.1,0.1s-0.1,0-0.1,0
				S24.7,23.6,24.6,23.6z"/>
			<path class="st1" d="M25.1,25L25.1,25L25,24.8v-0.1l0,0C25.1,24.8,25.2,24.8,25.1,25C25.2,25,25.2,25,25.1,25z"/>
			<path class="st1" d="M23.7,29.3c-0.1,0-0.2-0.1-0.1-0.2h0.1C23.7,29.1,23.8,29.1,23.7,29.3L23.7,29.3L23.7,29.3z"/>
			<path class="st1" d="M23.9,24.5L23.9,24.5C23.9,24.4,23.9,24.4,23.9,24.5L23.9,24.5c0-0.1,0,0,0.1,0.1s0,0.1,0,0.1h-0.1
				C23.9,24.6,24,24.5,23.9,24.5z"/>
			<path class="st1" d="M24.6,23.6L24.6,23.6c0,0.1,0,0.2-0.1,0.2s-0.1,0-0.1-0.1v-0.1l0,0C24.4,23.5,24.5,23.6,24.6,23.6L24.6,23.6
				z"/>
			<path class="st1" d="M22.5,28.6L22.5,28.6c-0.1,0-0.1,0-0.1-0.1s0,0,0-0.1s0.1-0.1,0.2,0S22.6,28.5,22.5,28.6L22.5,28.6
				L22.5,28.6z"/>
			<path class="st1" d="M25,22C25,22,24.9,22,25,22c-0.1-0.1-0.1-0.2,0-0.2l0,0c0.1,0,0.1,0,0.1,0.1S25,22,25,22z"/>
			<path class="st1" d="M22.1,32c0,0.1,0,0.1-0.1,0.1c0,0,0,0-0.1,0s0-0.1,0-0.1S22,31.9,22.1,32L22.1,32z"/>
			<path class="st1" d="M22.5,26.8L22.5,26.8L22.5,26.8L22.5,26.8C22.5,26.7,22.5,26.8,22.5,26.8v0.1C22.5,26.9,22.5,26.9,22.5,26.8
				z"/>
			<path class="st1" d="M24.4,30.1L24.4,30.1L24.4,30.1c0-0.1,0-0.1,0.1-0.2s0,0,0,0C24.5,30,24.5,30,24.4,30.1z"/>
		</g>
		<rect x="2.5" y="2.3" class="st6" width="32.6" height="32.6"/>
		<path class="st1" d="M30.3,2.4C30.3,2.4,30.3,2.3,30.3,2.4l-4-0.1c0,0.1,0,0.2,0.2,0.3c0,0,0,0,0,0.1s0.1,0.2,0.2,0.2
			s0.2,0,0.3,0.1s0,0,0,0s0.1,0,0.2,0s0.4,0.1,0.5-0.1l0,0c0.1,0,0.2-0.1,0.2-0.2L28,2.8c0,0.1,0.1,0.1,0.2,0.1l0,0h0.1h0.1
			c0.1-0.1,0.1,0,0.1,0S28.7,3,28.8,3c0.2,0,0.4,0,0.6,0.2c0,0,0.1,0.1,0.1,0s0.2,0,0.3,0c0.1,0,0.1,0,0.2,0s0-0.1,0.1-0.1L30.2,3
			V2.9c-0.1-0.1-0.1-0.2,0-0.2C30.2,2.6,30.3,2.5,30.3,2.4z"/>
	</g>
	<path class="st1" d="M21.1,34.5L21.1,34.5L21.1,34.5c-0.2,0-0.2,0.1-0.1,0.2c0,0.1,0.1,0.1,0.1,0.1h0.2c0,0,0.1,0,0.1-0.1
		c0-0.2,0.2-0.2,0.3-0.3c-0.1,0.1-0.1,0.3-0.2,0.5h2.2v-0.1c0,0,0-0.1,0.1-0.2c0,0.1,0,0.2,0,0.3h4c0-0.1-0.1-0.2-0.2-0.2
		s-0.1-0.1-0.1-0.1s0,0,0.1,0c0.2,0,0.3-0.1,0.4-0.2c0.1-0.2,0.1-0.4-0.1-0.6c0,0-0.1,0,0-0.1c0-0.1,0-0.2,0-0.3
		c0-0.2,0.1-0.3,0.1-0.5l0,0c0.1,0,0.1-0.1,0.2-0.1h0.1c0.1,0,0.2,0,0.2-0.1s0-0.1,0-0.2s0-0.1,0-0.2c0.1,0,0.2-0.1,0.2-0.2
		c0.1,0,0.1-0.1,0-0.1c0-0.1-0.1-0.2-0.1-0.2c-0.1-0.1-0.2-0.2-0.2-0.3s-0.1-0.2-0.1-0.3s-0.1-0.1-0.1-0.1c-0.1,0-0.2-0.1-0.3-0.1
		c-0.1,0-0.1,0-0.2,0c-0.1,0.1-0.1,0-0.2,0c-0.1-0.1-0.2-0.2-0.2-0.4l0,0c0.1,0,0.2,0.1,0.3,0.1h0.1c0,0,0.1-0.1,0.2-0.1
		s0.3,0,0.4-0.1c0-0.1,0.1-0.1,0.2,0l0,0l0.1,0.1c0.1,0.1,0.2,0.1,0.3,0l0.1-0.1c0-0.1,0-0.1,0-0.2s0-0.2,0.1-0.2s0.1-0.1,0.1-0.1
		S29,29.8,29,29.7s-0.2-0.2-0.3-0.2s-0.1,0-0.1,0s-0.2-0.1-0.3,0c-0.1,0-0.1,0-0.2,0s-0.2-0.1-0.3,0h-0.1v-0.1c0-0.1,0-0.2,0-0.2
		v-0.1V29c0-0.1-0.1-0.2,0-0.3s0,0,0,0c-0.1-0.1-0.2-0.2-0.2-0.3c0,0,0-0.1-0.1,0s-0.2,0-0.4,0h-0.1c-0.1-0.1-0.1-0.2-0.3-0.2
		c-0.1-0.1-0.2-0.2-0.2-0.3c0-0.1,0-0.1-0.1-0.2c-0.1,0.1-0.1,0.1-0.2,0.2c0,0.1-0.1,0.1-0.2,0.1s-0.1,0-0.1,0c-0.1,0-0.2,0-0.3,0
		c-0.1,0-0.2,0-0.3,0h-0.1c-0.1,0.1-0.1,0-0.2,0s0,0.1-0.1,0.2l0,0v0.1h-0.1c0,0,0-0.1-0.1-0.1s-0.3,0.1-0.3,0.2s0.1,0.1,0,0.2
		s0,0,0.1,0h0.1c0.1,0,0.1,0,0.2,0.1s-0.1,0-0.1-0.1s-0.1,0-0.1,0s-0.1,0.1-0.1,0.2s0,0.2,0.1,0.3c0,0.1,0.1,0.1,0.2,0.1
		c0.2,0,0.3,0,0.5,0.1c0.1,0,0.1,0,0.1,0.1s0,0.1,0.1,0.1s0.2,0.1,0.2,0.2s-0.1,0-0.1,0c-0.1,0-0.3-0.1-0.3-0.2s-0.1-0.1-0.1-0.1
		c-0.1,0-0.1,0-0.2,0s-0.1,0-0.1,0.1s0,0,0,0.1s-0.1-0.2-0.2-0.1c-0.1,0-0.1,0.1-0.1,0.1c0,0.1,0.1,0.1,0.2,0.1
		c-0.1,0.1-0.2,0.2-0.1,0.3s0,0.1,0,0.1s0,0,0,0.1s0,0.1-0.1,0.1l0,0c-0.1,0-0.2,0.2-0.2,0.3c0,0.1,0.1,0.2,0.1,0.3
		c0,0.1,0,0.1,0,0.2v0.1l0.1,0.1c0,0,0.1,0.1,0.2,0.1c-0.4,0-0.4,0.1-0.3,0.4c0-0.1-0.1,0-0.1,0v-0.2l0,0l0,0c0,0,0,0,0,0.1
		s0,0.1-0.1,0.2c0,0,0,0,0,0.1l0,0c0,0,0.1,0.1,0.1,0s0.1,0,0.2,0h0.1c0,0,0.1,0,0.1,0.1s-0.1,0-0.2,0s0,0.1-0.1,0s-0.1,0-0.1,0.1
		v0.1l0,0c0.2,0,0.2,0,0.2,0.2s0,0.1,0.1,0s0.1-0.1,0.2-0.2s0.1-0.1,0.2,0s0.2,0.2,0.3,0.3c0.1,0.1,0.1,0.1,0.2,0.1s0.1,0,0.2-0.1
		 M25.7,32.4C25.7,32.4,25.7,32.5,25.7,32.4c0,0.2-0.1,0.2-0.2,0.2c-0.2,0-0.5-0.2-0.5-0.4c0-0.1-0.1-0.1-0.2,0s-0.2,0.2-0.3,0.3
		c0,0,0,0,0,0.1c-0.1,0-0.2,0.2-0.2,0.3c0,0.2-0.1,0.4-0.1,0.7v0.1h0.1l0,0c-0.2,0.4-0.3,0.6-0.3,0.9c-0.1,0-0.1,0-0.1-0.1
		c0,0,0.1,0,0.1-0.1c0-0.2,0-0.3,0-0.5c0,0,0-0.1-0.1-0.1s-0.1,0-0.2-0.1s-0.2,0-0.2,0.1s0,0.3-0.1,0.4v0.1c0,0.1,0,0.3,0,0.4
		c0-0.1,0-0.2-0.1-0.2c-0.1-0.1-0.1-0.1,0-0.2c0.1-0.1,0.1-0.2,0.1-0.2c0-0.1,0-0.2,0.1-0.3s-0.1,0-0.2,0s0.2-0.1,0.2-0.2
		c0-0.1,0-0.2,0-0.3c0.2,0,0.2-0.2,0.2-0.2s-0.1-0.1-0.1-0.2s0.1,0,0.1-0.1s0.1-0.2,0.1-0.3s0-0.1,0-0.1s0.1-0.1,0.1-0.2s0,0,0-0.1
		s0-0.2,0-0.3c0-0.1-0.1-0.2-0.2-0.2c0,0-0.1,0-0.1-0.1s-0.1-0.1-0.1-0.1h-0.1c-0.1,0.1-0.3,0.1-0.4,0.1s-0.1,0-0.1,0.1l-0.1,0.1
		l-0.1-0.1c0,0-0.1,0-0.2,0c0,0.1,0,0.1,0,0.2v0.1c0,0.1,0,0.1,0,0.2s0,0.1-0.1,0.1c0,0,0,0-0.1,0s-0.1,0.1,0,0.2
		c0.1,0.1,0.2,0.1,0.2,0.1c0.1,0.1,0.2,0.1,0.3,0c0.1,0,0.1-0.1,0.2-0.1s0.1-0.1,0-0.2s-0.1-0.1,0-0.2c0.1,0.1,0.1,0.2,0.2,0.3
		c0,0.1,0.1,0.1,0.1,0.2c0,0.1-0.1,0.1-0.1,0.2v0.1v0.1c0.1,0.1,0.1,0.2,0.1,0.4c0.1,0.1,0.1,0.1,0,0.2l0,0
		c-0.1-0.1-0.2-0.2-0.4-0.2c0.2,0,0.3-0.2,0.2-0.3S23,32.8,23,32.8c0-0.1-0.1-0.1-0.1-0.1c-0.1,0-0.2,0-0.3-0.1
		c-0.1,0-0.1,0-0.1,0.1c-0.2,0-0.3,0.2-0.3,0.3s0,0.1-0.1,0.2c-0.1,0.1-0.2,0.2-0.2,0.3s0,0.2,0.2,0.2s0.1,0,0.1,0.1
		s0.1,0.1,0.2,0.1s0.1-0.1,0.2-0.1s0.1,0,0.1-0.1l0.1,0.1h-0.1h-0.1c-0.1,0-0.1,0.1-0.1,0.2l0,0c0,0,0,0.1,0.1,0.1
		c0,0,0.1,0.1,0,0.2s0,0,0-0.1s-0.2-0.1-0.2-0.2c0,0,0,0-0.1,0s-0.2,0-0.2,0s0,0-0.1,0h-0.1c-0.1,0-0.1,0-0.2,0.1
		c0,0.1-0.1,0.1-0.2,0.1h-0.1h-0.1h-0.1l0,0v0.1c0,0.1,0,0.3,0.2,0.3L25.7,32.4z M25.5,30.6c-0.1,0.2-0.3,0.3-0.5,0.3
		c0.1-0.1,0.2-0.2,0.3-0.3c0.1-0.1,0.1-0.1,0.2-0.2c0,0,0,0,0-0.1s0-0.1,0.1-0.2c0.1-0.2,0.2-0.3,0.2-0.5c0-0.1,0-0.1,0.1-0.2
		c0,0.1-0.1,0.2,0,0.3c-0.1,0-0.2,0.1-0.2,0.2s-0.1,0.2-0.1,0.3v0.1C25.7,30.4,25.6,30.5,25.5,30.6C25.5,30.5,25.6,30.6,25.5,30.6z
		 M24.6,33.2c0.1,0,0.1,0,0.2,0.1c-0.2,0-0.3,0-0.5,0.1C24.5,33.2,24.5,33.2,24.6,33.2z M22.9,32c-0.1,0.1-0.2,0.1-0.3,0l-0.1-0.1
		c0.1,0,0.1,0,0.1-0.1C22.6,31.9,22.7,32,22.9,32L22.9,32C22.8,31.9,22.9,31.9,22.9,32C23,32,22.9,32,22.9,32z"/>
</g>
<text transform="matrix(1 0 0 1 5.39 17.23)" class="st3 st4">R</text>
<text transform="matrix(1 0 0 1 7.33 17.23)" class="st3 st4">egión de</text>
<text transform="matrix(1 0 0 1 5.39 20.83)" class="st3 st4">L</text>
<text transform="matrix(1 0 0 1 7.14 20.83)" class="st3 st4">os </text>
<text transform="matrix(1 0 0 1 11.54 20.83)" class="st3 st4">R</text>
<text transform="matrix(1 0 0 1 13.52 20.83)" class="st3 st4">íos</text>
<text transform="matrix(1 0 0 1 69.48 30.59)" class="st3 st4">R</text>
<text transform="matrix(1 0 0 1 71.46 30.59)" class="st3 st4">ío</text>
<text transform="matrix(1 0 0 1 64.34 34.19)" class="st3 st4">S</text>
<text transform="matrix(1 0 0 1 66.23 34.19)" class="st3 st4">an </text>
<text transform="matrix(1 0 0 1 70.81 34.19)" class="st3 st4">P</text>
<text transform="matrix(1 0 0 1 72.61 34.19)" class="st3 st4">ed</text>
<text transform="matrix(1 0 0 1 76.22 34.19)" class="st3 st4">r</text>
<text transform="matrix(1 0 0 1 77.4 34.19)" class="st3 st4">o</text>
<text transform="matrix(1 0 0 1 80.95 5.67)" class="st5 st3 st4">Lago</text>
<text transform="matrix(1 0 0 1 78.96 9.27)" class="st5 st3 st4">R</text>
<text transform="matrix(1 0 0 1 80.94 9.27)" class="st5 st3 st4">iñihue</text>
<text transform="matrix(1 0 0 1 53.89 44.44)" class="st3 st4">T</text>
<text transform="matrix(1 0 0 1 55.4 44.44)" class="st3 st4">aco</text>
<text transform="matrix(1 0 0 1 60.58 44.44)" class="st3 st4"> </text>
<text transform="matrix(1 0 0 1 61.54 44.44)" class="st3 st4">1</text>
<text transform="matrix(1 0 0 1 53.89 53.61)" class="st3 st4">T</text>
<text transform="matrix(1 0 0 1 55.4 53.61)" class="st3 st4">aco 2</text>
<text transform="matrix(1 0 0 1 52.89 80.12)" class="st3 st4">T</text>
<text transform="matrix(1 0 0 1 54.4 80.12)" class="st3 st4">aco 3</text>
<line class="st7" x1="39.2" y1="44.4" x2="51.1" y2="44.4"/>
<line class="st7" x1="33.1" y1="53.6" x2="51.1" y2="53.6"/>
<line class="st7" x1="22.9" y1="80.1" x2="51.1" y2="80.1"/>
<circle class="st1" cx="51.1" cy="53.6" r="0.4"/>
<circle class="st1" cx="51.1" cy="44.4" r="0.4"/>
<circle class="st1" cx="51.1" cy="80.1" r="0.4"/>
<path class="st1" d="M25,15.2c-0.2,0-0.3,0.1-0.4,0.1c-0.1,0-0.1,0-0.2,0.1c0,0,0,0.1,0,0.1c0,0,0,0.1-0.1,0.1
	c-0.1,0-0.1-0.1-0.1-0.1c0-0.2-0.1-0.4-0.1-0.5c-0.1-0.3-0.2-0.5-0.3-0.7c-0.1-0.2-0.1-0.3-0.2-0.5c-0.1-0.1-0.1-0.3-0.1-0.5
	c0-0.1,0.1-0.2,0.1-0.2c0,0,0.1,0,0.1,0c0,0,0,0.1,0,0.1c0,0.1,0.1,0.1,0.2,0c0,0,0,0,0.1-0.1c0,0,0.1,0,0.1-0.1
	c-0.1,0-0.1-0.1-0.2-0.1c-0.1-0.1-0.1-0.2,0.1-0.3c0.1-0.1,0.2-0.2,0.3-0.3c0.2-0.1,0.1-0.3,0-0.4c-0.1-0.1-0.1-0.1,0-0.2
	c0.1-0.1,0.2-0.3,0.2-0.5c0.1-0.1,0.1-0.3,0-0.4c0,0,0-0.1,0-0.1c0.1,0,0.3-0.1,0.4-0.1c0,0,0.1,0,0.1,0c0.1,0.1,0.3,0.2,0.4,0.1
	c0.1,0,0.1,0.1,0.1,0.1c0.1,0.2,0.2,0.3,0.3,0.4c0,0,0,0,0.1,0c0.2,0,0.3,0.1,0.4,0.2c0.1,0.1,0.2,0.1,0.3,0.1c0.1,0,0.1,0,0.1,0
	c0.1,0.1,0.1,0.1,0.3,0c0,0,0.1-0.1,0.1,0c0,0,0,0.1,0,0.1c0,0,0,0.1,0,0.1c0.1,0.1,0.1,0.1,0,0.2c0,0.1,0.1,0.2,0.2,0.3
	c0,0,0,0,0.1,0c0.1-0.2,0.3-0.2,0.4-0.3c0.1-0.1,0.1-0.1,0.1-0.2C28,12,28,12,28.1,12c0.1,0,0.3,0,0.4,0c0.2,0,0.2,0.1,0.2,0.2
	c0,0.2,0,0.4,0.1,0.6c0,0.1,0.1,0.2,0.2,0.2c0.1,0.1,0.1,0.1,0,0.2c0,0.1-0.1,0.1-0.1,0.2c0,0.1,0,0.1-0.1,0.1c-0.1,0-0.3,0-0.4,0.1
	c0,0-0.1,0-0.1,0c-0.1,0-0.1,0-0.2,0.1c-0.1,0.1-0.1,0.1-0.2,0.1c0,0-0.1,0-0.1,0c0,0.1-0.1,0.2,0,0.3c0,0.1,0,0.2,0,0.3
	c0,0.1,0,0.2,0,0.3c0,0.1,0,0.3-0.1,0.4c0,0,0,0,0,0.1c0,0.1,0,0.3-0.1,0.4c0,0,0,0.1,0,0.2c0,0,0,0,0,0.1c0,0-0.1,0-0.1,0
	c-0.1,0-0.1-0.1-0.1-0.1c0-0.1-0.1-0.2-0.3-0.2c-0.1,0-0.1,0-0.2-0.1c-0.1-0.1-0.3-0.2-0.4,0c-0.1,0-0.1,0.1-0.2,0.1
	c-0.1,0.1-0.2,0.1-0.3,0c-0.1,0-0.2-0.1-0.3-0.1c-0.1,0-0.2,0-0.2-0.1c0,0-0.1-0.1-0.2,0c-0.1,0.1-0.2,0-0.4,0
	c-0.1,0-0.1-0.1-0.1-0.2C25,15.4,25,15.3,25,15.2z"/>
</svg>
