<?xml version="1.0" encoding="utf-8"?>
<!-- Generator: Adobe Illustrator 23.0.1, SVG Export Plug-In . SVG Version: 6.00 Build 0)  -->
<svg version="1.1" id="Capa_1" xmlns="http://www.w3.org/2000/svg" xmlns:xlink="http://www.w3.org/1999/xlink" x="0px" y="0px"
	 viewBox="0 0 100 100" style="enable-background:new 0 0 100 100;" xml:space="preserve">
<style type="text/css">
	.st0{fill:#2BBBA0;}
	.st1{fill:#708088;}
	.st2{fill:#FFFFFF;}
	.st3{font-family:'WorkSans';}
	.st4{font-size:3px;}
	.st5{clip-path:url(#SVGID_2_);}
	.st6{fill:none;stroke:#000000;stroke-width:0.1;stroke-miterlimit:10;}
</style>
<title>riñihuazo</title>
<image style="overflow:visible;enable-background:new    ;" width="1205" height="1205" xlink:href="7A22457C536E059B.png"  transform="matrix(8.434752e-02 0 0 8.434752e-02 -1.0094 -1.0113)">
</image>
<g>
	<g>
		<g>
			<g>
				<polygon class="st0" points="99.8,0 97.3,3.6 94.3,5.6 91.2,8.9 89.6,11.3 85.7,11.2 84.9,12.1 84.5,13.3 83.9,13.1 82.3,14.4 
					80.4,16.3 80.4,17.7 81,19.8 80.9,21.4 81.2,23.5 79.3,25.2 77.8,25.2 75.6,25.4 72.9,25.3 70.4,24.2 68.9,25.3 65.8,26 
					63.5,27.9 60.9,29.6 59.7,30.4 59.6,33 57.5,32.9 54.9,34.3 53.8,34.6 52.4,35.1 49.2,34.7 47.4,35.7 45.7,36 44.4,36.7 
					43.9,38.4 43.7,40.5 42.5,43.2 38.7,46.6 36.7,47.7 35,49.5 33.4,51.5 32.4,54.4 32.3,62.2 31.7,62.9 29.8,64.6 24.5,66.9 
					22.2,67.4 20.9,67.5 19.5,68.8 18.8,72.2 22.5,77.6 24.9,80.9 26.2,82.7 26.5,85.9 26.7,89.2 25.9,91.5 24.6,94.4 23,97.5 
					22.3,99.1 22.6,100 19.7,100 19.6,99.6 21.2,97 24.7,90.9 24.9,88.6 24.3,87.1 23.2,84.6 22.7,83.1 22.1,81.6 21,80.4 
					20.7,79.3 22.6,81 22.9,79.8 21.9,79.2 19.8,77.8 16.3,73.1 16.3,71.7 17.2,69.5 17.9,67.7 20.3,66 22.2,65 24.2,63.9 
					26.4,64.2 28.1,63.7 30.4,61.4 30.4,55.4 30.4,53.2 30.9,51.2 33.2,48.8 34.9,47.1 39.4,42.6 40.6,41.7 41.3,40.5 41.9,38.8 
					41.6,37.7 41.3,36.4 41.6,34.5 45.9,32.5 47,31.7 47.6,32.7 48,33.3 49.2,33 51.1,33 52.3,32.7 52.6,33 53.5,33 55,32.8 55,32 
					55,30.8 55,29 55.5,27.6 56.1,25.5 57,24.3 58.9,23.7 61.7,23.2 63.8,22.5 65.6,22 67.6,21.4 69.8,21.4 73.9,21.3 75.6,19.5 
					76.7,18.2 76.6,17.2 76.3,15.4 76.7,14.6 77.1,13.7 77.3,12.7 76.8,11.1 76.1,8 78.4,6.1 79.2,5.5 77.7,3.8 76.8,3 76.8,1.9 
					76.8,1 77.9,-0.1 				"/>
			</g>
		</g>
		<polygon class="st1" points="40.6,43.9 40.8,44.9 40.8,45.8 40.6,46.7 40,46.7 39.5,46.8 39.2,47.3 39.1,47.7 38.4,47.9 38,47.7 
			37.4,47.2 36.9,46.1 36.7,45.7 36.6,45 36.6,44.3 37,43.3 37.4,42.3 38,41.3 39.3,41 40,41 40.7,41.9 		"/>
		<path class="st1" d="M25.7,97.1l-1.9-1.2l-2.1-0.8h-1.6h-1.5l-1.1-1.2l-0.8-1.5l-0.5-1.9V89L15,87.9v-1.2l1.1-2.3l0.7-1.5l0.6-0.9
			l0.1-1.3l1.8-1.9l1.1-1.6h0.8h1.3l1-0.6c0.4,0.5,1.3,2.2,1.3,2.2l0.9,1.3l1.8,1.9l1.2,1.7l1,2.1l0.8,1.8v2.1l-0.5,2.1l-1,2.1
			l-0.6,1.1l-1.1,1.7l-0.6,0.4H25.7z"/>
		<polygon class="st1" points="32.6,56 30.9,56 29.3,55.2 28.9,54.9 29.2,53.5 29.5,52.5 29.5,51.7 30.1,50.9 30.7,50.5 30.7,49.9 
			31.5,49.3 32.3,49 34.2,48.5 35.2,48.5 35.8,49.2 36.2,49.8 36.2,50.6 35.4,51.7 34.6,52.5 34.1,53.6 33.5,54.4 33.3,55.2 		"/>
	</g>
</g>
<text transform="matrix(1 0 0 1 82.0778 4.9269)"><tspan x="0" y="0" class="st2 st3 st4">Lago</tspan><tspan x="-2" y="3.6" class="st2 st3 st4">Riñihue</tspan></text>
<g>
	<text transform="matrix(1 0 0 1 65.7161 31.7382)" class="st3 st4">Río San Pedro</text>
</g>
<text transform="matrix(1 0 0 1 44.9822 46.7957)" class="st3 st4">Taco Nº1</text>
<text transform="matrix(1 0 0 1 37.5421 55.7913)" class="st3 st4">Taco Nº2</text>
<text transform="matrix(1 0 0 1 31.4963 81.0976)" class="st3 st4">Taco Nº3</text>
<g>
	<g>
		<rect x="2.1" y="2.3" class="st2" width="32.6" height="32.6"/>
	</g>
	<g>
		<defs>
			<rect id="SVGID_1_" x="2.1" y="2.3" width="32.6" height="32.6"/>
		</defs>
		<clipPath id="SVGID_2_">
			<use xlink:href="#SVGID_1_"  style="overflow:visible;"/>
		</clipPath>
		<g class="st5">
			<g>
				<path class="st1" d="M22.1,38.6C22.1,38.6,22,38.6,22.1,38.6c-0.1,0-0.1,0-0.1,0c0,0,0-0.1,0-0.1c0.1-0.1,0.1-0.3,0.2-0.4
					c0,0,0,0,0-0.1c0-0.1,0.1-0.2,0.2-0.2c-0.1-0.1-0.1-0.1,0.1-0.1c-0.1-0.1-0.1-0.2,0-0.3c0-0.1,0.1-0.1,0.2-0.1
					c-0.2-0.1-0.2-0.4-0.4-0.5c0-0.1,0.1,0,0.1-0.1c-0.1,0-0.2,0-0.3,0c0,0-0.1,0-0.1,0c0,0.1-0.1,0.1-0.2,0.1c0,0,0,0-0.1,0
					c0,0,0,0,0,0.1c0,0,0,0.1,0.1,0c0.2-0.1,0.3,0.1,0.4,0.1c0,0,0,0,0,0c0,0,0,0,0,0.1c-0.1,0-0.1,0-0.2,0c-0.1,0-0.3-0.1-0.4-0.1
					c0,0-0.1-0.1-0.1-0.1c-0.1-0.1-0.1-0.1-0.2-0.1c0,0-0.1,0-0.1,0c-0.1-0.1-0.2-0.1-0.3-0.1c-0.1-0.1-0.2-0.2-0.2-0.4
					c0,0,0-0.1,0-0.1c-0.1,0.1-0.3,0.1-0.4,0.2c-0.1,0-0.1,0.1-0.2,0c-0.1,0-0.1,0-0.2,0.1c0,0,0,0.1,0,0.1c0.1,0,0.1,0,0.2,0
					c0,0,0.1,0,0,0.1c0,0.1,0,0.1,0,0.1c0,0,0.1,0.1,0.1,0.1c0.1,0.1,0.1,0.2,0,0.3c-0.1,0.1-0.2,0.1-0.3,0.1c-0.1,0-0.2,0-0.2-0.1
					c0,0,0,0,0,0c-0.1-0.1-0.2-0.2-0.2-0.2c0-0.1-0.1-0.1-0.1-0.2c0-0.2,0.1-0.3,0.1-0.5c0,0,0,0,0.1-0.1c0,0,0.1,0,0.1,0
					c0.1,0,0.1,0,0.1-0.1c0-0.1,0-0.1,0.1-0.1c0.1,0,0.2-0.1,0.2-0.2c0-0.1,0.1-0.1,0.1-0.1c0.1,0,0.1-0.1,0.2-0.1
					c0.1,0,0-0.2,0.1-0.2c0.1,0,0.1-0.1,0.2-0.2c0-0.1,0.1-0.1,0.2-0.1c0,0,0.1,0,0.1,0c0,0,0-0.1,0-0.1c0-0.1,0.1-0.2,0.2-0.1
					c0-0.2,0.1-0.3,0.2-0.5c-0.1,0.1-0.2,0.2-0.3,0.3c0,0-0.1,0.1-0.1,0.1c-0.1,0-0.1,0-0.2,0c-0.1,0-0.1,0-0.1-0.1
					c-0.1-0.1,0-0.2,0.1-0.2c0,0,0,0,0,0c0,0,0,0,0,0c-0.1,0-0.2-0.2-0.2-0.3c0-0.1,0-0.1,0-0.1c0,0,0.1,0,0.2,0c0,0,0.1,0,0.1,0
					c0,0,0,0,0.1,0c0.1,0,0.2,0,0.2-0.1c0-0.1,0.1-0.1,0.2-0.1c0,0,0.1,0,0.1,0c0,0,0,0,0.1,0c0.1-0.1,0.2,0,0.2,0c0,0,0.1,0,0.1,0
					c0,0.1,0.1,0.2,0.2,0.3c0,0,0,0,0,0.1c0-0.1,0-0.1,0-0.2c0,0-0.1-0.1-0.1-0.1c0-0.1,0-0.2,0.1-0.2c0,0,0.1,0,0.1,0
					c0,0,0.1,0,0.1,0c0,0,0-0.1-0.1-0.1c0,0.1-0.1,0.1-0.1,0.1c-0.1,0-0.2,0-0.2,0.1c-0.1,0-0.2,0-0.2-0.1c0-0.1,0-0.1-0.1-0.1
					c-0.1,0-0.2-0.1-0.2-0.2c0-0.1,0.1-0.2,0.2-0.3c0.1,0,0.1-0.1,0.1-0.2c0-0.1,0-0.2,0.1-0.2c0-0.1,0.1-0.1,0.1-0.1
					c0.1,0,0.2,0,0.3,0.1c0.1,0,0.1,0,0.1,0.1c0,0.1,0.1,0.2,0.1,0.2c0.1,0.2,0,0.3-0.2,0.4c0.2,0,0.3,0.1,0.4,0.3c0,0,0,0,0,0
					c0.1-0.1,0.1-0.1,0-0.2c0-0.1-0.1-0.3-0.1-0.4c0,0,0-0.1,0-0.1c0,0,0-0.1,0-0.1c0-0.1,0.1-0.1,0.1-0.2c0-0.1-0.1-0.1-0.1-0.2
					c0-0.1-0.1-0.2-0.2-0.3c0,0.1,0,0.1,0,0.2c0.1,0.1,0.1,0.1,0,0.2c-0.1,0-0.1,0-0.2,0.1c-0.1,0.1-0.2,0.1-0.3,0
					c-0.1,0-0.2-0.1-0.2-0.1c-0.1-0.1-0.1-0.1,0-0.2c0,0,0.1,0,0.1,0c0.1,0,0.1-0.1,0.1-0.1c0-0.1,0-0.1,0-0.2c0-0.1,0-0.1,0-0.1
					c-0.1-0.1,0-0.1,0-0.2c0-0.1,0.1-0.1,0.2,0c0.1,0,0.1,0.1,0.1,0.1c0,0,0.1-0.1,0.1-0.1c0,0,0.1-0.1,0.1-0.1c0.1,0,0.3,0,0.4-0.1
					c0,0,0.1,0,0.1,0c0.1,0,0.1,0,0.2,0.1c0,0,0,0.1,0.1,0.1c0.1,0,0.1,0.1,0.2,0.2c0,0.1,0.1,0.2,0,0.3c0,0,0,0,0,0.1
					c0,0.1,0,0.2-0.1,0.2c0,0,0,0,0,0.1c0,0.1-0.1,0.2-0.1,0.3c0,0-0.1,0.1-0.1,0.1c0.1,0,0.2,0,0.1,0.1c0,0.1,0,0.2-0.2,0.2
					c0.1,0.1,0.1,0.2,0,0.3c0,0.1-0.1,0.2-0.2,0.2c0,0,0.1,0,0.2,0.1C23,33.7,23,33.8,23,33.9c0,0.1,0,0.2-0.1,0.2
					c-0.1,0.1-0.1,0.1,0,0.2c0.1,0.1,0.1,0.1,0.1,0.2c0-0.1,0.1-0.3,0-0.4c0,0,0-0.1,0-0.1C23,34,23,33.9,23,33.7
					c0-0.1,0.1-0.1,0.2-0.1c0.1,0,0.1,0.1,0.2,0.1c0.1,0,0.1,0.1,0.1,0.1c0,0.2,0,0.3,0,0.5c0,0.1,0,0.1-0.1,0.1
					c0.1,0,0.1,0.1,0.2,0.1c0-0.3,0.1-0.5,0.3-0.9c0,0,0,0,0,0c0,0-0.1,0.1-0.1,0.1c0,0,0-0.1,0-0.1c0-0.2,0.1-0.4,0.1-0.7
					c0-0.1,0-0.3,0.2-0.3c0,0,0,0,0.1-0.1c0.1-0.1,0.2-0.2,0.3-0.3c0.1,0,0.2,0,0.2,0.1c0.1,0.2,0.3,0.3,0.5,0.4
					c0.1,0,0.2,0,0.2-0.1c0,0,0-0.1,0-0.1c0,0-0.1,0-0.1,0c0,0.1-0.1,0.1-0.2,0.1c-0.1,0-0.1,0-0.2-0.1c-0.1-0.1-0.2-0.2-0.3-0.3
					c-0.1-0.1-0.1-0.1-0.2,0c-0.1,0.1-0.1,0.2-0.2,0.2c-0.1,0-0.1,0-0.1-0.1c0-0.2,0-0.2-0.2-0.2l0,0c0,0,0-0.1,0-0.1
					c0-0.1,0-0.1,0.1-0.1c0.1,0,0.1,0,0.1,0c0-0.1,0.1,0,0.2,0c0-0.1-0.1-0.1-0.1-0.1c0,0-0.1,0-0.1,0c0-0.1-0.1-0.1-0.2,0
					c0,0-0.1,0-0.1-0.1c0,0,0-0.1,0-0.1c0.1,0,0.1-0.1,0.1-0.2c0,0,0,0,0-0.1c0,0,0,0,0,0c0,0,0,0,0,0c0,0.1,0,0.1,0,0.2
					c0,0,0.1,0,0.1,0c-0.1-0.3-0.1-0.4,0.3-0.4c-0.1,0-0.1-0.1-0.2-0.1c0-0.1-0.1-0.1-0.1-0.1c0,0-0.1-0.1,0-0.1
					c0.1-0.1,0-0.1,0-0.2c-0.1-0.1-0.1-0.2-0.1-0.3c0-0.1,0-0.2,0.2-0.3c0,0,0,0,0,0c0.1,0,0.1,0,0.1-0.1c0,0,0,0,0-0.1
					c0.1,0,0.1-0.1,0-0.1c-0.1-0.1,0-0.2,0.1-0.3c-0.1,0-0.2,0-0.2-0.1c0-0.1,0-0.1,0.1-0.2c0.1-0.1,0.2,0,0.2,0.1c0,0,0-0.1,0-0.1
					c0-0.1,0-0.1,0.1-0.1c0.1,0,0.1,0,0.2,0c0.1,0,0.1,0,0.2,0.1c0,0.1,0.1,0.2,0.3,0.2c0,0,0.1,0,0.2,0c-0.1-0.1-0.1-0.2-0.2-0.2
					c-0.1,0-0.1,0-0.1-0.1c0-0.1,0-0.1-0.1-0.1c-0.1-0.1-0.3-0.1-0.5-0.1c-0.1,0-0.1,0-0.2-0.1c0-0.1-0.1-0.2-0.1-0.3
					c0-0.1,0.1-0.1,0.1-0.2c0,0,0,0,0.1,0c0,0,0.1,0.1,0.1,0.1c0-0.1,0-0.2-0.2-0.1c0,0-0.1,0-0.1,0c0,0-0.1,0-0.1,0
					c0-0.1,0-0.1,0-0.2c0-0.1,0.2-0.3,0.3-0.2c0.1,0,0.1,0,0.1,0.1c0,0,0,0.1,0.1,0.1c0,0,0.1,0,0-0.1c0-0.1,0-0.1,0.1-0.2
					c0,0,0-0.1,0.1-0.2c0,0.1,0.1,0.1,0.2,0c0,0,0.1,0,0.1,0c0.1,0.1,0.2,0,0.3,0c0.1,0,0.2,0,0.3,0c0,0,0.1,0,0.1,0
					c0.1,0,0.1,0,0.2-0.1c0-0.1,0.1-0.1,0.2-0.2c0.1,0,0.1,0.1,0.1,0.2c0,0.1,0.1,0.2,0.2,0.3c0.1,0.1,0.2,0.1,0.3,0.2
					c0,0,0,0.1,0.1,0.1c0.1,0,0.2,0.1,0.4,0c0,0,0.1,0,0.1,0c0,0.1,0.1,0.2,0.2,0.3c0,0,0,0,0,0c-0.1,0.1,0,0.2,0.1,0.3
					c0,0,0,0.1,0,0.1c0,0,0,0.1,0,0.1c0,0.1,0,0.2,0,0.2c0,0,0,0.1,0,0.1c0,0,0.1,0,0.1,0c0.1-0.1,0.2,0,0.3,0c0.1,0,0.1,0,0.2,0
					c0.1,0,0.2-0.1,0.3,0c0,0,0.1,0,0.1,0c0.1,0,0.3,0,0.3,0.2c0,0.1,0.1,0.1,0.1,0.2c0,0.1,0,0.1-0.1,0.1c-0.1,0-0.2,0.1-0.1,0.2
					c0,0.1,0,0.2,0,0.2c-0.1,0.2-0.2,0.2-0.4,0.1c0,0-0.1,0-0.1-0.1c-0.1-0.1-0.1-0.1-0.2,0c-0.1,0.1-0.2,0.1-0.4,0.1
					c-0.1,0-0.1,0-0.2,0.1c0,0-0.1,0-0.1,0c-0.1,0-0.2,0-0.3-0.1c0,0,0,0,0,0.1c0,0.2,0,0.3,0.2,0.4c0.1,0,0.1,0.1,0.2,0
					c0.1-0.1,0.1,0,0.2,0c0.1,0.1,0.2,0.1,0.3,0.1c0.1,0,0.1,0,0.1,0.1c0,0.1,0.1,0.2,0.1,0.3c0,0.1,0.2,0.2,0.2,0.3
					c0.1,0.1,0.1,0.2,0.1,0.2c0,0.1,0,0.1,0,0.1c-0.1,0.1-0.2,0.1-0.2,0.2c-0.1,0-0.1,0.1-0.1,0.1c0,0.1,0.1,0.1,0.1,0.2
					c-0.1,0.1-0.1,0.1-0.2,0.1c0,0-0.1,0-0.1,0c-0.1,0-0.1,0-0.2,0.1c0,0,0,0,0,0c0,0.2-0.1,0.3-0.1,0.5c0,0.1,0.1,0.2,0.1,0.3
					c0,0,0,0,0.1,0.1c0.2,0.2,0.2,0.4,0.1,0.6c-0.1,0.1-0.2,0.2-0.4,0.2c0,0-0.1,0-0.1,0.1c0,0,0.1,0.1,0.1,0.1
					c0.1,0.1,0.2,0.2,0.2,0.4c0,0.1,0,0.2,0,0.3c0.1,0.2,0.1,0.5,0.1,0.7c0,0,0,0.1,0,0.1c-0.1,0.1-0.2,0.2-0.3,0.2
					c0,0-0.1,0-0.1,0.1c-0.1,0-0.2,0-0.2,0.1c0,0.1-0.1,0.2,0,0.4c0,0,0,0,0,0.1c0.1,0.1,0.1,0.1,0,0.3c0,0,0,0,0,0.1
					c0.1,0.1,0.1,0.1,0.1,0.2c0,0.1-0.1,0.1,0,0.2c0,0-0.1,0-0.1,0c-0.2,0-0.2,0-0.2,0.1c0,0.1-0.1,0.2-0.2,0.2
					c-0.1,0-0.1,0-0.1,0.1c0,0.1-0.1,0.2-0.2,0.2c-0.1,0-0.1,0.1-0.1,0.2L22.1,38.6z M23.9,35.2C23.9,35.1,23.9,35.1,23.9,35.2
					C23.9,35.1,23.9,35.1,23.9,35.2c-0.2,0-0.2,0-0.2-0.1c0,0,0-0.1,0-0.1c-0.1,0,0,0.1-0.1,0.2c-0.1,0.1-0.1,0.1-0.2,0.1
					c0-0.2,0.1-0.4,0.1-0.6c-0.1,0.1-0.1,0.1-0.1,0.2c-0.1,0.1-0.1,0.2-0.1,0.3c0,0.2,0,0.3-0.2,0.5c-0.1,0.1-0.1,0.1-0.1,0.2
					c0,0,0,0.1,0,0c-0.1-0.1-0.1,0-0.1,0.1c0,0.1,0,0.1,0,0.1c0,0,0.1,0.1,0.1,0c0.1-0.1,0.1-0.2,0.1-0.3
					C23.4,35.4,23.6,35.2,23.9,35.2z M25.6,29.4c-0.1,0.1-0.1,0.1-0.1,0.2c-0.1,0.2-0.1,0.3-0.2,0.5c0,0.1-0.1,0.1-0.1,0.2
					c0,0,0,0,0,0.1c0,0.1-0.1,0.2-0.2,0.2c-0.1,0.1-0.2,0.2-0.3,0.3c0.2,0,0.3-0.1,0.4-0.3c0,0,0.1-0.1,0.1-0.1
					c0.1,0,0.1-0.1,0.1-0.2c0,0,0-0.1,0-0.1c0.1-0.1,0.1-0.2,0.1-0.3c0-0.1,0.1-0.2,0.2-0.2C25.6,29.7,25.6,29.6,25.6,29.4z
					 M23.1,36.2C23.1,36.2,23.1,36.2,23.1,36.2c-0.1-0.1-0.1-0.1-0.1-0.1c-0.1,0-0.1,0.1-0.1,0.2c0,0.1,0,0.1,0.1,0.1
					c0.1,0,0.1-0.1,0.1-0.1C23.1,36.3,23.1,36.3,23.1,36.2z M22.1,31.9c0.1,0,0.1,0,0.1,0.1c0.1,0.1,0.2,0.1,0.3,0
					c0,0,0.1,0,0.1-0.1c0-0.1-0.1,0-0.1,0c0,0,0,0-0.1,0c-0.1,0.1-0.2,0-0.2-0.1C22.3,31.9,22.2,31.9,22.1,31.9z M24.1,33.4
					c0.1-0.1,0.3-0.1,0.5-0.1c-0.1-0.1-0.1-0.1-0.2-0.1C24.1,33.2,24.1,33.2,24.1,33.4z"/>
				<path class="st1" d="M27,26.9c0.2-0.1,0.2,0,0.3,0.1c0,0,0.1,0.1,0.1,0.1c0.1,0,0.1,0,0.1,0.1c0,0.1,0,0.1-0.1,0.2
					c-0.1,0-0.1,0.1-0.2,0.2c0,0.1-0.1,0.1,0,0.2c0,0,0,0.1,0.1,0.1c0.1,0.1,0.1,0.2,0,0.2c0,0,0,0.1-0.1,0.1
					c-0.1,0-0.1-0.1-0.1-0.1c0-0.1-0.1-0.2-0.3-0.2c0,0-0.1,0-0.1,0c0,0-0.1,0-0.1,0c-0.1-0.2-0.4-0.2-0.5-0.4c0,0,0-0.1,0-0.1
					c0,0,0-0.1,0-0.1c-0.1-0.2-0.2-0.2-0.3-0.1c-0.1,0.1-0.1,0.1-0.2,0.2c0,0-0.1,0-0.1,0c-0.1,0-0.2,0-0.2,0c-0.1,0-0.1,0-0.1-0.1
					c0-0.1,0-0.1-0.1-0.2c-0.1-0.1-0.1-0.1-0.2,0c0,0,0,0.1,0,0.1c0,0,0,0.1-0.1,0c0,0-0.1,0,0-0.1c0,0,0-0.1,0-0.1
					c-0.1,0-0.1,0-0.1-0.1c0-0.1-0.1-0.1-0.1-0.2c-0.1-0.1-0.1-0.2,0-0.3c0,0,0,0,0,0c-0.1-0.2,0.1-0.3,0.2-0.4
					c0.1-0.1,0.1-0.1,0.1-0.2c0-0.1,0-0.2,0-0.3c0.1-0.2,0.1-0.2,0.2-0.1c0-0.1,0-0.1-0.1-0.1c0-0.1,0-0.1,0.1-0.1
					c0.1,0,0.1-0.1,0-0.1C25.1,25.2,25,25.1,25,25c0-0.2-0.1-0.5,0-0.7c0-0.2,0-0.2,0.2-0.1c0.1,0,0.1,0,0.2,0
					c-0.1-0.2-0.2-0.4-0.4-0.5c0,0,0-0.1,0-0.1c0.1-0.1,0.1-0.2,0.3-0.2c0,0,0.1,0,0.1,0c0.1-0.1,0.2,0,0.2,0.1
					c0,0.2,0.1,0.3,0.2,0.5c0,0,0,0.1,0,0.1c0-0.1,0-0.2,0-0.3c0-0.1-0.1-0.1,0-0.2c0-0.1,0-0.2,0-0.3c0,0,0,0,0,0
					c-0.1,0-0.1-0.1-0.2-0.1c-0.1,0,0-0.1,0-0.1c0,0,0.1,0,0.1-0.1c-0.1,0-0.1,0-0.2,0.1c0-0.1,0-0.1-0.1-0.1
					c-0.1,0-0.2-0.1-0.4-0.2c0,0,0-0.1,0-0.1c0.1-0.2,0.3-0.3,0.4-0.5c0,0,0-0.1,0-0.1c-0.1-0.1-0.2-0.3-0.3-0.4
					c-0.1-0.1-0.3-0.2-0.4-0.1c0,0-0.1,0-0.1,0.1c0,0.1,0,0,0.1,0c0.1,0,0.1,0,0,0.1c0,0-0.1,0-0.1,0c0,0,0,0,0,0
					c-0.1,0-0.1,0-0.1,0.1c0.1,0.2,0.1,0.4,0.2,0.6c0,0,0,0,0,0.1c0,0.1,0,0.1-0.1,0.1c-0.1-0.1-0.2,0-0.3-0.1
					c-0.1,0-0.2-0.1-0.2-0.1c0,0-0.1,0,0,0c0,0.1,0,0.1-0.1,0c-0.3-0.1-0.5-0.1-0.8-0.2c0,0,0,0,0,0c0-0.1,0.1-0.2,0.1-0.3
					c0-0.1,0-0.2-0.1-0.2c0,0-0.1,0-0.1-0.1c0-0.1,0-0.1-0.1-0.2c0-0.1-0.1-0.1-0.1-0.2c0-0.2,0-0.4-0.1-0.6
					c-0.1-0.2-0.1-0.3-0.1-0.5c0-0.1,0-0.1,0.1-0.1c0.1,0,0.1-0.1,0-0.2c0,0,0-0.1,0-0.1c0-0.2,0.1-0.3,0.1-0.5c0,0,0.1-0.1,0.1-0.1
					c0.1-0.1,0.1-0.2,0-0.3c0,0,0-0.1,0-0.1c0-0.1,0-0.3,0-0.4c0,0,0-0.1,0-0.1c0,0,0.1,0,0.1,0c0.1,0.1,0.2,0.1,0.3,0.1
					c0.1,0,0.2,0,0.2,0.1c0,0,0.1,0.1,0.2,0.1c0.2,0,0.4,0,0.5,0c0.2,0,0.3,0.1,0.4,0.3c0.1,0.2,0.2,0.3,0.5,0.4c0,0,0.1,0,0.1,0.1
					c0.1,0.1,0.2,0.1,0.3,0.1c0.2-0.1,0.4,0,0.6,0c0.3,0,0.5-0.1,0.8-0.2c0,0,0,0.1,0,0.1c-0.1,0.1-0.1,0.1-0.1,0.3
					c0,0.1,0.1,0.2,0.1,0.3c0,0.1,0.1,0.1,0,0.2c0,0,0,0.1,0,0.1c0.2,0.1,0.1,0.3,0.1,0.4c0,0,0,0,0,0.1c0,0.1,0.1,0.2,0,0.2
					c-0.1,0.1,0,0.2-0.1,0.2c0,0,0,0.1,0,0.1c0.1,0.1,0.1,0.3,0.1,0.5c0,0,0,0,0,0c-0.1,0.1,0,0.2,0,0.3c0.1,0.1,0.1,0.2,0.1,0.3
					c0,0,0,0.1,0,0.1c-0.1,0.1,0,0.2,0,0.3c0,0.1,0,0.2,0.1,0.3c0.1,0.2,0.1,0.3-0.1,0.4c-0.1,0-0.1,0-0.2,0.1c0,0-0.1,0-0.1,0
					c0,0-0.1-0.1-0.1-0.1c-0.1,0-0.1,0-0.1,0c0,0.1-0.1,0-0.2,0.1c0,0.1,0,0.1,0,0.2c0,0.1,0.1,0.2,0.1,0.4c0,0,0,0.1,0.1,0.1
					c0.1,0,0.1,0.1,0.1,0.2c0,0.1,0,0.2-0.1,0.3c0,0-0.1,0.1-0.1,0.2c0,0.1,0,0.1-0.1,0.1c0,0,0,0.1,0,0.1c0,0.1,0,0.1,0,0.2
					c0,0.1,0,0.1,0,0.2c0,0.2,0.1,0.3,0.2,0.4c0,0,0,0,0,0c0.1,0,0.1,0.1,0.2,0.2c0,0.1,0.1,0.1,0.2,0.1c0.1,0,0.1,0,0.1,0.1
					c0,0,0.1,0.1,0.1,0.1c0,0.1,0,0.1,0,0.2c0,0,0,0.1-0.1,0.1c-0.1,0-0.1,0.1-0.1,0.1c-0.1,0-0.1,0.1-0.1,0.2c0,0,0,0.1,0,0.1
					C27,26.7,27,26.8,27,26.9z"/>
				<path class="st1" d="M23.1,12.9c0-0.1,0-0.3,0.1-0.4c0.1-0.2,0.1-0.5,0-0.7c-0.1-0.2-0.2-0.4-0.3-0.6c-0.1-0.2-0.2-0.4,0-0.6
					c0.1-0.1,0.1-0.2,0-0.3c0-0.1,0-0.2-0.1-0.2c-0.1-0.1-0.1-0.2-0.1-0.3c0-0.1,0-0.1,0.1-0.1c0.1,0,0.2,0,0.3,0.1
					c0.1,0.1,0.3,0,0.4,0c0.1-0.1,0.2-0.2,0.3-0.3c0.1-0.1,0.1-0.3,0-0.4c0-0.1,0-0.1,0-0.2c0-0.1,0-0.2,0-0.3c0-0.1,0-0.2,0.1-0.2
					c0,0,0,0,0,0c0.2,0,0.2,0,0.3-0.3c0,0,0-0.1,0-0.1c0-0.1,0-0.1,0.1-0.2c0,0,0,0,0-0.1c0.1-0.2,0.1-0.4,0.2-0.6
					c0-0.1,0-0.1,0-0.2c0-0.1,0-0.2,0-0.4c0-0.1,0.1-0.2,0.2-0.1c0.1,0,0.2,0.1,0.3,0.1c0,0,0.1,0,0.1,0.1c0,0,0,0.1,0,0.1
					c0.1,0.1,0.2,0.2,0.2,0.3c0,0,0.1,0.1,0.1,0c0,0,0.1,0,0.1,0c0,0,0,0,0,0c0.1-0.1,0.2-0.1,0.3-0.1c0.1,0,0.1-0.1,0.1-0.1
					c0-0.1,0.1-0.1,0.1,0c0,0,0,0,0,0C26.1,7,26.2,7,26.4,7c0.1,0,0.1,0,0.1,0.1c0.1,0.2,0.4,0.2,0.6,0.3c0.1,0,0.2,0.1,0.3,0.2
					c0,0.1,0.1,0.1,0.2,0.2c0,0,0.1,0,0.1-0.1c0-0.1,0.1-0.1,0.2-0.2C28,7.5,28,7.4,28,7.3c0,0,0.1,0,0.1,0c0.1,0.1,0.1,0.3,0.1,0.4
					c0,0.1,0,0.1-0.1,0.2c0,0,0,0.1,0,0.1c0,0.1,0,0.2-0.1,0.3c0,0,0,0.1,0,0.2c0,0.1,0,0.2-0.1,0.2c-0.1,0-0.1,0.1,0,0.1
					c0.2,0.2,0.2,0.5,0,0.6c0,0.1-0.1,0.1-0.1,0.2c0,0.1,0,0.2,0.1,0.3c0.1,0.2,0.1,0.3,0,0.5c-0.1,0.1-0.1,0.2-0.1,0.3
					c0,0.1,0.1,0.2,0,0.4c0,0,0,0.1,0.1,0.1c0.1,0,0.1,0.1,0.1,0.1c0,0.1,0.1,0.1,0.1,0.2c0.1,0.1,0,0.2-0.1,0.2c-0.1,0-0.1,0-0.2,0
					c-0.1,0-0.2,0-0.3,0c-0.1,0-0.2,0-0.2,0.2c0,0.1,0,0.1-0.1,0.1c-0.1,0.1-0.2,0.1-0.3,0.2c-0.1,0-0.1,0-0.1-0.1
					c0-0.1,0-0.2,0-0.3c0-0.2-0.2-0.3-0.3-0.2c0,0,0,0-0.1,0c-0.1,0-0.1,0-0.2,0c-0.1-0.1-0.1-0.1-0.3-0.1c-0.1,0-0.1,0-0.1,0
					c-0.1-0.1-0.2-0.1-0.2-0.2c0,0-0.1-0.1-0.2-0.1c-0.2,0-0.3-0.2-0.4-0.4c0,0,0-0.1,0-0.1c0-0.1-0.1-0.1-0.2-0.1
					c-0.1,0-0.1,0-0.2,0c-0.1-0.1-0.2-0.1-0.3-0.1c-0.1,0-0.1,0-0.2,0c-0.1,0-0.2,0.1-0.4,0.1c-0.1,0-0.1,0-0.1,0.1
					c0,0.1-0.1,0.1-0.1,0.2c0,0.1,0,0.1,0.1,0.2c0.1,0.1,0.1,0.2,0,0.3c-0.1,0-0.1,0.1-0.1,0.2c0,0.1,0,0.1,0,0.1
					c-0.1,0-0.1,0.1-0.1,0.2c0,0.1,0,0.1,0.1,0.2c0,0,0,0,0.1,0c0,0,0.1,0,0,0.1c0,0.1-0.1,0.1-0.1,0.2c-0.1,0.1-0.2,0.2-0.3,0.3
					C23.3,12.7,23.2,12.8,23.1,12.9C23.1,12.9,23.1,12.9,23.1,12.9z"/>
				<path class="st1" d="M24.7,15.2c-0.2,0-0.3,0.1-0.4,0.1c-0.1,0-0.1,0-0.2,0.1c0,0,0,0.1,0,0.1c0,0,0,0.1-0.1,0.1
					c-0.1,0-0.1-0.1-0.1-0.1c0-0.2-0.1-0.4-0.1-0.5c-0.1-0.3-0.2-0.5-0.3-0.7c-0.1-0.2-0.1-0.3-0.2-0.5c-0.1-0.1-0.1-0.3-0.1-0.5
					c0-0.1,0.1-0.2,0.1-0.2c0,0,0.1,0,0.1,0c0,0,0,0.1,0,0.1c0,0.1,0.1,0.1,0.2,0c0,0,0,0,0.1-0.1c0,0,0.1,0,0.1-0.1
					c-0.1,0-0.1-0.1-0.2-0.1c-0.1-0.1-0.1-0.2,0.1-0.3c0.1-0.1,0.2-0.2,0.3-0.3c0.2-0.1,0.1-0.3,0-0.4c-0.1-0.1-0.1-0.1,0-0.2
					c0.1-0.1,0.2-0.3,0.2-0.5c0.1-0.1,0.1-0.3,0-0.4c0,0,0-0.1,0-0.1c0.1,0,0.3-0.1,0.4-0.1c0,0,0.1,0,0.1,0
					c0.1,0.1,0.3,0.2,0.4,0.1c0.1,0,0.1,0.1,0.1,0.1c0.1,0.2,0.2,0.3,0.3,0.4c0,0,0,0,0.1,0c0.2,0,0.3,0.1,0.4,0.2
					c0.1,0.1,0.2,0.1,0.3,0.1c0.1,0,0.1,0,0.1,0c0.1,0.1,0.1,0.1,0.3,0c0,0,0.1-0.1,0.1,0c0,0,0,0.1,0,0.1c0,0,0,0.1,0,0.1
					c0.1,0.1,0.1,0.1,0,0.2c0,0.1,0.1,0.2,0.2,0.3c0,0,0,0,0.1,0c0.1-0.2,0.3-0.2,0.4-0.3c0.1-0.1,0.1-0.1,0.1-0.2
					c0-0.1,0.1-0.1,0.2-0.1c0.1,0,0.3,0,0.4,0c0.2,0,0.2,0.1,0.2,0.2c0,0.2,0,0.4,0.1,0.6c0,0.1,0.1,0.2,0.2,0.2
					c0.1,0.1,0.1,0.1,0,0.2c0,0.1-0.1,0.1-0.1,0.2c0,0.1,0,0.1-0.1,0.1c-0.1,0-0.3,0-0.4,0.1c0,0-0.1,0-0.1,0c-0.1,0-0.1,0-0.2,0.1
					c-0.1,0.1-0.1,0.1-0.2,0.1c0,0-0.1,0-0.1,0c0,0.1-0.1,0.2,0,0.3c0,0.1,0,0.2,0,0.3c0,0.1,0,0.2,0,0.3c0,0.1,0,0.3-0.1,0.4
					c0,0,0,0,0,0.1c0,0.1,0,0.3-0.1,0.4c0,0,0,0.1,0,0.2c0,0,0,0,0,0.1c0,0-0.1,0-0.1,0c-0.1,0-0.1-0.1-0.1-0.1
					c0-0.1-0.1-0.2-0.3-0.2c-0.1,0-0.1,0-0.2-0.1c-0.1-0.1-0.3-0.2-0.4,0c-0.1,0-0.1,0.1-0.2,0.1c-0.1,0.1-0.2,0.1-0.3,0
					c-0.1,0-0.2-0.1-0.3-0.1c-0.1,0-0.2,0-0.2-0.1c0,0-0.1-0.1-0.2,0c-0.1,0.1-0.2,0-0.4,0c-0.1,0-0.1-0.1-0.1-0.2
					C24.7,15.4,24.6,15.3,24.7,15.2z"/>
				<path class="st1" d="M29.6,3.6c0,0.1,0,0.2-0.1,0.2c-0.1,0-0.1,0-0.2,0c-0.1,0-0.1,0.1-0.1,0.3c0,0.1,0.1,0.1,0.2,0.2
					c0.1,0.1,0.2,0.1,0.1,0.2c0,0.2,0.1,0.3,0.1,0.4c0,0.1,0.1,0.1,0,0.2c0,0,0,0,0,0.1c0.1,0.1,0.1,0.2,0.1,0.3c0,0,0,0.1,0,0.1
					c0,0.1,0,0.1,0,0.2c-0.1,0-0.1,0.1-0.1,0.2c0,0.1,0,0.2,0.1,0.3c0,0,0,0.1,0,0.1c0,0.1-0.1,0.1-0.1,0.2c0,0.1,0,0.1-0.1,0
					c0,0,0,0,0,0c-0.2-0.1-0.2-0.1-0.2,0.1c0,0.1-0.1,0.1-0.1,0.2C29,6.8,29,6.9,29,7c0,0,0,0.1,0,0.1c0,0.1,0,0.1-0.1,0.1
					c0,0-0.1,0-0.1,0c-0.1,0-0.1,0-0.2,0.1c0,0.1,0,0.1-0.1,0.1c-0.1,0-0.1,0-0.1-0.1c0,0,0-0.1,0-0.1c0-0.1-0.2-0.2-0.3-0.1
					c-0.1,0.1-0.2,0.2-0.3,0.2c-0.1,0-0.1,0.1-0.1,0.1c0,0.1-0.1,0.1-0.1,0c-0.1-0.2-0.2-0.2-0.3-0.2c-0.2,0-0.4-0.1-0.5-0.3
					c-0.1-0.1-0.2-0.1-0.3-0.1c-0.1,0-0.1,0-0.1-0.1c-0.1-0.1-0.1-0.2-0.2-0.2c-0.1-0.1-0.2-0.1-0.2,0.1c0,0.1-0.1,0.1-0.1,0.1
					c0,0,0,0,0,0c-0.1,0-0.2,0-0.2-0.1c0,0-0.1,0-0.1,0c-0.1,0-0.2,0-0.2-0.1c0-0.1-0.1-0.1-0.1-0.1c-0.1,0-0.2,0-0.2-0.1
					c0,0-0.1,0-0.2,0c-0.1,0-0.1,0,0-0.1c0.1-0.1,0.1-0.3,0.3-0.3c0.1,0,0.1-0.1,0.1-0.2c0-0.1-0.1-0.2-0.1-0.3c0-0.1,0-0.1,0-0.2
					c0,0,0.1-0.1,0.1-0.1C25,4.9,25.1,4.8,25,4.6c0,0,0-0.1,0-0.1c0.1-0.1,0.1-0.2,0.2-0.3c0,0,0.1-0.1,0.1-0.1
					c0-0.1,0.1-0.2,0.2-0.2c0.1-0.1,0.2-0.2,0.2-0.3c0-0.1,0-0.2,0-0.3c0-0.2,0.1-0.3,0.2-0.5c0.1-0.1,0.1-0.1,0.2,0
					C26.1,3,26.2,3,26.3,3c0.1,0,0.2,0.1,0.2,0.2c0.1,0.1,0.1,0.1,0.2,0c0.1-0.1,0.2-0.1,0.3-0.1c0.1,0,0.2,0,0.3,0.1
					c0.1,0,0.1,0,0.1-0.1c0-0.1,0-0.2,0.2-0.1c0,0,0.1,0,0.1,0c0.1-0.1,0.2,0,0.3,0c0,0,0,0,0,0c0.1,0.1,0.3,0.1,0.4,0.1
					c0.1,0,0.3,0.1,0.3,0.2c0.1,0.1,0.1,0.1,0.3,0.1c0,0,0.1,0,0.1,0c0.1,0,0.2,0.1,0.3,0.1c0,0,0.1,0,0.1,0.1
					C29.6,3.5,29.6,3.6,29.6,3.6z"/>
				<path class="st0" d="M23.5,17.2c0.1-0.2,0-0.3,0.1-0.5c0-0.1,0-0.1,0-0.2c0.1-0.2,0.2-0.4,0.2-0.6c0-0.1,0.1-0.1,0.2-0.2
					c0.1,0,0.1-0.1,0.2-0.2c0,0,0.1-0.1,0.1-0.1c0,0,0.1,0,0.1,0c0.1,0,0,0.1,0,0.1c0,0,0,0.1,0,0.1c0,0.1,0.1,0.1,0.1,0.1
					c0.1-0.1,0.3,0,0.4,0c0.1,0,0.1,0,0.2,0c0.2,0,0.4,0,0.5,0.2c0,0,0.1,0.1,0.1,0c0,0,0.1,0,0.1,0c0.2,0,0.4,0,0.5-0.2
					c0,0,0.1-0.1,0.2-0.1c0.1,0,0.1,0,0.1,0c0.1,0.1,0.2,0.1,0.3,0.2C27,15.9,27,16,27,16c-0.1,0.2,0,0.5,0,0.7c0,0.1,0,0.1,0.1,0.1
					c0.1,0.1,0.1,0.1,0,0.2c-0.1,0.1-0.1,0.2-0.1,0.3c0,0.1,0,0.1-0.1,0.1c0,0-0.1,0-0.1,0c-0.1,0-0.1,0-0.1,0.1c0,0,0,0,0,0.1
					c0,0.2,0.1,0.3,0.2,0.4c0.1,0.1,0.1,0.1,0,0.2c-0.1,0-0.1,0.1-0.2,0.2c0,0.1,0,0.2-0.1,0.2c0,0,0,0,0,0c0,0.2-0.1,0.2-0.2,0.2
					c-0.1,0.1-0.2,0.1-0.4,0.1c-0.1,0-0.3,0-0.5,0c-0.1,0-0.3,0.1-0.4-0.1c0,0-0.1,0-0.1,0c-0.1,0-0.1,0-0.2-0.1c0,0,0,0-0.1-0.1
					c-0.1,0-0.1-0.1-0.2-0.2c0-0.1-0.1-0.2-0.2-0.2c-0.1,0-0.2-0.1-0.3-0.1c0,0-0.1,0-0.1,0c-0.1,0.1-0.2,0-0.3,0c0,0-0.1,0-0.1,0
					c-0.1,0-0.1,0-0.1-0.1C23.5,18,23.4,18,23.3,18c-0.1,0-0.1,0-0.2,0c-0.1,0-0.2-0.1-0.1-0.2c0.1-0.1,0.1-0.3,0-0.4
					c0,0,0-0.1,0-0.1c0,0,0.1,0,0.1,0c0,0,0.1,0,0.1,0c0,0,0-0.1,0-0.1C23.3,17.1,23.3,17.1,23.5,17.2z"/>
				<path class="st1" d="M27.6,2.6c0,0.1-0.1,0.2-0.2,0.2c0,0,0,0,0,0C27.3,3.1,27.1,3,26.9,3c-0.1,0-0.2,0-0.2,0c0,0-0.1,0-0.1,0
					c-0.1-0.1-0.2-0.1-0.3-0.1c-0.1,0-0.2-0.1-0.2-0.2c0,0,0-0.1-0.1-0.1c-0.2-0.1-0.2-0.2-0.1-0.4c0-0.1,0-0.2,0-0.2
					c0-0.1,0-0.1,0-0.1c0.1-0.1,0.1-0.2,0.1-0.3c0-0.1,0-0.2-0.1-0.3c0-0.1,0-0.1,0-0.2c0.1-0.1,0.2-0.3,0.2-0.4
					c0-0.1,0.1-0.1,0.2,0c0.1,0.1,0.2,0.1,0.4,0.2c0.1,0,0.1,0.1,0.2,0c0.1-0.1,0.2,0,0.2,0.1c0.1,0.1,0.1,0.1,0.2,0.1
					c0.1,0,0.1,0,0.2,0.1c0.2,0.3,0.4,0.3,0.7,0.2c0.1,0,0.2-0.1,0.2-0.2c0-0.1,0.1-0.2,0.1-0.2c0.1,0,0.1-0.1,0.1-0.2
					c0-0.1,0.1-0.1,0.2-0.1c0,0,0.1,0,0.1,0c0.1-0.1,0.2-0.1,0.3-0.1c0.1,0,0.1,0,0.1,0.1c0,0.1,0.1,0.2,0.1,0.3
					c0,0.1,0.1,0.2,0.2,0.2c0,0,0.1,0,0.1,0c0.1,0,0.1,0,0.1,0.1c0,0.2,0.1,0.2,0.2,0.3c0.2,0.1,0.2,0.4,0,0.6
					C30.1,2,30,2.2,29.9,2.4c0,0.1-0.1,0.2-0.1,0.2c-0.1,0.1-0.1,0.2,0,0.2c0,0,0,0.1,0,0.1c0,0.1,0,0.1-0.1,0.2c0,0,0,0.1-0.1,0.1
					c-0.1,0-0.2,0-0.2,0c-0.1-0.1-0.2-0.1-0.3,0c0,0-0.1,0-0.1,0c-0.1-0.2-0.3-0.3-0.6-0.2c-0.1,0-0.2-0.1-0.2-0.1
					c0,0-0.1-0.1-0.1,0c0,0-0.1,0-0.1,0c0,0-0.1,0-0.1,0C27.8,2.8,27.7,2.8,27.6,2.6C27.6,2.7,27.6,2.7,27.6,2.6z"/>
				<path class="st1" d="M22.8,22.5c0.1,0,0.2-0.1,0.3-0.2c0.1-0.1,0.2,0,0.3-0.1c0.1,0,0.1,0.1,0.1,0.1c0,0,0,0,0,0.1
					c0,0,0,0.1,0,0.1c0,0,0,0.1,0,0.1c-0.1,0.1-0.1,0.1,0,0.2c0,0,0,0.1,0.1,0.1c0.1,0.1,0.1,0.2,0.2,0.3c0,0,0.1,0.1,0,0.2
					c0,0,0,0,0,0c0.1,0.1,0.1,0.2,0.1,0.3c0,0,0,0.1-0.1,0.1c-0.1,0-0.2,0.1-0.3,0c0,0-0.1,0-0.1,0.1c0,0,0,0.1,0.1,0.1c0,0,0,0,0,0
					c0,0.2,0.2,0.2,0.3,0.3c0,0,0,0,0,0.1c0,0,0,0.1,0,0.1c0,0-0.1,0-0.1,0c0-0.1-0.1-0.1-0.2-0.2c-0.1-0.1-0.2-0.1-0.3-0.1
					c0,0.1,0.1,0.1,0.1,0.1c0,0,0,0.1,0,0.1c-0.1,0-0.1,0.1-0.2,0.1c0,0-0.1,0-0.1,0.1c0.1-0.1,0.2-0.1,0.3-0.1c0.1,0,0.1,0,0.1,0.1
					c0,0.1,0,0.2,0.1,0.2c0,0,0,0,0,0.1c0,0-0.1,0-0.1,0c0-0.1-0.1-0.1-0.2-0.1c0,0.1,0.1,0.2,0.2,0.2c0.2,0.1,0.2,0.2,0.2,0.3
					c0,0,0,0.1-0.1,0.1c-0.1,0-0.1,0-0.2,0.1c0.2,0,0.3,0.1,0.5,0.2c0,0,0.1,0,0.1,0.1c0,0.1-0.1,0-0.1,0c-0.1,0-0.2,0-0.3-0.1
					c0,0.1,0.1,0.2,0.1,0.3c0.1,0.1,0,0.3-0.1,0.3c0,0-0.1,0-0.1,0.1c0,0,0,0.1,0,0.1c0,0-0.1,0-0.1,0c0,0,0-0.1,0-0.1
					c0-0.1,0-0.1,0.1-0.1c0,0,0,0,0-0.1c-0.1,0-0.1,0.1-0.1,0.1c-0.1,0-0.1,0-0.1,0c0,0,0,0,0,0c0.2,0.1,0.2,0.3,0.2,0.5
					c0,0,0,0,0,0c0,0.1,0,0.1,0,0.2c0,0-0.1,0-0.2,0c0,0-0.1,0-0.1,0c-0.1,0.1-0.1,0.1-0.2,0c-0.1-0.1-0.1-0.1-0.2,0c0,0,0,0,0,0
					c-0.1-0.1-0.1,0-0.1,0.1c0,0,0,0,0,0c-0.1-0.1-0.2-0.1-0.3-0.2c-0.1,0-0.2-0.1-0.3-0.1c-0.1,0-0.1-0.1,0-0.1
					c0-0.1,0.1-0.3,0.1-0.4c0,0,0,0,0.1-0.1c0-0.1,0.1-0.1,0.1-0.2c0.1-0.1,0-0.2,0.1-0.3c0,0,0-0.1,0-0.1c0-0.2,0-0.3,0-0.5
					c0-0.1,0-0.2-0.1-0.3c-0.1-0.1-0.1-0.3-0.1-0.4c0-0.1,0.1-0.2,0-0.4c0-0.1,0-0.2,0.1-0.3c0.1-0.2,0.2-0.3,0.1-0.5
					c0-0.1,0-0.2,0-0.2c0.1-0.1,0-0.1,0-0.2c-0.1-0.1-0.1-0.1,0-0.2c0,0,0.1-0.1,0.1,0c0,0,0.1,0,0.1,0
					C22.8,22.3,22.8,22.3,22.8,22.5C22.8,22.5,22.8,22.5,22.8,22.5z"/>
				<path class="st1" d="M22,30.8c-0.1-0.1-0.2-0.3-0.2-0.4c0,0,0-0.1,0.1-0.1c0.2,0,0.3-0.1,0.5-0.1c0,0,0.1,0,0.1,0
					c0.1,0,0.1,0,0.2,0c0.1,0,0.1-0.1,0.2,0c0,0,0.1,0,0.1-0.1c0-0.1,0.1-0.1,0.2-0.1c0-0.1-0.1-0.1-0.1-0.1c-0.1,0-0.2,0-0.3,0.1
					c-0.1,0.1-0.2,0.1-0.3,0.1c-0.1,0-0.2,0-0.3,0.1c-0.1,0-0.2,0-0.2,0c0,0-0.1,0-0.1,0c-0.1,0-0.1,0-0.2,0c-0.1,0-0.1-0.1-0.1-0.2
					c0-0.1,0.1-0.1,0.2-0.2c0,0,0.1,0,0.1,0c0,0,0,0,0,0c0,0,0,0,0,0c-0.1-0.1-0.1-0.1,0-0.1c0,0,0,0,0-0.1c0,0,0-0.1,0.1-0.1
					c0,0-0.1,0-0.1-0.1c-0.1-0.1-0.1-0.1,0-0.2c0,0,0.1,0,0.1-0.1c-0.1-0.1-0.1-0.2-0.2-0.3c0-0.1,0-0.2,0.2-0.2
					c0.1,0,0.1,0,0.2-0.1l0,0c0.1,0,0.1,0,0.2,0c0,0.1,0,0.1,0,0.2c0.1,0,0.1,0.1,0.2,0.1c0,0,0.1,0,0.1-0.1c0.1-0.1,0.1-0.1,0.2,0
					c0.1,0.1,0.1,0.1,0.1,0.2c0,0.1,0,0.2,0.1,0.2c0.1,0.1,0,0.2,0,0.3c0.1-0.1,0.1-0.1,0.2-0.2l0,0c0.1,0.1,0.1,0.1,0.1,0.3
					c0,0.1,0,0.1,0,0.1c0,0,0.1,0,0.1,0c0,0,0.1,0,0.1,0.1c0,0.1,0,0.2-0.1,0.2c-0.1,0,0,0.1,0,0.1c0,0.1,0.1,0.2,0,0.2c0,0,0,0,0,0
					c0,0.1,0.1,0.3,0,0.4c0,0,0,0.1,0,0.1c-0.1,0.1-0.2,0.2-0.3,0.1l0,0c0,0,0-0.1,0-0.1c0-0.2,0-0.3-0.1-0.4
					c-0.1-0.1-0.1-0.1-0.2-0.2c0,0.1,0.1,0.2,0.1,0.2c0,0,0.1,0.1,0,0.1c0,0-0.1,0-0.1,0c0,0,0,0,0,0c-0.1-0.1-0.2,0-0.2,0
					c-0.1,0.1-0.1,0.1-0.2,0.1c0,0-0.1,0-0.1,0.1C22.2,30.9,22.2,30.9,22,30.8C22.1,30.9,22.1,30.9,22,30.8z M22.2,29.2
					C22.3,29.2,22.4,29.2,22.2,29.2c0.1-0.1,0-0.1,0.1-0.2c0,0,0.1,0,0.1,0c0,0.1,0.1,0.2,0.1,0.3c0,0,0,0.1,0,0.1
					c0,0.1,0,0.1,0,0.2c0,0.1,0,0.1,0.1,0.1c0.1,0,0.2,0,0.2,0.1c0,0,0,0,0.1,0c0.1,0,0.3,0,0.4,0c0,0,0.1-0.1,0.1-0.1
					c0,0-0.1,0-0.1-0.1c0,0-0.1,0-0.1,0c0,0.1-0.1,0.1-0.2,0.1c-0.1,0-0.2-0.1-0.3-0.1c-0.2-0.1-0.2-0.2-0.2-0.3
					c0-0.1,0-0.2-0.1-0.3c0-0.1-0.1-0.1-0.2-0.1c0,0-0.1,0-0.1,0.1c0,0.1-0.1,0-0.1,0.1C22.1,29.1,22.2,29.2,22.2,29.2
					C22.2,29.2,22.2,29.2,22.2,29.2c0,0.1,0,0.2-0.1,0.3c0,0.2,0.1,0.4,0.3,0.4c0-0.1-0.1-0.1-0.1-0.2c0,0,0,0,0,0
					c-0.1,0-0.1-0.1,0-0.2c0-0.1,0-0.1,0-0.2C22.3,29.3,22.2,29.2,22.2,29.2z"/>
				<path class="st1" d="M23.4,33.4C23.4,33.4,23.4,33.4,23.4,33.4c0,0.1,0.1,0.1,0,0.2c-0.1,0-0.1,0-0.1-0.1c0-0.1-0.1-0.1-0.1-0.2
					c0-0.2,0-0.5,0.2-0.7c0.1-0.1,0.1-0.1,0.3,0c0.1,0,0.1,0.1,0.1,0.2c0,0.1-0.1,0.2,0,0.3c0,0,0,0,0,0c-0.1,0.1,0,0.1,0,0.2
					c0,0,0,0.1,0,0.1c0,0.1-0.1,0.1-0.2,0C23.5,33.5,23.4,33.4,23.4,33.4z"/>
				<path class="st1" d="M22.6,31c0,0.1,0.1,0.1,0.1,0.1c0.1,0,0.2,0.1,0.2,0.1c0,0.1,0,0.1-0.1,0.1c-0.1,0.1-0.3,0.1-0.4,0.1
					c-0.1,0-0.1,0-0.2,0c-0.1,0.1-0.2,0-0.3,0c0,0-0.1,0,0-0.1c0-0.1,0,0,0-0.1c0,0-0.1,0-0.1-0.1c0,0-0.1-0.1,0-0.1
					c0,0,0.1,0,0.1,0c0.1,0,0.2,0,0.2,0C22.3,31.1,22.4,31,22.6,31C22.6,31,22.6,31,22.6,31z"/>
				<path class="st1" d="M23,28.4c0,0-0.1,0-0.1,0c-0.1-0.1-0.2-0.2-0.4-0.2c-0.1,0-0.1,0-0.1-0.1c0-0.1,0.1-0.2,0.2-0.2
					c0,0,0.1,0,0.1,0c0,0,0.1,0,0.1,0c0,0.1,0.1,0.1,0.1,0c0.1-0.1,0.1-0.1,0.3,0c0.1,0.1,0.1,0.2,0.1,0.3c0,0-0.1,0.1-0.1,0.1
					C23.1,28.4,23,28.4,23,28.4z"/>
				<path class="st1" d="M23.3,31c0,0.1,0,0.1,0,0.2c0,0.1-0.1,0.1-0.2,0.1c-0.1,0-0.1-0.1-0.2-0.2c0,0,0-0.1,0-0.1c0,0,0,0,0,0
					c0,0,0,0,0,0c-0.1,0-0.1,0-0.1,0c-0.1,0-0.1,0.1-0.2,0.1c0,0,0,0,0,0c0-0.1-0.1-0.1-0.2-0.1c0,0-0.1,0-0.1-0.1
					c0-0.1,0.1-0.1,0.1-0.1c0.1,0,0.1,0,0.2-0.1c0,0,0.1,0,0.1,0c0.1,0,0.1,0,0.2,0c0.1-0.1,0.2,0,0.2,0.1
					C23.2,30.9,23.2,30.9,23.3,31C23.3,31,23.3,31,23.3,31z"/>
				<path class="st1" d="M22.1,30.9c0.1,0.1,0,0.2-0.1,0.2c-0.1,0-0.1,0-0.2-0.1c0,0,0-0.1-0.1-0.1c-0.1-0.1-0.1-0.1,0-0.2
					c-0.1,0-0.2,0-0.3,0c-0.1,0-0.1,0,0-0.1c0.1-0.1,0.2-0.1,0.3-0.1c0.2,0,0.2,0,0.2,0.2C21.8,30.7,21.9,30.8,22.1,30.9
					C22.1,30.9,22.1,30.9,22.1,30.9z"/>
				<path class="st1" d="M21.3,27.5C21.3,27.5,21.2,27.5,21.3,27.5c-0.1-0.1-0.1-0.1-0.1-0.2c0-0.1,0-0.1,0.1-0.1c0,0,0,0,0,0
					c0,0,0-0.1,0.1-0.1c0.1,0,0.1,0.1,0.2,0.1c0,0,0,0,0.1,0c0,0,0.1,0.1,0.1,0.1c0,0.1-0.1,0.1-0.1,0.1
					C21.5,27.4,21.4,27.5,21.3,27.5C21.3,27.5,21.3,27.5,21.3,27.5z"/>
				<path class="st1" d="M23.2,28.4c0-0.1,0-0.1,0.1-0.1c0.1,0,0.1,0,0.1,0c0.1,0,0.1,0.1,0.1,0.2c0,0,0,0.1,0,0.1
					c0.1,0.1,0,0.2-0.1,0.2c-0.1,0-0.1,0-0.1-0.1c0-0.1,0-0.1-0.1-0.2C23.2,28.5,23.2,28.4,23.2,28.4z"/>
				<path class="st1" d="M22,37.9c0-0.1,0-0.2-0.1-0.2c0,0,0-0.1,0-0.1c0.1-0.1,0.2-0.1,0.3-0.1c0.1,0,0.1,0.1,0.1,0.1
					C22.2,37.6,22.1,37.7,22,37.9z"/>
				<path class="st1" d="M20.6,31.2c0,0.1,0,0.2-0.1,0.2c0,0-0.1,0-0.1-0.1c0-0.1,0-0.1-0.1-0.2c0-0.1,0-0.1,0-0.2
					c0.1,0,0.1,0,0.2,0C20.6,31.1,20.7,31.1,20.6,31.2z"/>
				<path class="st1" d="M23.8,32c0,0.1,0.1,0.1,0.1,0.2c0,0.1,0,0.1-0.1,0.1c-0.1,0-0.1,0-0.2-0.1C23.6,32.2,23.6,32.1,23.8,32
					C23.8,32,23.8,32,23.8,32C23.8,32,23.8,32,23.8,32z"/>
				<path class="st1" d="M21.2,30.4C21.2,30.5,21.2,30.5,21.2,30.4c0,0.1-0.1,0.1-0.1,0.2c0,0-0.1,0-0.1,0c0-0.1-0.1-0.1-0.1-0.2
					c0-0.1,0-0.1,0.1-0.1c0.1,0,0.1,0,0.2,0.1C21.2,30.3,21.2,30.4,21.2,30.4C21.2,30.4,21.2,30.4,21.2,30.4z"/>
				<path class="st1" d="M21.3,33.5C21.3,33.6,21.3,33.6,21.3,33.5c-0.1,0-0.2,0-0.2,0c-0.1,0-0.1-0.1-0.2-0.1c0,0-0.1,0-0.1,0
					c0,0,0-0.1,0.1,0c0.1,0,0.1,0,0.1-0.1c0,0,0.1,0,0.1,0C21.2,33.3,21.3,33.4,21.3,33.5z"/>
				<path class="st1" d="M24.1,24.6c-0.1,0-0.1,0-0.1-0.1c0,0,0-0.1,0-0.1c0,0,0.1-0.1,0.1,0c0,0,0.1,0,0.1,0c0.1-0.1,0.1,0,0.1,0
					C24.3,24.5,24.2,24.6,24.1,24.6z"/>
				<path class="st1" d="M24.1,24c0,0.1,0,0.1,0,0.1c0,0,0.1,0,0,0.1c0,0-0.1,0-0.1,0c0,0-0.1,0-0.1,0c-0.1,0-0.1,0-0.1-0.1
					c0,0,0.1-0.1,0.1-0.1C24,23.9,24,23.9,24.1,24C24.1,23.9,24.1,24,24.1,24z"/>
				<path class="st1" d="M23.7,28.7C23.7,28.7,23.8,28.7,23.7,28.7c0.1,0,0.1,0.1,0.1,0.1c0,0.1-0.1,0.1-0.1,0.1c0,0-0.1,0-0.1,0
					c0,0-0.1,0-0.1-0.1C23.5,28.8,23.7,28.7,23.7,28.7z"/>
				<path class="st1" d="M24.3,23.6C24.3,23.5,24.3,23.5,24.3,23.6c0.1-0.1,0.1-0.1,0.1-0.1c0.1,0,0.1,0,0.1,0.1
					c0,0.1,0,0.1-0.1,0.1c0,0-0.1,0-0.1,0C24.3,23.7,24.3,23.6,24.3,23.6L24.3,23.6z"/>
				<path class="st1" d="M24.8,25C24.8,25,24.8,25,24.8,25c-0.1-0.1-0.1-0.1-0.2-0.2c0,0,0-0.1,0-0.1c0,0,0,0,0.1,0
					C24.8,24.8,24.9,24.8,24.8,25C24.9,24.9,24.8,25,24.8,25z"/>
				<path class="st1" d="M23.3,29.3c-0.1,0-0.2-0.1-0.1-0.3c0,0,0.1,0,0.1,0C23.5,29.1,23.5,29.1,23.3,29.3
					C23.4,29.3,23.4,29.3,23.3,29.3C23.3,29.3,23.3,29.3,23.3,29.3z"/>
				<path class="st1" d="M20.6,36.7C20.6,36.8,20.5,36.8,20.6,36.7c-0.1,0-0.2,0-0.2,0c0,0,0-0.1,0-0.2c0,0,0,0,0.1,0
					C20.5,36.5,20.6,36.5,20.6,36.7C20.6,36.6,20.6,36.7,20.6,36.7z"/>
				<path class="st1" d="M23.6,24.5C23.6,24.4,23.6,24.4,23.6,24.5c0-0.1,0.1-0.1,0.1-0.1c0,0,0,0,0,0c0,0.1,0,0.1,0.1,0.1
					c0.1,0,0,0.1,0,0.1c0,0-0.1,0-0.2,0C23.6,24.6,23.6,24.5,23.6,24.5z"/>
				<path class="st1" d="M24.3,23.6C24.3,23.6,24.3,23.6,24.3,23.6c0,0.1-0.1,0.2-0.1,0.2c-0.1,0-0.1,0-0.1-0.1c0,0,0-0.1,0-0.1
					C24.1,23.5,24.2,23.5,24.3,23.6L24.3,23.6z"/>
				<path class="st1" d="M22.2,28.6C22.2,28.6,22.2,28.6,22.2,28.6c-0.1,0-0.1,0-0.2-0.1c0,0,0-0.1,0-0.1c0.1,0,0.1-0.1,0.2,0
					C22.3,28.5,22.3,28.5,22.2,28.6C22.2,28.6,22.2,28.6,22.2,28.6L22.2,28.6z"/>
				<path class="st1" d="M24.6,22C24.6,22,24.5,22,24.6,22c-0.1-0.1-0.1-0.2,0-0.2c0.1,0,0.2,0.1,0.2,0.1C24.8,21.9,24.7,22,24.6,22
					z"/>
				<path class="st1" d="M21.8,32c0,0.1,0,0.1-0.1,0.1c0,0-0.1,0-0.1,0c0-0.1,0-0.1,0-0.1C21.7,31.9,21.7,31.9,21.8,32
					C21.8,31.9,21.8,32,21.8,32z"/>
				<path class="st1" d="M22.2,26.8C22.2,26.7,22.2,26.7,22.2,26.8C22.2,26.7,22.3,26.7,22.2,26.8C22.3,26.7,22.3,26.7,22.2,26.8
					c0.1,0,0.1,0,0.1,0c0,0.1,0,0.1,0,0.1C22.3,26.9,22.2,26.8,22.2,26.8z"/>
				<path class="st1" d="M24.1,30.1C24,30.1,24,30,24.1,30.1C24,30,24,30,24.1,30.1c-0.1-0.1-0.1-0.2,0-0.2c0,0,0,0,0,0
					C24.2,30,24.1,30,24.1,30.1z"/>
			</g>
		</g>
	</g>
	<g>
		<text transform="matrix(1 0 0 1 5.0727 16.0818)"><tspan x="0" y="0" class="st3 st4">Región de</tspan><tspan x="0" y="3.6" class="st3 st4">Los Ríos</tspan></text>
	</g>
</g>
<g>
	<g>
		<g>
			<polyline class="st6" points="92.1,90.8 92.1,92.4 70.4,92.4 70.4,90.8 			"/>
		</g>
		<g>
			<text transform="matrix(1 0 0 1 77.7215 95.7968)" class="st3 st4">1 Km</text>
		</g>
	</g>
	<g>
		<g>
			<path d="M78.9,87.3l-0.2,0.1c-0.2-0.3-0.5-0.6-0.7-0.9c-0.2-0.3-0.5-0.5-0.7-0.7c-0.3-0.2-0.5-0.5-0.9-0.7v0
				c0.3-0.2,0.6-0.5,0.9-0.7c0.3-0.2,0.5-0.5,0.7-0.7s0.5-0.5,0.7-0.9l0.2,0.1c-0.3,0.5-0.7,0.9-1.1,1.2c-0.4,0.4-0.7,0.6-1.1,0.9
				c0.1,0,0.3,0,0.4,0c0.2,0,0.3,0,0.4,0h3.7v0.2h-3.7c-0.1,0-0.3,0-0.4,0c-0.2,0-0.3,0-0.4,0c0.3,0.2,0.7,0.5,1.1,0.9
				C78.2,86.5,78.5,86.9,78.9,87.3z"/>
			<path d="M86.1,82.8v4.8h-0.3l-2.9-4.2L82.6,83h0l0,0.5v4.1h-0.2v-4.8h0.3l2.9,4.2l0.2,0.4l0-0.5v-4.1H86.1z"/>
		</g>
	</g>
</g>
</svg>
