<?xml version="1.0" encoding="utf-8"?>
<!-- Generator: Adobe Illustrator 23.0.1, SVG Export Plug-In . SVG Version: 6.00 Build 0)  -->
<svg version="1.1" id="Capa_1" xmlns="http://www.w3.org/2000/svg" xmlns:xlink="http://www.w3.org/1999/xlink" x="0px" y="0px"
	 viewBox="0 0 100.2 100.1" style="enable-background:new 0 0 100.2 100.1;" xml:space="preserve">
<style type="text/css">
	.st0{fill:#2BBBA0;}
	.st1{fill:#708088;}
	.st2{fill:none;stroke:#000000;stroke-width:0.1;stroke-miterlimit:10;}
	.st3{font-family:'WorkSans-Regular';}
	.st4{font-size:2px;}
	.st5{font-family:'WorkSans-Light';}
	.st6{font-size:4px;}
	.st7{fill:#FFFFFF;}
	.st8{fill:none;}
	.st9{fill:none;stroke:#708088;stroke-width:0.1;stroke-miterlimit:10;}
</style>
<title>Sin título-1</title>
<image style="overflow:visible;enable-background:new    ;" width="1211" height="1199" xlink:href="7EAC54BA09F7DF98.png"  transform="matrix(8.313803e-02 0 0 8.313803e-02 -0.2799 0.1666)">
</image>
<g>
	<g>
		<g>
			<g>
				<polygon class="st0" points="99.1,1.3 97.3,3.6 94.3,5.6 92.1,9.3 89.6,11.3 86.2,11.4 86.1,12.2 85.2,13.4 83.9,13.1 
					82.7,16.1 81.7,16.3 81.6,17.7 81.8,19.6 81.8,21.4 81.2,23.5 79.3,25.2 77.8,25.2 75.6,25.4 72.9,25.3 70.4,24.2 68.9,25.3 
					65.8,26 63.5,27.9 60.9,29.6 59.7,30.4 59.6,33 57.5,32.9 54.9,34.3 53.8,34.6 52.4,35.1 49.2,34.7 47.4,35.7 45.7,36 
					44.4,36.7 43.9,38.4 43.7,40.5 42.5,43.2 38.7,46.6 36.7,47.7 35,49.5 33.4,51.5 32.4,54.4 32.3,62.2 31.7,62.9 29.8,64.6 
					24.5,66.9 22.2,67.4 20.9,67.5 19.5,68.8 18.8,72.2 22.5,77.6 24.9,80.9 26.2,82.7 26.5,85.9 26.7,89.2 25.9,91.5 24.6,94.4 
					23,97.5 22.3,99.1 22.6,100 19.7,100 19.6,99.6 21.2,97 24.7,90.9 24.9,88.6 24.3,87.1 23.2,84.6 22.7,83.1 22.1,81.6 21,80.4 
					20.7,79.3 22.6,81 22.9,79.8 21.9,79.2 19.8,77.8 16.3,73.1 16.3,71.7 17.2,69.5 17.9,67.7 20.3,66 22.2,65 24.2,63.9 
					26.4,64.2 28.1,63.7 30.4,61.4 30.4,55.4 30.4,53.2 30.9,51.2 33.2,48.8 34.9,47.1 39.4,42.6 40.6,41.7 41.3,40.5 41.9,38.8 
					41.6,37.7 41.3,36.4 41.6,34.5 45.9,32.5 47,31.7 47.6,32.7 48,33.3 49.2,33 51.1,33 52.3,32.7 52.6,33 53.5,33 55,32.8 55,32 
					55,30.8 55,29 55.5,27.6 56.1,25.5 57,24.3 58.9,23.7 61.7,23.2 63.8,22.5 65.6,22 67.6,21.4 69.8,21.4 73.9,21.3 75.6,19.5 
					76.7,18.2 76.6,17.2 76.3,15.4 76.7,14.6 77.1,13.7 77.3,12.7 76.8,11.1 76.1,8 78.4,6.1 78.2,5.1 77.7,3.8 76.8,3 76.8,1.9 
					76.8,1.4 77.1,1.3 				"/>
			</g>
		</g>
		<polygon class="st1" points="40.6,43.9 40.8,44.9 40.8,45.8 40.6,46.7 40,46.7 39.5,46.8 39.2,47.3 39.1,47.7 38.4,47.9 38,47.7 
			37.4,47.2 36.9,46.1 36.7,45.7 36.6,45 36.6,44.3 37,43.3 37.4,42.3 38,41.3 39.3,41 40,41 40.7,41.9 		"/>
		<path class="st1" d="M25.7,97.1l-1.9-1.2l-2.1-0.8h-1.6h-1.5l-1.1-1.2l-0.8-1.5l-0.5-1.9V89L15,87.9v-1.2l1.1-2.3l0.7-1.5l0.6-0.9
			l0.1-1.3l1.8-1.9l1.1-1.6h0.8h1.3l1-0.6c0.4,0.5,1.3,2.2,1.3,2.2l0.9,1.3l1.8,1.9l1.2,1.7l1,2.1l0.8,1.8v2.1L30,91.8l-1,2.1
			L28.4,95l-1.1,1.7l-0.6,0.4C26.7,97.1,25.7,97.1,25.7,97.1z"/>
		<polygon class="st1" points="32.6,56 30.9,56 29.3,55.2 28.9,54.9 29.2,53.5 29.5,52.5 29.5,51.7 30.1,50.9 30.7,50.5 30.7,49.9 
			31.5,49.3 32.3,49 34.2,48.5 35.2,48.5 35.8,49.2 36.2,49.8 36.2,50.6 35.4,51.7 34.6,52.5 34.1,53.6 33.5,54.4 33.3,55.2 		"/>
	</g>
</g>
<g>
	<g>
		<g>
			<polyline class="st2" points="92.1,91.6 92.1,92.4 70.4,92.4 70.4,91.6 			"/>
		</g>
		<g>
			<text transform="matrix(1 0 0 1 78.9097 94.7266)" class="st3 st4">1 Km</text>
		</g>
		<g>
			<g>
				<text transform="matrix(1 0 0 1 78.3195 90.2345)" class="st5 st6">←N</text>
			</g>
		</g>
	</g>
</g>
<g>
	<rect x="2.5" y="2.3" class="st7" width="32.6" height="32.6"/>
</g>
<rect x="2.5" y="2.3" class="st8" width="32.6" height="32.6"/>
<g>
	<g>
		<g>
			<path class="st1" d="M30.8,26.9c0.2-0.1,0.2,0,0.3,0.1l0.1,0.1c0.1,0,0.1,0,0.1,0.1s0,0.1-0.1,0.2c-0.1,0-0.1,0.1-0.2,0.2
				c0,0.1-0.1,0.1,0,0.2c0,0,0,0.1,0.1,0.1c0.1,0.1,0.1,0.2,0,0.2c0,0,0,0.1-0.1,0.1s-0.1-0.1-0.1-0.1c0-0.1-0.1-0.2-0.3-0.2h-0.1
				h-0.1c-0.1-0.2-0.4-0.2-0.5-0.4v-0.1v-0.1c-0.1-0.2-0.2-0.2-0.3-0.1c-0.1,0.1-0.1,0.1-0.2,0.2h-0.1c-0.1,0-0.2,0-0.2,0
				c-0.1,0-0.1,0-0.1-0.1s0-0.1-0.1-0.2s-0.1-0.1-0.2,0v0.1c0,0,0,0.1-0.1,0c0,0-0.1,0,0-0.1V27c-0.1,0-0.1,0-0.1-0.1
				s-0.1-0.1-0.1-0.2c-0.1-0.1-0.1-0.2,0-0.3l0,0c-0.1-0.2,0.1-0.3,0.2-0.4s0.1-0.1,0.1-0.2s0-0.2,0-0.3c0.1-0.2,0.1-0.2,0.2-0.1
				c0-0.1,0-0.1-0.1-0.1c0-0.1,0-0.1,0.1-0.1s0.1-0.1,0-0.1c-0.1-0.1-0.2-0.1-0.2-0.3c0-0.2-0.1-0.5,0-0.7c0-0.2,0-0.2,0.2-0.1
				c0.1,0,0.1,0,0.2,0c-0.1-0.2-0.2-0.4-0.4-0.5v-0.1c0.1-0.1,0.1-0.2,0.3-0.2h0.1c0.1-0.1,0.2,0,0.2,0.1c0,0.2,0.1,0.3,0.2,0.5v0.1
				c0-0.1,0-0.2,0-0.3c0-0.1-0.1-0.1,0-0.2c0-0.1,0-0.2,0-0.3l0,0c-0.1,0-0.1-0.1-0.2-0.1s0-0.1,0-0.1s0.1,0,0.1-0.1
				c-0.1,0-0.1,0-0.2,0.1c0-0.1,0-0.1-0.1-0.1s-0.2-0.1-0.4-0.2v-0.1c0.1-0.2,0.3-0.3,0.4-0.5v-0.1c-0.1-0.1-0.2-0.3-0.3-0.4
				c-0.1-0.1-0.3-0.2-0.4-0.1c0,0-0.1,0-0.1,0.1s0,0,0.1,0s0.1,0,0,0.1h-0.1l0,0c-0.1,0-0.1,0-0.1,0.1c0.1,0.2,0.1,0.4,0.2,0.6
				c0,0,0,0,0,0.1s0,0.1-0.1,0.1c-0.1-0.1-0.2,0-0.3-0.1c-0.1,0-0.2-0.1-0.2-0.1s-0.1,0,0,0c0,0.1,0,0.1-0.1,0
				c-0.3-0.1-0.5-0.1-0.8-0.2l0,0c0-0.1,0.1-0.2,0.1-0.3c0-0.1,0-0.2-0.1-0.2c0,0-0.1,0-0.1-0.1s0-0.1-0.1-0.2
				c0-0.1-0.1-0.1-0.1-0.2c0-0.2,0-0.4-0.1-0.6s-0.1-0.3-0.1-0.5c0-0.1,0-0.1,0.1-0.1s0.1-0.1,0-0.2v-0.1c0-0.2,0.1-0.3,0.1-0.5
				l0.1-0.1c0.1-0.1,0.1-0.2,0-0.3v-0.1c0-0.1,0-0.3,0-0.4v-0.1h0.1c0.1,0.1,0.2,0.1,0.3,0.1c0.1,0,0.2,0,0.2,0.1
				c0,0,0.1,0.1,0.2,0.1c0.2,0,0.4,0,0.5,0c0.2,0,0.3,0.1,0.4,0.3c0.1,0.2,0.2,0.3,0.5,0.4c0,0,0.1,0,0.1,0.1
				c0.1,0.1,0.2,0.1,0.3,0.1c0.2-0.1,0.4,0,0.6,0c0.3,0,0.5-0.1,0.8-0.2v0.1c-0.1,0.1-0.1,0.1-0.1,0.3c0,0.1,0.1,0.2,0.1,0.3
				c0,0.1,0.1,0.1,0,0.2v0.1c0.2,0.1,0.1,0.3,0.1,0.4c0,0,0,0,0,0.1s0.1,0.2,0,0.2c-0.1,0.1,0,0.2-0.1,0.2v0.1
				c0.1,0.1,0.1,0.3,0.1,0.5l0,0c-0.1,0.1,0,0.2,0,0.3c0.1,0.1,0.1,0.2,0.1,0.3v0.1c-0.1,0.1,0,0.2,0,0.3c0,0.1,0,0.2,0.1,0.3
				c0.1,0.2,0.1,0.3-0.1,0.4c-0.1,0-0.1,0-0.2,0.1h-0.1l-0.1-0.1c-0.1,0-0.1,0-0.1,0c0,0.1-0.1,0-0.2,0.1c0,0.1,0,0.1,0,0.2
				s0.1,0.2,0.1,0.4c0,0,0,0.1,0.1,0.1s0.1,0.1,0.1,0.2s0,0.2-0.1,0.3c0,0-0.1,0.1-0.1,0.2s0,0.1-0.1,0.1V25c0,0.1,0,0.1,0,0.2
				s0,0.1,0,0.2c0,0.2,0.1,0.3,0.2,0.4l0,0c0.1,0,0.1,0.1,0.2,0.2c0,0.1,0.1,0.1,0.2,0.1s0.1,0,0.1,0.1l0.1,0.1c0,0.1,0,0.1,0,0.2
				c0,0,0,0.1-0.1,0.1s-0.1,0.1-0.1,0.1c-0.1,0-0.1,0.1-0.1,0.2V27C30.8,26.7,30.8,26.8,30.8,26.9z"/>
			<path class="st1" d="M26.8,12.9c0-0.1,0-0.3,0.1-0.4c0.1-0.2,0.1-0.5,0-0.7s-0.2-0.4-0.3-0.6c-0.1-0.2-0.2-0.4,0-0.6
				c0.1-0.1,0.1-0.2,0-0.3c0-0.1,0-0.2-0.1-0.2c-0.1-0.1-0.1-0.2-0.1-0.3s0-0.1,0.1-0.1s0.2,0,0.3,0.1c0.1,0.1,0.3,0,0.4,0
				c0.1-0.1,0.2-0.2,0.3-0.3c0.1-0.1,0.1-0.3,0-0.4c0-0.1,0-0.1,0-0.2c0-0.1,0-0.2,0-0.3s0-0.2,0.1-0.2l0,0c0.2,0,0.2,0,0.3-0.3V8
				c0-0.1,0-0.1,0.1-0.2c0,0,0,0,0-0.1c0-0.2,0-0.4,0.1-0.6c0-0.1,0-0.1,0-0.2s0-0.2,0-0.4c0-0.1,0.1-0.2,0.2-0.1
				c0.1,0,0.2,0.1,0.3,0.1c0,0,0.1,0,0.1,0.1v0.1c0.1,0.1,0.2,0.2,0.2,0.3C29,7,29,7,29.1,7h0.1l0,0c0.1-0.1,0.2-0.1,0.3-0.1
				c0.1,0,0.1-0.1,0.1-0.1c0-0.1,0.1-0.1,0.1,0l0,0C29.8,7,30,7,30.1,7s0.1,0,0.1,0.1c0.1,0.2,0.4,0.2,0.6,0.3
				c0.1,0,0.2,0.1,0.3,0.2c0,0.1,0.1,0.1,0.2,0.2c0,0,0.1,0,0.1-0.1s0.1-0.1,0.2-0.2c0.1,0,0.1-0.1,0.2-0.1h0.1
				C32,7.5,32,7.7,32,7.8c0,0.1,0,0.1-0.1,0.2v0.1c0,0.1,0,0.2-0.1,0.3c0,0,0,0.1,0,0.2c0,0.1,0,0.2-0.1,0.2s-0.1,0.1,0,0.1
				c0.2,0.2,0.2,0.5,0,0.6c0,0.1-0.1,0.1-0.1,0.2c0,0.1,0,0.2,0.1,0.3c0.1,0.2,0.1,0.3,0,0.5c-0.1,0.1-0.1,0.2-0.1,0.3
				s0.1,0.2,0,0.4c0,0,0,0.1,0.1,0.1s0.1,0.1,0.1,0.1c0,0.1,0.1,0.1,0.1,0.2c0.1,0.1,0,0.2-0.1,0.2s-0.1,0-0.2,0s-0.2,0-0.3,0
				c-0.1,0-0.2,0-0.2,0.2c0,0.1,0,0.1-0.1,0.1c-0.1,0.1-0.2,0.1-0.3,0.2c-0.1,0-0.1,0-0.1-0.1s0-0.2,0-0.3c0-0.2-0.2-0.3-0.3-0.2
				c0,0,0,0-0.1,0s-0.1,0-0.2,0c-0.1-0.1-0.1-0.1-0.3-0.1c-0.1,0-0.1,0-0.1,0c-0.1-0.1-0.2-0.1-0.2-0.2c0,0-0.1-0.1-0.2-0.1
				c-0.2,0-0.3-0.2-0.4-0.4v-0.1c0-0.1-0.1-0.1-0.2-0.1s-0.1,0-0.2,0c-0.1-0.1-0.2-0.1-0.3-0.1c-0.1,0-0.1,0-0.2,0s-0.2,0.1-0.4,0.1
				c-0.1,0-0.1,0-0.1,0.1s-0.1,0.1-0.1,0.2c0,0.1,0,0.1,0.1,0.2c0.1,0.1,0.1,0.2,0,0.3c-0.1,0-0.1,0.1-0.1,0.2c0,0.1,0,0.1,0,0.1
				c-0.1,0-0.1,0.1-0.1,0.2c0,0.1,0,0.1,0.1,0.2c0,0,0,0,0.1,0c0,0,0.1,0,0,0.1c0,0.1-0.1,0.1-0.1,0.2c-0.1,0.1-0.2,0.2-0.3,0.3
				C27.1,12.7,27,12.8,26.8,12.9C26.9,12.9,26.9,12.9,26.8,12.9z"/>
			<path class="st1" d="M28.4,15.2c-0.2,0-0.3,0.1-0.4,0.1s-0.1,0-0.2,0.1v0.1c0,0,0,0.1-0.1,0.1s-0.1-0.1-0.1-0.1
				c0-0.2-0.1-0.4-0.1-0.5c-0.1-0.3-0.2-0.5-0.3-0.7c-0.1-0.2-0.1-0.3-0.2-0.5c-0.1-0.1-0.1-0.3-0.1-0.5c0-0.1,0.1-0.2,0.1-0.2h0.1
				v0.1c0,0.1,0.1,0.1,0.2,0c0,0,0,0,0.1-0.1c0,0,0.1,0,0.1-0.1c-0.1,0-0.1-0.1-0.2-0.1c-0.1-0.1-0.1-0.2,0.1-0.3
				c0.1-0.1,0.2-0.2,0.3-0.3c0.2-0.1,0.1-0.3,0-0.4c-0.1-0.1-0.1-0.1,0-0.2c0.1-0.1,0.2-0.3,0.2-0.5c0.1-0.1,0.1-0.3,0-0.4v-0.1
				c0.1,0,0.3-0.1,0.4-0.1h0.1c0.1,0.1,0.3,0.2,0.4,0.1c0.1,0,0.1,0.1,0.1,0.1c0.1,0.2,0.2,0.3,0.3,0.4c0,0,0,0,0.1,0
				c0.2,0,0.3,0.1,0.4,0.2c0.1,0.1,0.2,0.1,0.3,0.1c0.1,0,0.1,0,0.1,0c0.1,0.1,0.1,0.1,0.3,0c0,0,0.1-0.1,0.1,0v0.1v0.1
				c0.1,0.1,0.1,0.1,0,0.2c0,0.1,0.1,0.2,0.2,0.3c0,0,0,0,0.1,0c0.1-0.2,0.3-0.2,0.4-0.3s0.1-0.1,0.1-0.2c0-0.1,0.1-0.1,0.2-0.1
				s0.3,0,0.4,0c0.2,0,0.2,0.1,0.2,0.2c0,0.2,0,0.4,0.1,0.6c0,0.1,0.1,0.2,0.2,0.2c0.1,0.1,0.1,0.1,0,0.2c0,0.1-0.1,0.1-0.1,0.2
				c0,0.1,0,0.1-0.1,0.1s-0.3,0-0.4,0.1h-0.1c-0.1,0-0.1,0-0.2,0.1s-0.1,0.1-0.2,0.1h-0.1c0,0.1-0.1,0.2,0,0.3c0,0.1,0,0.2,0,0.3
				s0,0.2,0,0.3s0,0.3-0.1,0.4c0,0,0,0,0,0.1s0,0.3-0.1,0.4c0,0,0,0.1,0,0.2c0,0,0,0,0,0.1h-0.1C31,16,31,16,31,15.9
				s-0.1-0.2-0.3-0.2c-0.1,0-0.1,0-0.2-0.1s-0.3-0.2-0.4,0c-0.1,0-0.1,0.1-0.2,0.1c-0.1,0.1-0.2,0.1-0.3,0c-0.1,0-0.2-0.1-0.3-0.1
				c-0.1,0-0.2,0-0.2-0.1c0,0-0.1-0.1-0.2,0s-0.2,0-0.4,0C28.4,15.5,28.4,15.4,28.4,15.2C28.4,15.4,28.4,15.3,28.4,15.2z"/>
			<path class="st1" d="M33.4,3.6c0,0.1,0,0.2-0.1,0.2s-0.1,0-0.2,0C33,3.9,33,4,33,4.1s0.1,0.1,0.2,0.2c0.1,0.1,0.2,0.1,0.1,0.2
				c0,0.2,0.1,0.3,0.1,0.4s0.1,0.1,0,0.2c0,0,0,0,0,0.1c0.1,0.1,0.1,0.2,0.1,0.3v0.1c0,0.1,0,0.1,0,0.2c-0.1,0-0.1,0.1-0.1,0.2
				s0,0.2,0.1,0.3v0.1c0,0.1-0.1,0.1-0.1,0.2s0,0.1-0.1,0l0,0C33,6.4,33,6.4,33,6.6c0,0.1-0.1,0.1-0.1,0.2c-0.1,0.1-0.2,0.2-0.1,0.3
				v0.1c0,0.1,0,0.1-0.1,0.1h-0.1c-0.1,0-0.1,0-0.2,0.1c0,0.1,0,0.1-0.1,0.1s-0.1,0-0.1-0.1V7.3c0-0.1-0.2-0.2-0.3-0.1
				c-0.1,0.1-0.2,0.2-0.3,0.2c-0.1,0-0.1,0.1-0.1,0.1c0,0.1-0.1,0.1-0.1,0c-0.1-0.2-0.2-0.2-0.3-0.2c-0.2,0-0.4-0.1-0.5-0.3
				c-0.1-0.1-0.2-0.1-0.3-0.1c-0.1,0-0.1,0-0.1-0.1c-0.1-0.1-0.1-0.2-0.2-0.2c-0.1-0.1-0.2-0.1-0.2,0.1c0,0.1-0.1,0.1-0.1,0.1l0,0
				c-0.1,0-0.2,0-0.2-0.1h-0.1c-0.1,0-0.2,0-0.2-0.1s-0.1-0.1-0.1-0.1c-0.1,0-0.2,0-0.2-0.1c0,0-0.1,0-0.2,0s-0.1,0,0-0.1
				S28.8,6,29,6c0.1,0,0.1-0.1,0.1-0.2S29,5.6,29,5.5s0-0.1,0-0.2l0.1-0.1c0.1-0.1,0.2-0.2,0.1-0.3V4.8c0.1-0.1,0.1-0.2,0.2-0.3
				l0.1-0.1c0-0.1,0.1-0.2,0.2-0.2c0.1-0.1,0.2-0.2,0.2-0.3c0-0.1,0-0.2,0-0.3c0-0.2,0.1-0.3,0.2-0.5c0.1-0.1,0.1-0.1,0.2,0
				C29.8,3,30,3,30.1,3s0.2,0.1,0.2,0.2c0.1,0.1,0.1,0.1,0.2,0s0.2-0.1,0.3-0.1c0.1,0,0.2,0,0.3,0.1c0.1,0,0.1,0,0.1-0.1
				s0-0.2,0.2-0.1h0.1c0.1-0.1,0.2,0,0.3,0l0,0c0.1,0.1,0.3,0.1,0.4,0.1s0.3,0.1,0.3,0.2c0.1,0.1,0.1,0.1,0.3,0.1h0.1
				c0.1,0,0.2,0.1,0.3,0.1c0,0,0.1,0,0.1,0.1C33.4,3.5,33.4,3.6,33.4,3.6z"/>
			<path class="st0" d="M27.2,17.2c0.1-0.2,0-0.3,0.1-0.5c0-0.1,0-0.1,0-0.2c0.1-0.2,0.2-0.4,0.2-0.6c0-0.1,0.1-0.1,0.2-0.2
				c0.1,0,0.1-0.1,0.2-0.2l0.1-0.1h0.1c0.1,0,0,0.1,0,0.1v0.1c0,0.1,0.1,0.1,0.1,0.1c0.1-0.1,0.3,0,0.4,0s0.1,0,0.2,0
				c0.2,0,0.4,0,0.5,0.2c0,0,0.1,0.1,0.1,0h0.1c0.2,0,0.4,0,0.5-0.2c0,0,0.1-0.1,0.2-0.1s0.1,0,0.1,0c0.1,0.1,0.2,0.1,0.3,0.2
				c0.1,0,0.1,0.1,0.1,0.1c-0.1,0.2,0,0.5,0,0.7c0,0.1,0,0.1,0.1,0.1c0.1,0.1,0.1,0.1,0,0.2s-0.1,0.2-0.1,0.3c0,0.1,0,0.1-0.1,0.1
				h-0.1c-0.1,0-0.1,0-0.1,0.1c0,0,0,0,0,0.1c0,0.2,0.1,0.3,0.2,0.4s0.1,0.1,0,0.2c-0.1,0-0.1,0.1-0.2,0.2c0,0.1,0,0.2-0.1,0.2l0,0
				c0,0.2-0.1,0.2-0.2,0.2c-0.1,0.1-0.2,0.1-0.4,0.1c-0.1,0-0.3,0-0.5,0c-0.1,0-0.3,0.1-0.4-0.1h-0.1c-0.1,0-0.1,0-0.2-0.1
				c0,0,0,0-0.1-0.1c-0.1,0-0.1-0.1-0.2-0.2c0-0.1-0.1-0.2-0.2-0.2S27.8,18,27.7,18h-0.1c-0.1,0.1-0.2,0-0.3,0h-0.1
				c-0.1,0-0.1,0-0.1-0.1c0.1,0.1,0,0.1,0,0.1c-0.1,0-0.1,0-0.2,0s-0.2-0.1-0.1-0.2s0.1-0.3,0-0.4v-0.1h0.1H27v-0.1
				C27.1,17.1,27.1,17.1,27.2,17.2z"/>
			<path class="st1" d="M26.6,22.5c0.1,0,0.2-0.1,0.3-0.2c0.1-0.1,0.2,0,0.3-0.1c0.1,0,0.1,0.1,0.1,0.1s0,0,0,0.1v0.1v0.1
				c-0.1,0.1-0.1,0.1,0,0.2c0,0,0,0.1,0.1,0.1c0.1,0.1,0.1,0.2,0.2,0.3c0,0,0.1,0.1,0,0.2l0,0c0.1,0.1,0.1,0.2,0.1,0.3
				c0,0,0,0.1-0.1,0.1s-0.2,0.1-0.3,0c0,0-0.1,0-0.1,0.1c0,0,0,0.1,0.1,0.1l0,0c0,0.2,0.2,0.2,0.3,0.3c0,0,0,0,0,0.1v0.1h-0.1
				c0-0.1-0.1-0.1-0.2-0.2s-0.2-0.1-0.3-0.1c0,0.1,0.1,0.1,0.1,0.1v0.1c-0.1,0-0.1,0.1-0.2,0.1c0,0-0.1,0-0.1,0.1
				c0.1-0.1,0.2-0.1,0.3-0.1c0.1,0,0.1,0,0.1,0.1s0,0.2,0.1,0.2c0,0,0,0,0,0.1h-0.1c0-0.1-0.1-0.1-0.2-0.1c0,0.1,0.1,0.2,0.2,0.2
				c0.2,0.1,0.2,0.2,0.2,0.3c0,0,0,0.1-0.1,0.1s-0.1,0-0.2,0.1c0.2,0,0.3,0.1,0.5,0.2c0,0,0.1,0,0.1,0.1s-0.1,0-0.1,0
				c-0.1,0-0.2,0-0.3-0.1c0,0.1,0.1,0.2,0.1,0.3c0.1,0.1,0,0.3-0.1,0.3c0,0-0.1,0-0.1,0.1v0.1h-0.1v-0.1c0-0.1,0-0.1,0.1-0.1
				c0,0,0,0,0-0.1c-0.1,0-0.1,0.1-0.1,0.1c-0.1,0-0.1,0-0.1,0l0,0c0.2,0.1,0.2,0.3,0.2,0.5l0,0c0,0.1,0,0.1,0,0.2c0,0-0.1,0-0.2,0
				h-0.1c-0.1,0.1-0.1,0.1-0.2,0s-0.1-0.1-0.2,0l0,0c-0.1-0.1-0.1,0-0.1,0.1l0,0c-0.1-0.1-0.2-0.1-0.3-0.2c-0.1,0-0.2-0.1-0.3-0.1
				c-0.1,0-0.1-0.1,0-0.1c0-0.1,0.1-0.3,0.1-0.4c0,0,0,0,0.1-0.1c0-0.1,0.1-0.1,0.1-0.2c0.1-0.1,0-0.2,0.1-0.3v-0.1
				c0-0.2,0-0.3,0-0.5c0-0.1,0-0.2-0.1-0.3C26,24.3,26,24.2,26,24.1s0.1-0.2,0-0.4c0-0.1,0-0.2,0.1-0.3c0.1-0.2,0.2-0.3,0.1-0.5
				c0-0.1,0-0.2,0-0.2c0.1-0.1,0-0.1,0-0.2c-0.1-0.1-0.1-0.1,0-0.2c0,0,0.1-0.1,0.1,0h0.1C26.5,22.3,26.6,22.3,26.6,22.5L26.6,22.5z
				"/>
			<path class="st1" d="M25.8,30.8c-0.1-0.1-0.2-0.3-0.2-0.4c0,0,0-0.1,0.1-0.1c0.2,0,0.3-0.1,0.5-0.1h0.1c0.1,0,0.1,0,0.2,0
				s0.1-0.1,0.2,0c0,0,0.1,0,0.1-0.1S26.9,30,27,30c0-0.1-0.1-0.1-0.1-0.1c-0.1,0-0.2,0-0.3,0.1c-0.1,0.1-0.2,0.1-0.3,0.1
				c-0.1,0-0.2,0-0.3,0.1c-0.1,0-0.2,0-0.2,0h-0.1c-0.1,0-0.1,0-0.2,0s-0.1-0.1-0.1-0.2s0.1-0.1,0.2-0.2h0.1l0,0l0,0
				c-0.1-0.1-0.1-0.1,0-0.1c0,0,0,0,0-0.1c0,0,0-0.1,0.1-0.1c0,0-0.1,0-0.1-0.1c-0.1-0.1-0.1-0.1,0-0.2c0,0,0.1,0,0.1-0.1
				c-0.1-0.1-0.1-0.2-0.2-0.3c0-0.1,0-0.2,0.2-0.2c0.1,0,0.1,0,0.2-0.1l0,0c0.1,0,0.1,0,0.2,0c0,0.1,0,0.1,0,0.2
				c0.1,0,0.1,0.1,0.2,0.1c0,0,0.1,0,0.1-0.1c0.1-0.1,0.1-0.1,0.2,0s0.1,0.1,0.1,0.2s0,0.2,0.1,0.2c0.1,0.1,0,0.2,0,0.3
				c0.1-0.1,0.1-0.1,0.2-0.2l0,0c0.1,0.1,0.1,0.1,0.1,0.3c0,0.1,0,0.1,0,0.1h0.1c0,0,0.1,0,0.1,0.1s0,0.2-0.1,0.2s0,0.1,0,0.1
				c0,0.1,0.1,0.2,0,0.2l0,0c0,0.1,0.1,0.3,0,0.4v0.1C27.2,30.9,27.2,31,27,31l0,0v-0.1c0-0.2,0-0.3-0.1-0.4s-0.1-0.1-0.2-0.2
				c0,0.1,0.1,0.2,0.1,0.2s0.1,0.1,0,0.1h-0.1l0,0c-0.1-0.1-0.2,0-0.2,0c-0.1,0.1-0.1,0.1-0.2,0.1c0,0-0.1,0-0.1,0.1
				C26,30.9,25.9,30.9,25.8,30.8C25.8,30.9,25.8,30.9,25.8,30.8z M26,29.2C26,29.2,26.1,29.2,26,29.2c0.1-0.1,0-0.1,0.1-0.2h0.1
				c0,0.1,0.1,0.2,0.1,0.3v0.1c0,0.1,0,0.1,0,0.2s0,0.1,0.1,0.1s0.2,0,0.2,0.1c0,0,0,0,0.1,0s0.3,0,0.4,0l0.1-0.1c0,0-0.1,0-0.1-0.1
				H27c0,0.1-0.1,0.1-0.2,0.1s-0.2-0.1-0.3-0.1c-0.2-0.1-0.2-0.2-0.2-0.3c0-0.1,0-0.2-0.1-0.3c0-0.1-0.1-0.1-0.2-0.1
				c0,0-0.1,0-0.1,0.1s-0.1,0-0.1,0.1C25.9,29.1,25.9,29.2,26,29.2C26,29.2,25.9,29.2,26,29.2c0,0.1,0,0.2-0.1,0.3
				c0,0.2,0.1,0.4,0.3,0.4c0-0.1-0.1-0.1-0.1-0.2l0,0c-0.1,0-0.1-0.1,0-0.2C26.1,29.4,26.1,29.4,26,29.2C26,29.3,26,29.2,26,29.2z"
				/>
			<path class="st1" d="M27.1,33.4L27.1,33.4c0,0.1,0.1,0.1,0,0.2c-0.1,0-0.1,0-0.1-0.1s-0.1-0.1-0.1-0.2c0-0.2,0-0.5,0.2-0.7
				c0.1-0.1,0.1-0.1,0.3,0c0.1,0,0.1,0.1,0.1,0.2c0,0.1-0.1,0.2,0,0.3l0,0c-0.1,0.1,0,0.1,0,0.2v0.1c0,0.1-0.1,0.1-0.2,0
				C27.2,33.5,27.2,33.4,27.1,33.4z"/>
			<path class="st1" d="M26.4,31c0,0.1,0.1,0.1,0.1,0.1c0.1,0,0.2,0.1,0.2,0.1c0,0.1,0,0.1-0.1,0.1c-0.1,0.1-0.3,0.1-0.4,0.1
				s-0.1,0-0.2,0c-0.1,0.1-0.2,0-0.3,0c0,0-0.1,0,0-0.1c0-0.1,0,0,0-0.1c0,0-0.1,0-0.1-0.1c0,0-0.1-0.1,0-0.1h0.1c0.1,0,0.2,0,0.2,0
				C26,31.1,26.2,31,26.4,31L26.4,31z"/>
			<path class="st1" d="M26.7,28.4h-0.1c-0.1-0.1-0.2-0.2-0.4-0.2c-0.1,0-0.1,0-0.1-0.1s0.1-0.2,0.2-0.2h0.1h0.1
				c0,0.1,0.1,0.1,0.1,0c0.1-0.1,0.1-0.1,0.3,0C27,28,27,28.1,27,28.2l-0.1,0.1C26.8,28.4,26.8,28.4,26.7,28.4z"/>
			<path class="st1" d="M27,31c0,0.1,0,0.1,0,0.2s-0.1,0.1-0.2,0.1s-0.1-0.1-0.2-0.2V31l0,0l0,0c-0.1,0-0.1,0-0.1,0
				c-0.1,0-0.1,0.1-0.2,0.1l0,0c0-0.1-0.1-0.1-0.2-0.1c0,0-0.1,0-0.1-0.1s0.1-0.1,0.1-0.1c0.1,0,0.1,0,0.2-0.1h0.1
				c0.1,0,0.1,0,0.2,0c0.1-0.1,0.2,0,0.2,0.1C26.9,30.9,26.9,30.9,27,31L27,31z"/>
			<path class="st1" d="M25.8,30.9c0.1,0.1,0,0.2-0.1,0.2s-0.1,0-0.2-0.1c0,0,0-0.1-0.1-0.1c-0.1-0.1-0.1-0.1,0-0.2
				c-0.1,0-0.2,0-0.3,0c-0.1,0-0.1,0,0-0.1s0.2-0.1,0.3-0.1c0.2,0,0.2,0,0.2,0.2C25.6,30.7,25.6,30.8,25.8,30.9L25.8,30.9z"/>
			<path class="st1" d="M25.1,27.5C25,27.5,25,27.5,25.1,27.5C25,27.4,25,27.4,25,27.3s0-0.1,0.1-0.1l0,0c0,0,0-0.1,0.1-0.1
				s0.1,0.1,0.2,0.1c0,0,0,0,0.1,0l0.1,0.1c0,0.1-0.1,0.1-0.1,0.1C25.2,27.4,25.2,27.5,25.1,27.5L25.1,27.5z"/>
			<path class="st1" d="M26.9,28.4c0-0.1,0-0.1,0.1-0.1s0.1,0,0.1,0c0.1,0,0.1,0.1,0.1,0.2v0.1c0.1,0.1,0,0.2-0.1,0.2
				s-0.1,0-0.1-0.1s0-0.1-0.1-0.2C27,28.5,27,28.4,26.9,28.4z"/>
			<path class="st1" d="M24.4,31.2c0,0.1,0,0.2-0.1,0.2c0,0-0.1,0-0.1-0.1s0-0.1-0.1-0.2c0-0.1,0-0.1,0-0.2c0.1,0,0.1,0,0.2,0
				C24.3,31.1,24.4,31.1,24.4,31.2z"/>
			<path class="st1" d="M27.5,32c0,0.1,0.1,0.1,0.1,0.2c0,0.1,0,0.1-0.1,0.1s-0.1,0-0.2-0.1C27.3,32.2,27.4,32.1,27.5,32L27.5,32
				L27.5,32z"/>
			<path class="st1" d="M25,30.4C25,30.5,25,30.5,25,30.4c0,0.1-0.1,0.1-0.1,0.2h-0.1c0-0.1-0.1-0.1-0.1-0.2s0-0.1,0.1-0.1
				S24.9,30.3,25,30.4C25,30.3,25,30.4,25,30.4L25,30.4z"/>
			<path class="st1" d="M25.1,33.5C25.1,33.6,25,33.6,25.1,33.5c-0.1,0-0.2,0-0.2,0c-0.1,0-0.1-0.1-0.2-0.1h-0.1c0,0,0-0.1,0.1,0
				c0.1,0,0.1,0,0.1-0.1h0.1C25,33.3,25,33.4,25.1,33.5z"/>
			<path class="st1" d="M27.9,24.6c-0.1,0-0.1,0-0.1-0.1v-0.1c0,0,0.1-0.1,0.1,0H28c0.1-0.1,0.1,0,0.1,0C28,24.5,28,24.6,27.9,24.6z
				"/>
			<path class="st1" d="M27.8,24c0,0.1,0,0.1,0,0.1s0.1,0,0,0.1h-0.1h-0.1c-0.1,0-0.1,0-0.1-0.1l0.1-0.1
				C27.8,23.9,27.8,23.9,27.8,24C27.8,23.9,27.8,24,27.8,24z"/>
			<path class="st1" d="M27.5,28.7L27.5,28.7c0.1,0,0.1,0.1,0.1,0.1c0,0.1-0.1,0.1-0.1,0.1h-0.1c0,0-0.1,0-0.1-0.1
				C27.3,28.8,27.4,28.7,27.5,28.7z"/>
			<path class="st1" d="M28,23.6C28,23.5,28,23.5,28,23.6c0.1-0.1,0.1-0.1,0.1-0.1c0.1,0,0.1,0,0.1,0.1s0,0.1-0.1,0.1H28
				C28.1,23.7,28.1,23.6,28,23.6L28,23.6z"/>
			<path class="st1" d="M28.5,25L28.5,25c-0.1-0.1-0.1-0.1-0.2-0.2v-0.1c0,0,0,0,0.1,0C28.6,24.8,28.6,24.8,28.5,25
				C28.6,24.9,28.6,25,28.5,25z"/>
			<path class="st1" d="M27.1,29.3c-0.1,0-0.2-0.1-0.1-0.3h0.1C27.2,29.1,27.2,29.1,27.1,29.3L27.1,29.3L27.1,29.3z"/>
			<path class="st1" d="M27.3,24.5C27.3,24.4,27.3,24.4,27.3,24.5c0-0.1,0.1-0.1,0.1-0.1l0,0c0,0.1,0,0.1,0.1,0.1s0,0.1,0,0.1
				s-0.1,0-0.2,0C27.3,24.6,27.4,24.5,27.3,24.5z"/>
			<path class="st1" d="M28,23.6L28,23.6c0,0.1-0.1,0.2-0.1,0.2c-0.1,0-0.1,0-0.1-0.1v-0.1C27.9,23.5,27.9,23.5,28,23.6L28,23.6z"/>
			<path class="st1" d="M25.9,28.6L25.9,28.6c-0.1,0-0.1,0-0.2-0.1v-0.1c0.1,0,0.1-0.1,0.2,0S26.1,28.5,25.9,28.6
				C26,28.6,26,28.6,25.9,28.6L25.9,28.6z"/>
			<path class="st1" d="M28.4,22C28.3,22,28.3,22,28.4,22c-0.1-0.1-0.1-0.2,0-0.2s0.2,0.1,0.2,0.1C28.5,21.9,28.4,22,28.4,22z"/>
			<path class="st1" d="M25.5,32c0,0.1,0,0.1-0.1,0.1h-0.1c0-0.1,0-0.1,0-0.1C25.4,31.9,25.4,31.9,25.5,32
				C25.5,31.9,25.5,32,25.5,32z"/>
			<path class="st1" d="M26,26.8C26,26.7,26,26.7,26,26.8C26,26.7,26,26.7,26,26.8C26,26.7,26.1,26.7,26,26.8c0.1,0,0.1,0,0.1,0
				c0,0.1,0,0.1,0,0.1C26,26.9,26,26.8,26,26.8z"/>
			<path class="st1" d="M27.8,30.1C27.8,30.1,27.8,30,27.8,30.1C27.8,30,27.8,30,27.8,30.1c-0.1-0.1-0.1-0.2,0-0.2l0,0
				C27.9,30,27.9,30,27.8,30.1z"/>
		</g>
	</g>
	<path class="st1" d="M33.7,2.4C33.7,2.4,33.7,2.3,33.7,2.4l-4-0.1c0,0.1,0,0.2,0.2,0.3c0,0,0,0,0.1,0.1c0,0.1,0.1,0.2,0.2,0.2
		s0.2,0,0.3,0.1h0.1c0.1-0.1,0.1-0.1,0.2,0c0.2,0,0.4,0.1,0.5-0.1l0,0c0.1,0,0.2-0.1,0.2-0.2l0.1,0.1c0.1,0.1,0.1,0.1,0.2,0.1h0.1
		H32c0.1-0.1,0.1,0,0.1,0C32.2,3,32.2,3.1,32.3,3c0.2,0,0.4,0,0.6,0.2c0,0,0.1,0.1,0.1,0c0.1-0.1,0.2,0,0.3,0c0.1,0.1,0.1,0,0.2,0
		c0.1,0,0.1-0.1,0.1-0.1c0-0.1,0.1-0.1,0.1-0.2V2.8c-0.1-0.1-0.1-0.2,0-0.2C33.6,2.5,33.7,2.5,33.7,2.4z"/>
	<path class="st1" d="M24.6,34.5L24.6,34.5C24.5,34.6,24.5,34.6,24.6,34.5c-0.2,0.1-0.2,0.1-0.1,0.2c0,0.1,0.1,0.1,0.1,0.1
		c0.1,0,0.1,0,0.2,0s0.1,0,0.1-0.1c0.1-0.2,0.2-0.2,0.3-0.3c-0.1,0.1-0.2,0.3-0.2,0.5h2.2v-0.1c0-0.1,0-0.1,0.1-0.2
		c0,0.1,0,0.2,0,0.3h0.2l0,0l0,0h3.8c0-0.1-0.1-0.2-0.2-0.2S31,34.6,31,34.6s0-0.1,0.1-0.1c0.2,0,0.3-0.1,0.4-0.2
		c0.1-0.2,0.1-0.4-0.1-0.6c0,0-0.1,0-0.1-0.1s0-0.2-0.1-0.3c0-0.2,0.1-0.3,0.1-0.5l0,0c0.1,0,0.1-0.1,0.2-0.1h0.1
		c0.1,0,0.2,0,0.2-0.1c0.1-0.1,0-0.1-0.1-0.2c0-0.1,0-0.1,0.1-0.1s0.2-0.1,0.2-0.2c0,0,0.1-0.1,0-0.1c0-0.1,0-0.2-0.1-0.2
		c-0.1-0.1-0.2-0.2-0.2-0.3c0-0.1-0.1-0.2-0.1-0.3c0-0.1-0.1-0.1-0.1-0.1c-0.1,0-0.2-0.1-0.3-0.1c-0.1,0-0.1-0.1-0.2,0s-0.1,0-0.2,0
		c-0.2-0.1-0.2-0.2-0.2-0.4c0,0,0,0,0-0.1c0.1,0.1,0.2,0,0.3,0.1H31c0-0.1,0.1-0.1,0.2-0.1s0.3,0,0.4-0.1c0.1,0,0.1,0,0.2,0
		c0,0,0,0,0.1,0.1c0.2,0.1,0.3,0.1,0.4-0.1c0-0.1,0-0.2,0-0.2c0-0.1,0-0.2,0.1-0.2s0.1-0.1,0.1-0.1c0-0.1-0.1-0.1-0.1-0.2
		c0-0.2-0.2-0.2-0.3-0.2H32c-0.1-0.1-0.2-0.1-0.3,0c-0.1,0-0.1,0-0.2,0s-0.2-0.1-0.3,0h-0.1v-0.1c0.1-0.1,0-0.2,0-0.2v-0.1V29
		c0-0.1-0.1-0.2-0.1-0.3l0,0c-0.1-0.1-0.2-0.2-0.2-0.3c0,0-0.1-0.1-0.1,0c-0.1,0.1-0.2,0-0.4,0c0,0-0.1,0-0.1-0.1s-0.2-0.2-0.3-0.2
		c-0.1-0.1-0.2-0.2-0.2-0.3c0-0.1,0-0.1-0.1-0.2c-0.1,0.1-0.1,0.1-0.2,0.2c0,0.1-0.1,0.1-0.2,0.1h-0.1c-0.1,0-0.2,0-0.3,0
		c-0.1,0-0.2,0.1-0.3,0h-0.1c-0.1,0.1-0.1,0.1-0.2,0c-0.1,0.1,0,0.1-0.1,0.2c-0.1,0-0.1,0.1-0.1,0.2v0.1c0,0-0.1,0-0.1-0.1
		c0,0,0-0.1-0.1-0.1s-0.3,0.1-0.3,0.2s0.1,0.1,0,0.2c0,0,0,0,0.1,0h0.1c0.1,0,0.1,0,0.2,0.1l-0.1-0.1h-0.1c0,0.1-0.1,0.1-0.1,0.2
		c-0.1,0.1,0,0.2,0.1,0.3c0,0.1,0.1,0.1,0.2,0.1c0.2,0,0.3,0,0.5,0.1c0.1,0,0.1,0.1,0.1,0.1c0,0.1,0,0.1,0.1,0.1s0.2,0.1,0.2,0.2
		c-0.1,0-0.1,0-0.2,0c-0.2,0-0.2-0.1-0.3-0.2c0-0.1-0.1-0.1-0.2-0.1s-0.1,0-0.2,0s-0.1,0-0.1,0.1c0,0,0,0,0,0.1
		c-0.1-0.1-0.1-0.2-0.2-0.1c-0.1,0-0.1,0.1-0.1,0.2s0.1,0.1,0.2,0.1c-0.1,0.1-0.2,0.2-0.1,0.3c0,0.1,0,0.1,0,0.1s0,0,0,0.1
		s0,0.1-0.1,0.1l0,0c-0.1,0.1-0.2,0.2-0.2,0.3c0,0.1,0,0.2,0.1,0.3c0,0,0.1,0.1,0,0.2v0.1c0.1,0,0.1,0.1,0.1,0.1s0.1,0.1,0.2,0.1
		c-0.3,0-0.4,0.1-0.3,0.4c0-0.1-0.1,0-0.1,0c0-0.1,0-0.1,0-0.2l0,0l0,0c0,0,0,0,0,0.1s0,0.2-0.1,0.2c0,0-0.1,0,0,0.1l0.1,0.1
		c0.1-0.1,0.1,0,0.2,0h0.1c0,0,0.1,0,0.1,0.1c-0.1,0-0.1,0-0.2,0c0,0-0.1,0.1-0.1,0c-0.1,0-0.1,0-0.1,0.1v0.1l0,0
		c0.2,0,0.2,0,0.2,0.2c0,0.1,0,0.1,0.1,0.1s0.1-0.1,0.2-0.2c0.1-0.1,0.1-0.1,0.2,0s0.2,0.2,0.3,0.3c0,0.1,0.1,0.1,0.2,0.1
		s0.1,0,0.2-0.1c0,0,0,0,0.1,0V33c0,0.1-0.1,0.1-0.2,0.1c-0.2,0-0.4-0.1-0.5-0.4c0-0.1-0.1-0.1-0.2-0.1c-0.1,0.1-0.2,0.2-0.3,0.3
		c0,0,0,0.1-0.1,0.1c-0.2,0-0.2,0.2-0.2,0.3c0,0.2-0.1,0.4-0.1,0.7v0.1c0.1,0,0.1,0,0.1-0.1l0,0c-0.2,0.4-0.3,0.6-0.3,0.9
		c-0.1,0-0.1,0-0.2-0.1l0.1-0.1c0-0.2,0-0.3,0-0.5c0,0,0-0.1-0.1-0.1s-0.1,0-0.2-0.1s-0.2,0-0.2,0.1s0,0.3-0.1,0.4v0.1
		c0.1,0.1,0,0.2,0,0.4c0-0.1,0-0.2-0.1-0.2c-0.1-0.1-0.1-0.1,0-0.2c0.1-0.1,0.1-0.1,0.1-0.2c0-0.1,0-0.2,0.1-0.3
		c0-0.1-0.1,0-0.2-0.1c0.1,0,0.2-0.1,0.2-0.2c0-0.1,0-0.2,0-0.3c0.2,0,0.2-0.1,0.2-0.2c0.1-0.1-0.1-0.1-0.1-0.1s0.1,0,0.1-0.1
		s0.1-0.2,0.1-0.3v-0.1c0.1,0,0.1-0.1,0.1-0.2c0,0,0,0,0-0.1c0.1-0.1,0-0.2,0-0.3s0-0.2-0.2-0.2c0,0-0.1,0-0.1-0.1s-0.1-0.1-0.2-0.1
		h-0.1c-0.1,0.1-0.3,0.1-0.4,0.1s-0.1,0-0.1,0.1L25.6,32l-0.1-0.1c-0.1,0-0.1,0-0.2,0c0,0.1-0.1,0.1,0,0.2v0.1c0,0.1,0,0.1,0,0.2
		c0,0.1,0,0.1-0.1,0.1h-0.1c-0.1,0.1-0.1,0.1,0,0.2c0.1,0.1,0.2,0.1,0.2,0.1c0.1,0,0.2,0.1,0.3,0c0,0,0.1-0.1,0.2-0.1s0.1-0.1,0-0.2
		c-0.1-0.1-0.1-0.1,0-0.2c0.1,0.1,0.1,0.2,0.2,0.3c0,0.1,0.1,0.1,0.1,0.2c0,0.1-0.1,0.1-0.1,0.2v0.1v0.1c0.1,0.1,0.1,0.2,0.1,0.4
		c0.1,0.1,0.1,0.1,0,0.2l0,0c-0.1-0.2-0.2-0.2-0.4-0.3c0.2,0,0.3-0.2,0.2-0.4c0-0.1-0.1-0.2-0.1-0.2c0-0.1-0.1-0.1-0.1-0.1
		c-0.1,0-0.2,0-0.3-0.1c-0.1,0-0.1,0-0.1,0.1S25.2,33,25.2,33c0,0.1,0,0.1-0.1,0.2c-0.1,0.1-0.2,0.2-0.2,0.3s0,0.2,0.2,0.2
		c0.1,0,0.1,0,0.1,0.1s0.1,0.1,0.2,0.1c0.1-0.1,0.1-0.1,0.2-0.1c0,0,0.1,0,0.1-0.1c0,0,0,0.1,0.1,0.1h-0.1h-0.1
		c-0.1,0-0.1,0.1-0.1,0.2c0,0,0,0.1,0.1,0.1c0,0.1,0.1,0.1,0,0.2v-0.1c-0.1-0.1-0.2-0.1-0.2-0.3c0,0,0,0-0.1,0s-0.2,0-0.2,0
		s0,0-0.1,0h-0.1c-0.1,0-0.1,0-0.2,0.1s-0.1,0.1-0.2,0.1h-0.1c0,0.1-0.1,0.1-0.1,0c0,0-0.1,0-0.2,0s-0.1,0.1,0,0.1
		C24.4,34.4,24.4,34.5,24.6,34.5z M28.9,30.6c-0.1,0.1-0.2,0.2-0.4,0.3c0.1-0.1,0.2-0.2,0.3-0.3c0.1-0.1,0.2-0.1,0.2-0.2v-0.1
		c-0.1-0.1,0-0.1,0.1-0.2s0.2-0.3,0.2-0.5c0-0.1,0-0.1,0.1-0.2c0,0.1-0.1,0.2,0,0.3c-0.1,0-0.2,0.1-0.2,0.2s0,0.2-0.1,0.3v0.1
		c0,0.1,0,0.1-0.1,0.2C29,30.5,29,30.6,28.9,30.6z M28.1,33.2c0.1,0,0.1,0,0.2,0.1c-0.2,0-0.3,0-0.5,0.1
		C27.9,33.2,27.9,33.2,28.1,33.2z M26.3,32c-0.1,0.1-0.2,0.1-0.3,0c0,0-0.1,0-0.1-0.1c0.1,0,0.1-0.1,0.1-0.1c0,0.1,0.1,0.1,0.2,0.1
		c0,0,0,0,0.1,0C26.3,31.9,26.4,31.9,26.3,32C26.4,32,26.3,32,26.3,32z"/>
</g>
<text transform="matrix(1 0 0 1 5.7651 18.1136)" class="st1 st3 st4">Región de </text>
<text transform="matrix(1 0 0 1 16.0651 18.1136)" class="st0 st3 st4">Los Ríos</text>
<text transform="matrix(1 0 0 1 66.2269 30.9689)" class="st3 st4">Río San Pedro</text>
<text transform="matrix(1 0 0 1 77.8731 9.3451)" class="st7 st3 st4">Lago Riñihue</text>
<text transform="matrix(1 0 0 1 52.8889 44.8106)" class="st3 st4">Taco 1</text>
<text transform="matrix(1 0 0 1 52.8889 53.9759)" class="st3 st4">Taco 2</text>
<text transform="matrix(1 0 0 1 52.8892 80.4843)" class="st3 st4">Taco 3</text>
<line class="st9" x1="39.2" y1="44.4" x2="51.1" y2="44.4"/>
<line class="st9" x1="33.1" y1="53.6" x2="51.1" y2="53.6"/>
<line class="st9" x1="22.9" y1="80.1" x2="51.1" y2="80.1"/>
<circle class="st1" cx="51.1" cy="53.6" r="0.4"/>
<circle class="st1" cx="51.1" cy="44.4" r="0.4"/>
<circle class="st1" cx="51.1" cy="80.1" r="0.4"/>
</svg>
