<?xml version="1.0" encoding="utf-8"?>
<!-- Generator: Adobe Illustrator 23.0.1, SVG Export Plug-In . SVG Version: 6.00 Build 0)  -->
<svg version="1.1" id="Capa_1" xmlns="http://www.w3.org/2000/svg" xmlns:xlink="http://www.w3.org/1999/xlink" x="0px" y="0px"
	 viewBox="0 0 100 100" style="enable-background:new 0 0 100 100;" xml:space="preserve">
<style type="text/css">
	.st0{fill:#2BBBA0;}
	.st1{fill:#708088;}
	.st2{enable-background:new    ;}
	.st3{fill:#FFFFFF;}
	.st4{fill:none;stroke:#000000;stroke-width:0.1;stroke-miterlimit:10;}
	.st5{clip-path:url(#SVGID_2_);}
</style>
<title>riñihuazo</title>
<image style="overflow:visible;enable-background:new    ;" width="1205" height="1205" xlink:href="7A22457C536E059B.png"  transform="matrix(8.286977e-02 0 0 8.286977e-02 -0.1191 -0.121)">
</image>
<g>
	<polygon class="st0" points="99.2,0.9 97.3,3.6 94.3,5.6 91.2,8.9 89.6,11.3 85.8,11.2 84.9,12.1 84.5,13.2 83.9,13.1 82.2,14.4 
		80.4,16.3 80.4,17.7 81,19.8 80.9,21.4 81.2,23.5 79.3,25.2 77.8,25.2 75.6,25.4 72.9,25.3 70.4,24.2 68.9,25.3 65.8,26 63.5,27.9 
		60.9,29.6 59.7,30.4 59.6,33 57.5,32.9 54.9,34.3 53.8,34.5 52.4,35.1 49.2,34.7 47.4,35.7 45.7,36 44.4,36.7 43.9,38.4 43.7,40.5 
		42.5,43.2 38.7,46.5 36.7,47.7 35,49.5 33.4,51.5 32.4,54.4 32.3,62.2 31.7,62.9 29.8,64.6 24.5,66.9 22.2,67.4 20.9,67.5 
		19.5,68.8 18.8,72.2 22.5,77.7 24.9,80.9 26.2,82.7 26.5,85.9 26.7,89.2 25.9,91.5 24.6,94.4 23,97.5 22.3,99.1 22.6,100 19.7,100 
		19.6,99.6 21.2,97 24.7,90.8 24.9,88.6 24.4,87.1 23.2,84.7 22.7,83.1 22.1,81.6 21,80.4 20.8,79.3 22.6,81 22.9,79.8 21.9,79.2 
		19.9,77.8 16.3,73.1 16.3,71.7 17.2,69.5 17.9,67.7 20.3,66 22.2,65 24.2,63.9 26.4,64.2 28.1,63.7 30.4,61.4 30.4,55.4 30.4,53.2 
		30.9,51.2 33.2,48.8 34.9,47.1 39.4,42.6 40.6,41.7 41.2,40.5 41.8,38.8 41.6,37.7 41.2,36.4 41.6,34.5 45.9,32.5 47,31.7 
		47.6,32.7 48,33.3 49.2,33 51.1,33 52.3,32.7 52.6,33 53.5,33 55,32.8 55,32 55,30.8 55,29 55.5,27.6 56.1,25.5 57,24.3 58.9,23.7 
		61.8,23.2 63.8,22.5 65.6,22 67.6,21.4 69.8,21.4 73.9,21.3 75.6,19.5 76.7,18.2 76.6,17.2 76.3,15.4 76.8,14.6 77.1,13.7 
		77.3,12.7 76.8,11.1 76.1,8 78.4,6.1 79.2,5.5 77.7,3.8 76.8,3 76.8,2 76.8,1 76.8,1 	"/>
	<polygon class="st1" points="40.6,43.9 40.8,44.8 40.8,45.8 40.6,46.7 40,46.7 39.5,46.8 39.2,47.3 39.1,47.7 38.4,47.9 38,47.7 
		37.4,47.2 36.9,46.1 36.8,45.7 36.6,45 36.6,44.3 37,43.3 37.4,42.2 38,41.3 39.3,41 40,41 40.7,41.9 	"/>
	<path class="st1" d="M25.7,97.1L23.9,96l-2.1-0.8h-3.1l-1.1-1.3l-0.8-1.5l-0.5-1.9V89L15,87.9v-1.2l1.1-2.3l0.7-1.5l0.6-0.9
		l0.1-1.3l1.8-1.9l1.1-1.6h2.1l1-0.6c0.4,0.5,1.3,2.2,1.3,2.2l0.9,1.3l1.8,1.9l1.2,1.7l1,2.1l0.8,1.8v2.1L30,91.8l-1,2.1L28.4,95
		l-1.1,1.7L26.7,97L25.7,97.1z"/>
	<polygon class="st1" points="32.6,56 30.9,56 29.3,55.2 28.9,54.9 29.2,53.5 29.5,52.5 29.5,51.7 30.1,50.9 30.8,50.5 30.8,49.9 
		31.5,49.3 32.3,49 34.2,48.5 35.2,48.5 35.8,49.2 36.2,49.8 36.2,50.6 35.4,51.7 34.7,52.5 34.1,53.6 33.5,54.4 33.3,55.2 	"/>
</g>
<g class="st2">
	<path class="st3" d="M82.6,4.7h1.1v0.2h-1.4v-2h0.2V4.7z"/>
	<path class="st3" d="M85,4c0-0.1,0-0.2-0.1-0.3c-0.1-0.1-0.1-0.1-0.3-0.1c-0.1,0-0.2,0-0.3,0.1c-0.1,0-0.1,0.1-0.2,0.2l-0.2-0.1
		c0-0.1,0.1-0.2,0.2-0.3c0.1-0.1,0.2-0.1,0.4-0.1c0.1,0,0.2,0,0.3,0.1s0.2,0.1,0.2,0.2s0.1,0.2,0.1,0.3v0.7c0,0.1,0,0.1,0.1,0.1
		c0,0,0.1,0,0.1,0l0,0.2c0,0-0.1,0-0.2,0c-0.1,0-0.1,0-0.2-0.1c-0.1,0-0.1-0.1-0.1-0.2c-0.1,0.1-0.1,0.1-0.2,0.2
		c-0.1,0-0.2,0.1-0.3,0.1s-0.2,0-0.2,0c-0.1,0-0.1-0.1-0.2-0.1c0-0.1-0.1-0.1-0.1-0.2c0-0.1,0-0.2,0.1-0.3c0.1-0.1,0.2-0.1,0.3-0.1
		L85,4L85,4z M84.3,4.5c0,0.1,0,0.1,0.1,0.2s0.1,0.1,0.2,0.1c0.1,0,0.2,0,0.2,0c0.1,0,0.1-0.1,0.2-0.1C85,4.5,85,4.5,85,4.4V4.2
		l-0.4,0.1c-0.1,0-0.2,0-0.2,0.1S84.3,4.5,84.3,4.5z"/>
	<path class="st3" d="M86.7,4.7c0.1,0,0.3,0,0.3,0.1c0.1,0.1,0.1,0.2,0.1,0.3c0,0.1,0,0.2-0.1,0.3c-0.1,0.1-0.2,0.1-0.3,0.2
		c-0.1,0-0.2,0.1-0.4,0.1c-0.2,0-0.4,0-0.5-0.1c-0.1-0.1-0.2-0.2-0.2-0.3c0-0.1,0-0.1,0.1-0.2c0-0.1,0.1-0.1,0.2-0.1
		c0,0-0.1-0.1-0.1-0.1c0,0,0-0.1,0-0.2c0-0.1,0-0.1,0.1-0.2s0.1-0.1,0.2-0.1c-0.1,0-0.1-0.1-0.2-0.2c0-0.1-0.1-0.2-0.1-0.2
		c0-0.1,0-0.2,0.1-0.3C85.9,3.6,86,3.5,86,3.5s0.2-0.1,0.3-0.1c0.1,0,0.2,0,0.3,0.1c0-0.1,0.1-0.2,0.1-0.2c0.1-0.1,0.2-0.1,0.3-0.1
		h0l0.1,0.2h0c-0.1,0-0.2,0-0.2,0.1c-0.1,0-0.1,0.1-0.1,0.2C86.9,3.7,87,3.8,87,3.9c0,0.1,0,0.2-0.1,0.3c-0.1,0.1-0.1,0.1-0.2,0.2
		s-0.2,0.1-0.3,0.1c-0.1,0-0.1,0-0.2,0c-0.1,0-0.1,0-0.1,0.1c0,0,0,0.1,0,0.1c0,0.1,0.1,0.2,0.2,0.2H86.7z M86.4,5.4
		c0.2,0,0.3,0,0.4-0.1c0.1-0.1,0.1-0.1,0.1-0.2c0-0.1,0-0.1-0.1-0.1c0,0-0.1,0-0.2,0h-0.5c-0.1,0-0.1,0-0.2,0s-0.1,0.1-0.1,0.1
		c0,0.1,0,0.1,0.1,0.2S86.2,5.4,86.4,5.4z M86.4,3.6c-0.1,0-0.2,0-0.3,0.1C86,3.7,86,3.8,86,3.9c0,0.1,0,0.2,0.1,0.2
		c0.1,0.1,0.2,0.1,0.3,0.1c0.1,0,0.2,0,0.3-0.1c0.1-0.1,0.1-0.1,0.1-0.2c0-0.1,0-0.2-0.1-0.2C86.6,3.6,86.5,3.6,86.4,3.6z"/>
	<path class="st3" d="M88.1,3.4c0.1,0,0.3,0,0.4,0.1c0.1,0.1,0.2,0.2,0.3,0.3c0.1,0.1,0.1,0.3,0.1,0.4s0,0.3-0.1,0.4
		c-0.1,0.1-0.1,0.2-0.3,0.3C88.3,4.9,88.2,5,88.1,5c-0.1,0-0.3,0-0.4-0.1c-0.1-0.1-0.2-0.2-0.3-0.3c-0.1-0.1-0.1-0.3-0.1-0.4
		s0-0.3,0.1-0.4c0.1-0.1,0.1-0.2,0.3-0.3C87.8,3.4,87.9,3.4,88.1,3.4z M88.1,3.6c-0.2,0-0.3,0.1-0.4,0.2c-0.1,0.1-0.1,0.2-0.1,0.4
		s0,0.3,0.1,0.4c0.1,0.1,0.2,0.2,0.4,0.2c0.2,0,0.3-0.1,0.4-0.2c0.1-0.1,0.1-0.2,0.1-0.4s0-0.3-0.1-0.4C88.3,3.7,88.2,3.6,88.1,3.6z
		"/>
</g>
<g class="st2">
	<path class="st3" d="M81.2,6.5c0.2,0,0.4,0.1,0.5,0.2c0.1,0.1,0.2,0.2,0.2,0.4c0,0.1,0,0.3-0.1,0.4s-0.2,0.2-0.3,0.2L82,8.5h-0.3
		l-0.5-0.8h-0.5v0.8h-0.2v-2H81.2z M81.2,7.5c0.3,0,0.4-0.1,0.4-0.4c0-0.2-0.1-0.4-0.4-0.4h-0.5v0.7H81.2z"/>
</g>
<g class="st2">
	<path class="st3" d="M82.5,6.7c-0.1,0-0.1,0-0.1,0c0,0,0-0.1,0-0.1c0-0.1,0-0.1,0-0.1c0,0,0.1,0,0.1,0c0.1,0,0.1,0,0.1,0
		s0,0.1,0,0.1c0,0.1,0,0.1,0,0.1C82.6,6.7,82.5,6.7,82.5,6.7z M82.6,7v1.5h-0.2V7H82.6z"/>
	<path class="st3" d="M83.1,8.5V7h0.2l0,0.2c0.1-0.1,0.1-0.2,0.2-0.2S83.8,7,83.9,7c0.1,0,0.2,0,0.3,0.1s0.2,0.1,0.2,0.2
		c0.1,0.1,0.1,0.2,0.1,0.3v1h-0.2V7.7c0-0.2,0-0.3-0.1-0.3C84,7.2,84,7.2,83.9,7.2c-0.1,0-0.1,0-0.2,0.1c-0.1,0-0.1,0.1-0.2,0.2
		c0,0.1-0.1,0.2-0.1,0.3v0.8H83.1z M84.4,6.4c0,0.3-0.1,0.4-0.3,0.4c-0.1,0-0.1,0-0.1,0c0,0-0.1,0-0.1-0.1c0,0-0.1,0-0.1-0.1
		c0,0-0.1,0-0.1,0c0,0-0.1,0-0.1,0.1c0,0,0,0.1,0,0.2h-0.2c0-0.1,0-0.2,0.1-0.3c0.1-0.1,0.1-0.1,0.2-0.1c0.1,0,0.1,0,0.1,0
		c0,0,0.1,0,0.1,0.1s0.1,0,0.1,0.1c0,0,0.1,0,0.1,0c0,0,0.1,0,0.1-0.1c0,0,0-0.1,0-0.2H84.4z"/>
	<path class="st3" d="M85.1,6.7c-0.1,0-0.1,0-0.1,0c0,0,0-0.1,0-0.1c0-0.1,0-0.1,0-0.1s0.1,0,0.1,0s0.1,0,0.1,0c0,0,0,0.1,0,0.1
		c0,0.1,0,0.1,0,0.1C85.2,6.7,85.2,6.7,85.1,6.7z M85.2,7v1.5H85V7H85.2z"/>
	<path class="st3" d="M85.8,8.5V6.3H86v0.9c0.1-0.1,0.1-0.2,0.2-0.2S86.4,7,86.5,7c0.1,0,0.2,0,0.3,0.1S87,7.2,87,7.2
		c0.1,0.1,0.1,0.2,0.1,0.3v1h-0.2V7.7c0-0.2,0-0.3-0.1-0.3c-0.1-0.1-0.2-0.1-0.3-0.1c-0.1,0-0.1,0-0.2,0.1c-0.1,0-0.1,0.1-0.2,0.2
		S86,7.6,86,7.7v0.8H85.8z"/>
	<path class="st3" d="M88.2,8.6c-0.1,0-0.2,0-0.3-0.1c-0.1,0-0.2-0.1-0.2-0.2S87.6,8.1,87.6,8V7h0.2V8c0,0.2,0,0.3,0.1,0.3
		c0.1,0.1,0.2,0.1,0.3,0.1c0.1,0,0.1,0,0.2-0.1c0.1,0,0.1-0.1,0.2-0.2c0-0.1,0.1-0.2,0.1-0.3V7H89v1.5h-0.2l0-0.2
		c-0.1,0.1-0.1,0.2-0.2,0.2S88.3,8.6,88.2,8.6z"/>
	<path class="st3" d="M90.1,8.6c-0.1,0-0.3,0-0.4-0.1c-0.1-0.1-0.2-0.2-0.3-0.3c-0.1-0.1-0.1-0.3-0.1-0.4s0-0.3,0.1-0.4
		c0.1-0.1,0.1-0.2,0.3-0.3C89.9,7,90,7,90.1,7c0.1,0,0.3,0,0.4,0.1c0.1,0.1,0.2,0.1,0.2,0.2c0.1,0.1,0.1,0.2,0.1,0.3
		c0,0,0,0.1,0,0.1s0,0.1,0,0.1h-1.1c0,0.2,0.1,0.3,0.1,0.4c0.1,0.1,0.2,0.1,0.3,0.1c0.1,0,0.2,0,0.3-0.1c0.1,0,0.1-0.1,0.2-0.2
		l0.2,0.1c-0.1,0.1-0.1,0.2-0.2,0.2C90.4,8.5,90.3,8.6,90.1,8.6z M90.1,7.2c-0.1,0-0.2,0-0.3,0.1c-0.1,0.1-0.1,0.2-0.2,0.3h0.9
		c0-0.1,0-0.2-0.1-0.3S90.2,7.2,90.1,7.2z"/>
</g>
<g class="st2">
	<path d="M66.8,29.8c0.2,0,0.4,0.1,0.5,0.2c0.1,0.1,0.2,0.2,0.2,0.4c0,0.1,0,0.3-0.1,0.4s-0.2,0.2-0.3,0.2l0.6,0.9h-0.3l-0.5-0.8
		h-0.5v0.8H66v-2H66.8z M66.8,30.7c0.3,0,0.4-0.1,0.4-0.4c0-0.2-0.1-0.4-0.4-0.4h-0.5v0.7H66.8z"/>
</g>
<g class="st2">
	<path d="M68.2,29.5h0.3L68.1,30H68L68.2,29.5z M68.2,30.2v1.5H68v-1.5H68.2z"/>
	<path d="M69.4,30.2c0.1,0,0.3,0,0.4,0.1c0.1,0.1,0.2,0.2,0.3,0.3c0.1,0.1,0.1,0.3,0.1,0.4s0,0.3-0.1,0.4c-0.1,0.1-0.1,0.2-0.3,0.3
		c-0.1,0.1-0.2,0.1-0.4,0.1c-0.1,0-0.3,0-0.4-0.1c-0.1-0.1-0.2-0.2-0.3-0.3c-0.1-0.1-0.1-0.3-0.1-0.4s0-0.3,0.1-0.4
		c0.1-0.1,0.1-0.2,0.3-0.3C69.1,30.2,69.3,30.2,69.4,30.2z M69.4,30.4c-0.2,0-0.3,0.1-0.4,0.2c-0.1,0.1-0.1,0.2-0.1,0.4
		s0,0.3,0.1,0.4c0.1,0.1,0.2,0.2,0.4,0.2c0.2,0,0.3-0.1,0.4-0.2c0.1-0.1,0.1-0.2,0.1-0.4s0-0.3-0.1-0.4
		C69.7,30.5,69.5,30.4,69.4,30.4z"/>
</g>
<g class="st2">
	<path d="M72.3,29.7c0.2,0,0.3,0,0.5,0.1S73,30,73,30.2l-0.2,0.2c-0.1-0.1-0.2-0.2-0.2-0.3C72.5,30,72.4,30,72.3,30
		c-0.2,0-0.3,0-0.4,0.1c-0.1,0.1-0.1,0.1-0.1,0.2c0,0.1,0,0.1,0.1,0.2s0.1,0.1,0.3,0.1l0.4,0.1c0.2,0,0.3,0.1,0.4,0.2
		c0.1,0.1,0.1,0.2,0.1,0.3c0,0.1,0,0.2-0.1,0.3c-0.1,0.1-0.2,0.2-0.3,0.2s-0.2,0.1-0.4,0.1c-0.2,0-0.4,0-0.5-0.1
		c-0.1-0.1-0.2-0.2-0.3-0.3l0.2-0.2c0.1,0.1,0.1,0.2,0.2,0.3c0.1,0.1,0.2,0.1,0.4,0.1c0.2,0,0.3,0,0.4-0.1c0.1-0.1,0.1-0.1,0.1-0.2
		c0-0.1,0-0.1-0.1-0.2s-0.1-0.1-0.2-0.1L72,30.8c-0.2,0-0.3-0.1-0.4-0.2c-0.1-0.1-0.1-0.2-0.1-0.3c0-0.1,0-0.2,0.1-0.3
		c0.1-0.1,0.1-0.2,0.3-0.2C72,29.8,72.1,29.7,72.3,29.7z"/>
</g>
<g class="st2">
	<path d="M74.4,30.8c0-0.1,0-0.2-0.1-0.3c-0.1-0.1-0.1-0.1-0.3-0.1c-0.1,0-0.2,0-0.3,0.1c-0.1,0-0.1,0.1-0.2,0.2l-0.2-0.1
		c0-0.1,0.1-0.2,0.2-0.3c0.1-0.1,0.2-0.1,0.4-0.1c0.1,0,0.2,0,0.3,0.1s0.2,0.1,0.2,0.2c0.1,0.1,0.1,0.2,0.1,0.3v0.7
		c0,0.1,0,0.1,0.1,0.1c0,0,0.1,0,0.1,0l0,0.2c0,0-0.1,0-0.2,0c-0.1,0-0.1,0-0.2-0.1s-0.1-0.1-0.1-0.2c-0.1,0.1-0.1,0.1-0.2,0.2
		s-0.2,0.1-0.3,0.1c-0.1,0-0.2,0-0.2,0c-0.1,0-0.1-0.1-0.2-0.1c0-0.1-0.1-0.1-0.1-0.2c0-0.1,0-0.2,0.1-0.3s0.2-0.1,0.3-0.1
		L74.4,30.8L74.4,30.8z M73.6,31.4c0,0.1,0,0.1,0.1,0.2s0.1,0.1,0.2,0.1c0.1,0,0.2,0,0.2,0c0.1,0,0.1-0.1,0.2-0.1
		c0-0.1,0.1-0.1,0.1-0.2V31l-0.4,0.1c-0.1,0-0.2,0-0.2,0.1S73.6,31.3,73.6,31.4z"/>
	<path d="M75.2,31.7v-1.5h0.2l0,0.2c0.1-0.1,0.1-0.2,0.2-0.2s0.2-0.1,0.3-0.1c0.1,0,0.2,0,0.3,0.1s0.2,0.1,0.2,0.2
		c0.1,0.1,0.1,0.2,0.1,0.3v1h-0.2v-0.9c0-0.2,0-0.3-0.1-0.3c-0.1-0.1-0.2-0.1-0.3-0.1c-0.1,0-0.1,0-0.2,0.1c-0.1,0-0.1,0.1-0.2,0.2
		c0,0.1-0.1,0.2-0.1,0.3v0.8H75.2z"/>
</g>
<g class="st2">
	<path d="M78.8,29.8c0.1,0,0.3,0,0.3,0.1c0.1,0,0.2,0.1,0.2,0.2c0.1,0.1,0.1,0.2,0.1,0.3s0,0.2-0.1,0.3c-0.1,0.1-0.1,0.2-0.2,0.2
		c-0.1,0-0.2,0.1-0.3,0.1h-0.5v0.8h-0.2v-2H78.8z M78.8,30.7c0.2,0,0.3,0,0.3-0.1c0.1-0.1,0.1-0.2,0.1-0.3c0-0.1,0-0.2-0.1-0.3
		C79,30,78.9,30,78.8,30h-0.4v0.8H78.8z"/>
</g>
<g class="st2">
	<path d="M80.5,31.8c-0.1,0-0.3,0-0.4-0.1c-0.1-0.1-0.2-0.2-0.3-0.3c-0.1-0.1-0.1-0.3-0.1-0.4s0-0.3,0.1-0.4
		c0.1-0.1,0.1-0.2,0.3-0.3c0.1-0.1,0.2-0.1,0.4-0.1c0.1,0,0.3,0,0.4,0.1c0.1,0.1,0.2,0.1,0.2,0.2c0.1,0.1,0.1,0.2,0.1,0.3
		c0,0,0,0.1,0,0.1s0,0.1,0,0.1H80c0,0.2,0.1,0.3,0.1,0.4c0.1,0.1,0.2,0.1,0.3,0.1c0.1,0,0.2,0,0.3-0.1c0.1,0,0.1-0.1,0.2-0.2
		l0.2,0.1c-0.1,0.1-0.1,0.2-0.2,0.2C80.8,31.7,80.7,31.8,80.5,31.8z M80.5,30.4c-0.1,0-0.2,0-0.3,0.1c-0.1,0.1-0.1,0.2-0.2,0.3h0.9
		c0-0.1,0-0.2-0.1-0.3S80.6,30.4,80.5,30.4z"/>
	<path d="M82.2,31.8c-0.1,0-0.2,0-0.3-0.1c-0.1-0.1-0.2-0.2-0.2-0.3c-0.1-0.1-0.1-0.3-0.1-0.4c0-0.2,0-0.3,0.1-0.4
		c0.1-0.1,0.2-0.2,0.3-0.3c0.1-0.1,0.2-0.1,0.3-0.1c0.1,0,0.2,0,0.3,0.1c0.1,0,0.1,0.1,0.2,0.2v-0.9h0.2v2.2h-0.2l0-0.3
		c0,0.1-0.1,0.2-0.2,0.2C82.4,31.7,82.3,31.8,82.2,31.8z M82.2,31.6c0.1,0,0.3-0.1,0.3-0.2c0.1-0.1,0.1-0.2,0.1-0.4
		c0-0.2,0-0.3-0.1-0.4c-0.1-0.1-0.2-0.1-0.3-0.1c-0.2,0-0.3,0.1-0.4,0.2c-0.1,0.1-0.1,0.2-0.1,0.4s0,0.3,0.1,0.4
		C82,31.5,82.1,31.6,82.2,31.6z"/>
</g>
<g class="st2">
	<path d="M83.5,31.7v-1.5h0.2l0,0.2c0.1-0.2,0.2-0.3,0.5-0.3c0,0,0.1,0,0.1,0c0,0,0.1,0,0.1,0l0,0.2c0,0,0,0-0.1,0c0,0-0.1,0-0.1,0
		c-0.1,0-0.1,0-0.2,0.1c-0.1,0-0.1,0.1-0.2,0.2c0,0.1-0.1,0.2-0.1,0.3v0.8H83.5z"/>
</g>
<g class="st2">
	<path d="M85.3,30.2c0.1,0,0.3,0,0.4,0.1c0.1,0.1,0.2,0.2,0.3,0.3C86,30.7,86,30.8,86,31s0,0.3-0.1,0.4c-0.1,0.1-0.1,0.2-0.3,0.3
		c-0.1,0.1-0.2,0.1-0.4,0.1c-0.1,0-0.3,0-0.4-0.1c-0.1-0.1-0.2-0.2-0.3-0.3c-0.1-0.1-0.1-0.3-0.1-0.4s0-0.3,0.1-0.4
		c0.1-0.1,0.1-0.2,0.3-0.3C85,30.2,85.1,30.2,85.3,30.2z M85.3,30.4c-0.2,0-0.3,0.1-0.4,0.2c-0.1,0.1-0.1,0.2-0.1,0.4s0,0.3,0.1,0.4
		c0.1,0.1,0.2,0.2,0.4,0.2c0.2,0,0.3-0.1,0.4-0.2c0.1-0.1,0.1-0.2,0.1-0.4s0-0.3-0.1-0.4C85.6,30.5,85.4,30.4,85.3,30.4z"/>
</g>
<g class="st2">
	<path d="M46.7,44.8V45H46v1.8h-0.2V45h-0.7v-0.2H46.7z"/>
</g>
<g class="st2">
	<path d="M47.6,45.8c0-0.1,0-0.2-0.1-0.3c-0.1-0.1-0.1-0.1-0.3-0.1c-0.1,0-0.2,0-0.3,0.1c-0.1,0-0.1,0.1-0.2,0.2l-0.2-0.1
		c0-0.1,0.1-0.2,0.2-0.3c0.1-0.1,0.2-0.1,0.4-0.1c0.1,0,0.2,0,0.3,0.1s0.2,0.1,0.2,0.2c0.1,0.1,0.1,0.2,0.1,0.3v0.7
		c0,0.1,0,0.1,0.1,0.1c0,0,0.1,0,0.1,0l0,0.2c0,0-0.1,0-0.2,0c-0.1,0-0.1,0-0.2-0.1c-0.1,0-0.1-0.1-0.1-0.2
		c-0.1,0.1-0.1,0.1-0.2,0.2c-0.1,0-0.2,0.1-0.3,0.1c-0.1,0-0.2,0-0.2,0c-0.1,0-0.1-0.1-0.2-0.1c0-0.1-0.1-0.1-0.1-0.2
		c0-0.1,0-0.2,0.1-0.3c0.1-0.1,0.2-0.1,0.3-0.1L47.6,45.8L47.6,45.8z M46.9,46.4c0,0.1,0,0.1,0.1,0.2s0.1,0.1,0.2,0.1
		c0.1,0,0.2,0,0.2,0c0.1,0,0.1-0.1,0.2-0.1c0-0.1,0.1-0.1,0.1-0.2v-0.2l-0.4,0.1c-0.1,0-0.2,0-0.2,0.1S46.9,46.3,46.9,46.4z"/>
	<path d="M49.1,45.3c0.2,0,0.3,0,0.4,0.1c0.1,0.1,0.2,0.2,0.2,0.3l-0.2,0.1c0-0.1-0.1-0.2-0.1-0.2c-0.1-0.1-0.1-0.1-0.3-0.1
		c-0.1,0-0.3,0.1-0.4,0.2c-0.1,0.1-0.1,0.2-0.1,0.4s0,0.3,0.1,0.4c0.1,0.1,0.2,0.2,0.4,0.2c0.1,0,0.2,0,0.3-0.1
		c0.1-0.1,0.1-0.1,0.1-0.2l0.2,0.1c-0.1,0.1-0.1,0.2-0.2,0.3s-0.2,0.1-0.4,0.1c-0.1,0-0.3,0-0.4-0.1c-0.1-0.1-0.2-0.2-0.3-0.3
		c-0.1-0.1-0.1-0.3-0.1-0.4s0-0.3,0.1-0.4c0.1-0.1,0.1-0.2,0.3-0.3C48.8,45.3,48.9,45.3,49.1,45.3z"/>
	<path d="M50.8,45.3c0.1,0,0.3,0,0.4,0.1c0.1,0.1,0.2,0.2,0.3,0.3c0.1,0.1,0.1,0.3,0.1,0.4s0,0.3-0.1,0.4c-0.1,0.1-0.1,0.2-0.3,0.3
		c-0.1,0.1-0.2,0.1-0.4,0.1c-0.1,0-0.3,0-0.4-0.1c-0.1-0.1-0.2-0.2-0.3-0.3C50.1,46.4,50,46.2,50,46s0-0.3,0.1-0.4
		c0.1-0.1,0.1-0.2,0.3-0.3C50.5,45.3,50.6,45.3,50.8,45.3z M50.8,45.5c-0.2,0-0.3,0.1-0.4,0.2c-0.1,0.1-0.1,0.2-0.1,0.4
		s0,0.3,0.1,0.4c0.1,0.1,0.2,0.2,0.4,0.2s0.3-0.1,0.4-0.2c0.1-0.1,0.1-0.2,0.1-0.4s0-0.3-0.1-0.4C51,45.5,50.9,45.5,50.8,45.5z"/>
	<path d="M54.6,44.8v2h-0.3l-0.8-1.3l-0.2-0.4h0l0,0.3v1.4H53v-2h0.3l0.8,1.3l0.2,0.4h0l0-0.3v-1.4H54.6z"/>
	<path d="M55.4,45.8c-0.1,0-0.3,0-0.3-0.1C55,45.6,55,45.5,55,45.3c0-0.2,0-0.3,0.1-0.4c0.1-0.1,0.2-0.1,0.3-0.1
		c0.1,0,0.3,0,0.3,0.1s0.1,0.2,0.1,0.4c0,0.2,0,0.3-0.1,0.4S55.6,45.8,55.4,45.8z M55,46.2V46h0.9v0.2H55z M55.4,45.7
		c0.1,0,0.2,0,0.2-0.1c0-0.1,0.1-0.1,0.1-0.3c0-0.1,0-0.2-0.1-0.3c0-0.1-0.1-0.1-0.2-0.1s-0.2,0-0.2,0.1c0,0.1-0.1,0.1-0.1,0.3
		c0,0.1,0,0.2,0.1,0.3C55.3,45.6,55.3,45.7,55.4,45.7z"/>
	<path d="M56.6,46.8v-1.5c0,0,0-0.1,0-0.1s0-0.1,0-0.1c-0.1,0.1-0.1,0.1-0.2,0.2s-0.2,0.1-0.3,0.1L56,45.2c0,0,0.1,0,0.1,0
		c0.1,0,0.1-0.1,0.2-0.1c0.1,0,0.1-0.1,0.2-0.1s0.1-0.1,0.1-0.1h0.2v2H56.6z"/>
</g>
<g class="st2">
	<path d="M39.3,53.8V54h-0.7v1.8h-0.2V54h-0.7v-0.2H39.3z"/>
</g>
<g class="st2">
	<path d="M40.2,54.8c0-0.1,0-0.2-0.1-0.3c-0.1-0.1-0.1-0.1-0.3-0.1c-0.1,0-0.2,0-0.3,0.1c-0.1,0-0.1,0.1-0.2,0.2l-0.2-0.1
		c0-0.1,0.1-0.2,0.2-0.3c0.1-0.1,0.2-0.1,0.4-0.1c0.1,0,0.2,0,0.3,0.1s0.2,0.1,0.2,0.2c0.1,0.1,0.1,0.2,0.1,0.3v0.7
		c0,0.1,0,0.1,0.1,0.1c0,0,0.1,0,0.1,0l0,0.2c0,0-0.1,0-0.2,0c-0.1,0-0.1,0-0.2-0.1c-0.1,0-0.1-0.1-0.1-0.2
		c-0.1,0.1-0.1,0.1-0.2,0.2c-0.1,0-0.2,0.1-0.3,0.1c-0.1,0-0.2,0-0.2,0c-0.1,0-0.1-0.1-0.2-0.1c0-0.1-0.1-0.1-0.1-0.2
		c0-0.1,0-0.2,0.1-0.3c0.1-0.1,0.2-0.1,0.3-0.1L40.2,54.8L40.2,54.8z M39.5,55.4c0,0.1,0,0.1,0.1,0.2s0.1,0.1,0.2,0.1
		c0.1,0,0.2,0,0.2,0c0.1,0,0.1-0.1,0.2-0.1c0-0.1,0.1-0.1,0.1-0.2v-0.2l-0.4,0.1c-0.1,0-0.2,0-0.2,0.1S39.5,55.3,39.5,55.4z"/>
	<path d="M41.6,54.3c0.2,0,0.3,0,0.4,0.1c0.1,0.1,0.2,0.2,0.2,0.3L42,54.8c0-0.1-0.1-0.2-0.1-0.2c-0.1-0.1-0.1-0.1-0.3-0.1
		c-0.1,0-0.3,0.1-0.4,0.2c-0.1,0.1-0.1,0.2-0.1,0.4s0,0.3,0.1,0.4c0.1,0.1,0.2,0.2,0.4,0.2c0.1,0,0.2,0,0.3-0.1
		c0.1-0.1,0.1-0.1,0.1-0.2l0.2,0.1c-0.1,0.1-0.1,0.2-0.2,0.3s-0.2,0.1-0.4,0.1c-0.1,0-0.3,0-0.4-0.1c-0.1-0.1-0.2-0.2-0.3-0.3
		c-0.1-0.1-0.1-0.3-0.1-0.4s0-0.3,0.1-0.4c0.1-0.1,0.1-0.2,0.3-0.3C41.4,54.3,41.5,54.3,41.6,54.3z"/>
	<path d="M43.3,54.3c0.1,0,0.3,0,0.4,0.1c0.1,0.1,0.2,0.2,0.3,0.3c0.1,0.1,0.1,0.3,0.1,0.4s0,0.3-0.1,0.4c-0.1,0.1-0.1,0.2-0.3,0.3
		c-0.1,0.1-0.2,0.1-0.4,0.1c-0.1,0-0.3,0-0.4-0.1c-0.1-0.1-0.2-0.2-0.3-0.3c-0.1-0.1-0.1-0.3-0.1-0.4s0-0.3,0.1-0.4
		c0.1-0.1,0.1-0.2,0.3-0.3C43.1,54.3,43.2,54.3,43.3,54.3z M43.3,54.5c-0.2,0-0.3,0.1-0.4,0.2c-0.1,0.1-0.1,0.2-0.1,0.4
		s0,0.3,0.1,0.4c0.1,0.1,0.2,0.2,0.4,0.2s0.3-0.1,0.4-0.2c0.1-0.1,0.1-0.2,0.1-0.4s0-0.3-0.1-0.4C43.6,54.5,43.5,54.5,43.3,54.5z"/>
	<path d="M47.1,53.8v2h-0.3L46,54.5l-0.2-0.4h0l0,0.3v1.4h-0.2v-2h0.3l0.8,1.3l0.2,0.4h0l0-0.3v-1.4H47.1z"/>
	<path d="M48,54.8c-0.1,0-0.3,0-0.3-0.1c-0.1-0.1-0.1-0.2-0.1-0.4c0-0.2,0-0.3,0.1-0.4c0.1-0.1,0.2-0.1,0.3-0.1s0.3,0,0.3,0.1
		s0.1,0.2,0.1,0.4c0,0.2,0,0.3-0.1,0.4S48.1,54.8,48,54.8z M47.6,55.2V55h0.9v0.2H47.6z M48,54.6c0.1,0,0.2,0,0.2-0.1
		c0-0.1,0.1-0.1,0.1-0.3c0-0.1,0-0.2-0.1-0.3c0-0.1-0.1-0.1-0.2-0.1s-0.2,0-0.2,0.1c0,0.1-0.1,0.1-0.1,0.3c0,0.1,0,0.2,0.1,0.3
		C47.8,54.6,47.9,54.6,48,54.6z"/>
	<path d="M48.8,55.8v-0.2c0.2-0.1,0.4-0.3,0.5-0.4c0.1-0.1,0.2-0.2,0.3-0.3s0.1-0.2,0.2-0.3s0.1-0.2,0.1-0.3c0-0.1,0-0.2-0.1-0.3
		C49.6,54,49.5,54,49.4,54c-0.1,0-0.2,0-0.3,0.1s-0.1,0.2-0.1,0.4l-0.2-0.1c0-0.2,0.1-0.3,0.2-0.4c0.1-0.1,0.3-0.2,0.5-0.2
		c0.1,0,0.3,0,0.4,0.1c0.1,0.1,0.2,0.1,0.2,0.2c0.1,0.1,0.1,0.2,0.1,0.3c0,0.1,0,0.2-0.1,0.4s-0.2,0.2-0.3,0.4
		c-0.1,0.1-0.3,0.3-0.6,0.4v0c0,0,0.1,0,0.1,0c0,0,0.1,0,0.1,0s0.1,0,0.1,0h0.7v0.2H48.8z"/>
</g>
<g class="st2">
	<path d="M33.2,79.1v0.2h-0.7v1.8h-0.2v-1.8h-0.7v-0.2H33.2z"/>
</g>
<g class="st2">
	<path d="M34.2,80.1c0-0.1,0-0.2-0.1-0.3c-0.1-0.1-0.1-0.1-0.3-0.1c-0.1,0-0.2,0-0.3,0.1c-0.1,0-0.1,0.1-0.2,0.2l-0.2-0.1
		c0-0.1,0.1-0.2,0.2-0.3c0.1-0.1,0.2-0.1,0.4-0.1c0.1,0,0.2,0,0.3,0.1s0.2,0.1,0.2,0.2c0.1,0.1,0.1,0.2,0.1,0.3v0.7
		c0,0.1,0,0.1,0.1,0.1c0,0,0.1,0,0.1,0l0,0.2c0,0-0.1,0-0.2,0c-0.1,0-0.1,0-0.2-0.1c-0.1,0-0.1-0.1-0.1-0.2C34.1,81,34,81,34,81.1
		c-0.1,0-0.2,0.1-0.3,0.1c-0.1,0-0.2,0-0.2,0c-0.1,0-0.1-0.1-0.2-0.1c0-0.1-0.1-0.1-0.1-0.2c0-0.1,0-0.2,0.1-0.3
		c0.1-0.1,0.2-0.1,0.3-0.1L34.2,80.1L34.2,80.1z M33.4,80.7c0,0.1,0,0.1,0.1,0.2s0.1,0.1,0.2,0.1c0.1,0,0.2,0,0.2,0
		c0.1,0,0.1-0.1,0.2-0.1c0-0.1,0.1-0.1,0.1-0.2v-0.2l-0.4,0.1c-0.1,0-0.2,0-0.2,0.1S33.4,80.6,33.4,80.7z"/>
	<path d="M35.6,79.6c0.2,0,0.3,0,0.4,0.1c0.1,0.1,0.2,0.2,0.2,0.3L36,80.1c0-0.1-0.1-0.2-0.1-0.2c-0.1-0.1-0.1-0.1-0.3-0.1
		c-0.1,0-0.3,0.1-0.4,0.2c-0.1,0.1-0.1,0.2-0.1,0.4s0,0.3,0.1,0.4c0.1,0.1,0.2,0.2,0.4,0.2c0.1,0,0.2,0,0.3-0.1
		c0.1-0.1,0.1-0.1,0.1-0.2l0.2,0.1c-0.1,0.1-0.1,0.2-0.2,0.3s-0.2,0.1-0.4,0.1c-0.1,0-0.3,0-0.4-0.1C35.1,81,35,80.9,35,80.8
		c-0.1-0.1-0.1-0.3-0.1-0.4s0-0.3,0.1-0.4c0.1-0.1,0.1-0.2,0.3-0.3C35.3,79.6,35.5,79.6,35.6,79.6z"/>
	<path d="M37.3,79.6c0.1,0,0.3,0,0.4,0.1c0.1,0.1,0.2,0.2,0.3,0.3C38,80,38,80.2,38,80.3s0,0.3-0.1,0.4c-0.1,0.1-0.1,0.2-0.3,0.3
		c-0.1,0.1-0.2,0.1-0.4,0.1c-0.1,0-0.3,0-0.4-0.1c-0.1-0.1-0.2-0.2-0.3-0.3c-0.1-0.1-0.1-0.3-0.1-0.4s0-0.3,0.1-0.4
		c0.1-0.1,0.1-0.2,0.3-0.3C37,79.6,37.1,79.6,37.3,79.6z M37.3,79.8c-0.2,0-0.3,0.1-0.4,0.2c-0.1,0.1-0.1,0.2-0.1,0.4s0,0.3,0.1,0.4
		c0.1,0.1,0.2,0.2,0.4,0.2s0.3-0.1,0.4-0.2c0.1-0.1,0.1-0.2,0.1-0.4s0-0.3-0.1-0.4C37.6,79.8,37.4,79.8,37.3,79.8z"/>
	<path d="M41.1,79.1v2h-0.3L40,79.8l-0.2-0.4h0l0,0.3v1.4h-0.2v-2h0.3l0.8,1.3l0.2,0.4h0l0-0.3v-1.4H41.1z"/>
	<path d="M42,80.1c-0.1,0-0.3,0-0.3-0.1c-0.1-0.1-0.1-0.2-0.1-0.4c0-0.2,0-0.3,0.1-0.4c0.1-0.1,0.2-0.1,0.3-0.1s0.3,0,0.3,0.1
		s0.1,0.2,0.1,0.4c0,0.2,0,0.3-0.1,0.4S42.1,80.1,42,80.1z M41.5,80.5v-0.2h0.9v0.2H41.5z M42,80c0.1,0,0.2,0,0.2-0.1
		c0-0.1,0.1-0.1,0.1-0.3c0-0.1,0-0.2-0.1-0.3c0-0.1-0.1-0.1-0.2-0.1s-0.2,0-0.2,0.1c0,0.1-0.1,0.1-0.1,0.3c0,0.1,0,0.2,0.1,0.3
		C41.8,79.9,41.9,80,42,80z"/>
	<path d="M43.4,81.1c-0.2,0-0.3,0-0.5-0.1c-0.1-0.1-0.2-0.2-0.3-0.3l0.2-0.1c0,0.1,0.1,0.2,0.2,0.3c0.1,0.1,0.2,0.1,0.4,0.1
		c0.1,0,0.2,0,0.3-0.1c0.1-0.1,0.1-0.2,0.1-0.3c0-0.1,0-0.2-0.1-0.2s-0.2-0.1-0.3-0.1c0,0-0.1,0-0.2,0V80c0,0,0,0,0.1,0c0,0,0,0,0,0
		c0.1,0,0.2,0,0.3-0.1c0.1-0.1,0.1-0.1,0.1-0.3c0-0.1,0-0.2-0.1-0.2s-0.2-0.1-0.3-0.1c-0.1,0-0.2,0-0.3,0.1
		c-0.1,0.1-0.1,0.1-0.2,0.2l-0.2-0.1c0-0.1,0.1-0.2,0.3-0.3c0.1-0.1,0.3-0.1,0.4-0.1c0.1,0,0.3,0,0.3,0.1c0.1,0,0.2,0.1,0.2,0.2
		s0.1,0.2,0.1,0.3c0,0.1,0,0.3-0.1,0.3c-0.1,0.1-0.2,0.1-0.3,0.2v0c0.1,0,0.2,0,0.2,0.1s0.1,0.1,0.1,0.2c0,0.1,0,0.1,0,0.2
		c0,0.1,0,0.2-0.1,0.3c-0.1,0.1-0.1,0.2-0.2,0.2C43.6,81.1,43.5,81.1,43.4,81.1z"/>
</g>
<g>
	<g>
		<polyline class="st4" points="92.1,90.8 92.1,92.4 70.4,92.4 70.4,90.8 		"/>
		<g class="st2">
			<path d="M78.3,95.8v-1.5c0,0,0-0.1,0-0.1s0-0.1,0-0.1c-0.1,0.1-0.1,0.1-0.2,0.2s-0.2,0.1-0.3,0.1l-0.1-0.2c0,0,0.1,0,0.1,0
				c0.1,0,0.1-0.1,0.2-0.1c0.1,0,0.1-0.1,0.2-0.1s0.1-0.1,0.1-0.1h0.2v2H78.3z"/>
			<path d="M80.5,93.8v1l1-1h0.3L81,94.6l0.8,1.2h-0.3l-0.7-1l-0.4,0.4v0.6h-0.2v-2H80.5z"/>
			<path d="M82.2,95.8v-1.5h0.2l0,0.2c0.1-0.1,0.1-0.2,0.2-0.2s0.2-0.1,0.3-0.1c0.1,0,0.2,0,0.3,0.1s0.2,0.1,0.2,0.2
				c0-0.1,0.1-0.1,0.1-0.2c0.1,0,0.1-0.1,0.2-0.1c0.1,0,0.1,0,0.2,0c0.1,0,0.2,0,0.3,0.1s0.2,0.1,0.2,0.2c0.1,0.1,0.1,0.2,0.1,0.3v1
				h-0.2v-0.9c0-0.1,0-0.2-0.1-0.3c-0.1-0.1-0.2-0.1-0.3-0.1c-0.1,0-0.2,0-0.2,0.1s-0.1,0.1-0.2,0.2s-0.1,0.2-0.1,0.3v0.8h-0.2v-0.9
				c0-0.1,0-0.2-0.1-0.3c-0.1-0.1-0.2-0.1-0.3-0.1c-0.1,0-0.1,0-0.2,0.1s-0.1,0.1-0.2,0.2c0,0.1-0.1,0.2-0.1,0.3v0.8H82.2z"/>
		</g>
	</g>
	<g>
		<path d="M78.9,87.3l-0.2,0.1c-0.2-0.3-0.4-0.6-0.7-0.9c-0.2-0.3-0.5-0.5-0.8-0.7s-0.6-0.4-0.9-0.7l0,0c0.3-0.2,0.6-0.4,0.9-0.7
			c0.3-0.2,0.5-0.5,0.7-0.7c0.2-0.3,0.5-0.6,0.7-0.9l0.2,0.1c-0.3,0.4-0.7,0.8-1.1,1.2c-0.3,0.3-0.7,0.6-1.1,0.9h4.5v0.2h-4.5
			c0.4,0.2,0.7,0.5,1.1,0.8C78.2,86.5,78.5,86.9,78.9,87.3z"/>
		<path d="M86.1,82.8v4.8h-0.3l-2.9-4.2L82.6,83l0,0v0.5v4.1h-0.2v-4.8h0.3l3,4.2l0.2,0.4v-4.6L86.1,82.8z"/>
	</g>
</g>
<g>
	<g>
		<rect x="2.1" y="2.3" class="st3" width="32.6" height="32.6"/>
	</g>
	<g>
		<g>
			<defs>
				<rect id="SVGID_1_" x="2.1" y="2.3" width="32.6" height="32.6"/>
			</defs>
			<clipPath id="SVGID_2_">
				<use xlink:href="#SVGID_1_"  style="overflow:visible;"/>
			</clipPath>
			<g class="st5">
				<g>
					<path class="st1" d="M22.1,38.6C22.1,38.6,22,38.6,22.1,38.6c-0.1,0-0.1,0-0.1,0v-0.1c0.1-0.1,0.1-0.3,0.2-0.4c0,0,0,0,0-0.1
						s0.1-0.2,0.2-0.2c-0.1-0.1-0.1-0.1,0.1-0.1c-0.1-0.1-0.1-0.2,0-0.3c0-0.1,0.1-0.1,0.2-0.1c-0.2-0.1-0.2-0.4-0.4-0.5
						c0-0.1,0.1,0,0.1-0.1c-0.1,0-0.2,0-0.3,0H22c0,0.1-0.1,0.1-0.2,0.1c0,0,0,0-0.1,0c0,0,0,0,0,0.1c0,0,0,0.1,0.1,0
						c0.2-0.1,0.3,0.1,0.4,0.1l0,0c0,0,0,0,0,0.1c-0.1,0-0.1,0-0.2,0S21.7,37,21.6,37l-0.1-0.1c-0.1-0.1-0.1-0.1-0.2-0.1h-0.1
						c-0.1-0.1-0.2-0.1-0.3-0.1c-0.1-0.1-0.2-0.2-0.2-0.4v-0.1c-0.1,0.1-0.3,0.1-0.4,0.2c-0.1,0-0.1,0.1-0.2,0c-0.1,0-0.1,0-0.2,0.1
						v0.1c0.1,0,0.1,0,0.2,0c0,0,0.1,0,0,0.1c0,0.1,0,0.1,0,0.1l0.1,0.1c0.1,0.1,0.1,0.2,0,0.3s-0.2,0.1-0.3,0.1
						c-0.1,0-0.2,0-0.2-0.1l0,0c-0.1-0.1-0.2-0.2-0.2-0.2c0-0.1-0.1-0.1-0.1-0.2c0-0.2,0.1-0.3,0.1-0.5c0,0,0,0,0.1-0.1h0.1
						c0.1,0,0.1,0,0.1-0.1s0-0.1,0.1-0.1s0.2-0.1,0.2-0.2c0-0.1,0.1-0.1,0.1-0.1c0.1,0,0.1-0.1,0.2-0.1s0-0.2,0.1-0.2
						s0.1-0.1,0.2-0.2c0-0.1,0.1-0.1,0.2-0.1H21V35c0-0.1,0.1-0.2,0.2-0.1c0-0.2,0.1-0.3,0.2-0.5c-0.1,0.1-0.2,0.2-0.3,0.3L21,34.8
						c-0.1,0-0.1,0-0.2,0s-0.1,0-0.1-0.1c-0.1-0.1,0-0.2,0.1-0.2l0,0l0,0c-0.1,0-0.2-0.2-0.2-0.3s0-0.1,0-0.1s0.1,0,0.2,0h0.1
						c0,0,0,0,0.1,0s0.2,0,0.2-0.1s0.1-0.1,0.2-0.1h0.1c0,0,0,0,0.1,0c0.1-0.1,0.2,0,0.2,0h0.1c0,0.1,0.1,0.2,0.2,0.3c0,0,0,0,0,0.1
						c0-0.1,0-0.1,0-0.2L22,34c0-0.1,0-0.2,0.1-0.2h0.1h0.1c0,0,0-0.1-0.1-0.1c0,0.1-0.1,0.1-0.1,0.1c-0.1,0-0.2,0-0.2,0.1
						c-0.1,0-0.2,0-0.2-0.1s0-0.1-0.1-0.1s-0.2-0.1-0.2-0.2c0-0.1,0.1-0.2,0.2-0.3c0.1,0,0.1-0.1,0.1-0.2c0-0.1,0-0.2,0.1-0.2
						c0-0.1,0.1-0.1,0.1-0.1c0.1,0,0.2,0,0.3,0.1c0.1,0,0.1,0,0.1,0.1s0.1,0.2,0.1,0.2c0.1,0.2,0,0.3-0.2,0.4c0.2,0,0.3,0.1,0.4,0.3
						l0,0c0.1-0.1,0.1-0.1,0-0.2c0-0.1-0.1-0.3-0.1-0.4v-0.1V33c0-0.1,0.1-0.1,0.1-0.2c0-0.1-0.1-0.1-0.1-0.2c0-0.1-0.1-0.2-0.2-0.3
						c0,0.1,0,0.1,0,0.2c0.1,0.1,0.1,0.1,0,0.2c-0.1,0-0.1,0-0.2,0.1s-0.2,0.1-0.3,0c-0.1,0-0.2-0.1-0.2-0.1c-0.1-0.1-0.1-0.1,0-0.2
						h0.1c0.1,0,0.1-0.1,0.1-0.1c0-0.1,0-0.1,0-0.2c0-0.1,0-0.1,0-0.1c-0.1-0.1,0-0.1,0-0.2c0-0.1,0.1-0.1,0.2,0
						c0.1,0,0.1,0.1,0.1,0.1l0.1-0.1l0.1-0.1c0.1,0,0.3,0,0.4-0.1h0.1c0.1,0,0.1,0,0.2,0.1c0,0,0,0.1,0.1,0.1s0.1,0.1,0.2,0.2
						c0,0.1,0.1,0.2,0,0.3c0,0,0,0,0,0.1s0,0.2-0.1,0.2c0,0,0,0,0,0.1s-0.1,0.2-0.1,0.3L23,33.2c0.1,0,0.2,0,0.1,0.1
						c0,0.1,0,0.2-0.2,0.2c0.1,0.1,0.1,0.2,0,0.3c0,0.1-0.1,0.2-0.2,0.2c0,0,0.1,0,0.2,0.1c0.1-0.4,0.1-0.3,0.1-0.2
						c0,0.1,0,0.2-0.1,0.2c-0.1,0.1-0.1,0.1,0,0.2c0.1,0.1,0.1,0.1,0.1,0.2c0-0.1,0.1-0.3,0-0.4V34c0,0,0-0.1,0-0.3
						c0-0.1,0.1-0.1,0.2-0.1s0.1,0.1,0.2,0.1s0.1,0.1,0.1,0.1c0,0.2,0,0.3,0,0.5c0,0.1,0,0.1-0.1,0.1c0.1,0,0.1,0.1,0.2,0.1
						c0-0.3,0.1-0.5,0.3-0.9l0,0l-0.1,0.1v-0.1c0-0.2,0.1-0.4,0.1-0.7c0-0.1,0-0.3,0.2-0.3c0,0,0,0,0.1-0.1s0.2-0.2,0.3-0.3
						c0.1,0,0.2,0,0.2,0.1c0.1,0.2,0.3,0.3,0.5,0.4c0.1,0,0.2,0,0.2-0.1v-0.1h-0.1c0,0.1-0.1,0.1-0.2,0.1s-0.1,0-0.2-0.1
						s-0.2-0.2-0.3-0.3c-0.1-0.1-0.1-0.1-0.2,0s-0.1,0.2-0.2,0.2s-0.1,0-0.1-0.1c0-0.2,0-0.2-0.2-0.2l0,0V32c0-0.1,0-0.1,0.1-0.1
						s0.1,0,0.1,0c0-0.1,0.1,0,0.2,0c0-0.1-0.1-0.1-0.1-0.1h-0.1c0-0.1-0.1-0.1-0.2,0c0,0-0.1,0-0.1-0.1v-0.1c0.1,0,0.1-0.1,0.1-0.2
						c0,0,0,0,0-0.1l0,0l0,0c0,0.1,0,0.1,0,0.2H24c-0.1-0.3-0.1-0.4,0.3-0.4c-0.1,0-0.1-0.1-0.2-0.1c0-0.1-0.1-0.1-0.1-0.1
						s-0.1-0.1,0-0.1c0.1-0.1,0-0.1,0-0.2c-0.1-0.1-0.1-0.2-0.1-0.3c0-0.1,0-0.2,0.2-0.3l0,0c0.1,0,0.1,0,0.1-0.1c0,0,0,0,0-0.1
						c0.1,0,0.1-0.1,0-0.1c-0.1-0.1,0-0.2,0.1-0.3c-0.1,0-0.2,0-0.2-0.1s0-0.1,0.1-0.2s0.2,0,0.2,0.1v-0.1c0-0.1,0-0.1,0.1-0.1
						s0.1,0,0.2,0s0.1,0,0.2,0.1c0,0.1,0.1,0.2,0.3,0.2c0,0,0.1,0,0.2,0c-0.1-0.1-0.1-0.2-0.2-0.2s-0.1,0-0.1-0.1s0-0.1-0.1-0.1
						c-0.1-0.1-0.3-0.1-0.5-0.1c-0.1,0-0.1,0-0.2-0.1c0-0.1-0.1-0.2-0.1-0.3c0-0.1,0.1-0.1,0.1-0.2c0,0,0,0,0.1,0l0.1,0.1
						c0-0.1,0-0.2-0.2-0.1h-0.1h-0.1c0-0.1,0-0.1,0-0.2s0.2-0.3,0.3-0.2c0.1,0,0.1,0,0.1,0.1c0,0,0,0.1,0.1,0.1c0,0,0.1,0,0-0.1
						c0-0.1,0-0.1,0.1-0.2c0,0,0-0.1,0.1-0.2c0,0.1,0.1,0.1,0.2,0h0.1c0.1,0.1,0.2,0,0.3,0c0.1,0,0.2,0,0.3,0h0.1
						c0.1,0,0.1,0,0.2-0.1c0-0.1,0.1-0.1,0.2-0.2c0.1,0,0.1,0.1,0.1,0.2s0.1,0.2,0.2,0.3c0.1,0.1,0.2,0.1,0.3,0.2c0,0,0,0.1,0.1,0.1
						s0.2,0.1,0.4,0h0.1c0,0.1,0.1,0.2,0.2,0.3l0,0c-0.1,0.1,0,0.2,0.1,0.3v0.1v0.1c0,0.1,0,0.2,0,0.2v0.1h0.1c0.1-0.1,0.2,0,0.3,0
						c0.1,0,0.1,0,0.2,0s0.2-0.1,0.3,0h0.1c0.1,0,0.3,0,0.3,0.2c0,0.1,0.1,0.1,0.1,0.2s0,0.1-0.1,0.1s-0.2,0.1-0.1,0.2
						c0,0.1,0,0.2,0,0.2c-0.1,0.2-0.2,0.2-0.4,0.1c0,0-0.1,0-0.1-0.1c-0.1-0.1-0.1-0.1-0.2,0s-0.2,0.1-0.4,0.1c-0.1,0-0.1,0-0.2,0.1
						h-0.1c-0.1,0-0.2,0-0.3-0.1c0,0,0,0,0,0.1c0,0.2,0,0.3,0.2,0.4c0.1,0,0.1,0.1,0.2,0s0.1,0,0.2,0c0.1,0.1,0.2,0.1,0.3,0.1
						c0.1,0,0.1,0,0.1,0.1s0.1,0.2,0.1,0.3c0,0.1,0.2,0.2,0.2,0.3c0.1,0.1,0.1,0.2,0.1,0.2c0,0.1,0,0.1,0,0.1
						c-0.1,0.1-0.2,0.1-0.2,0.2c-0.1,0-0.1,0.1-0.1,0.1c0,0.1,0.1,0.1,0.1,0.2c-0.1,0.1-0.1,0.1-0.2,0.1h-0.1c-0.1,0-0.1,0-0.2,0.1
						l0,0c0,0.2-0.1,0.3-0.1,0.5c0,0.1,0.1,0.2,0.1,0.3c0,0,0,0,0.1,0.1c0.2,0.2,0.2,0.4,0.1,0.6c-0.1,0.1-0.2,0.2-0.4,0.2
						c0,0-0.1,0-0.1,0.1l0.1,0.1c0.1,0.1,0.2,0.2,0.2,0.4c0,0.1,0,0.2,0,0.3c0.1,0.2,0.1,0.5,0.1,0.7v0.1c-0.1,0.1-0.2,0.2-0.3,0.2
						c0,0-0.1,0-0.1,0.1c-0.1,0-0.2,0-0.2,0.1s-0.1,0.2,0,0.4c0,0,0,0,0,0.1c0.1,0.1,0.1,0.1,0,0.3c0,0,0,0,0,0.1
						c0.1,0.1,0.1,0.1,0.1,0.2c0,0.1-0.1,0.1,0,0.2h-0.1c-0.2,0-0.2,0-0.2,0.1s-0.1,0.2-0.2,0.2s-0.1,0-0.1,0.1s-0.1,0.2-0.2,0.2
						s-0.1,0.1-0.1,0.2L22.1,38.6z M23.9,35.2C23.9,35.1,23.9,35.1,23.9,35.2C23.9,35.1,23.9,35.1,23.9,35.2c-0.2,0-0.2,0-0.2-0.1
						V35c-0.1,0,0,0.1-0.1,0.2c-0.1,0.1-0.1,0.1-0.2,0.1c0-0.2,0.1-0.4,0.1-0.6c-0.1,0.1-0.1,0.1-0.1,0.2c-0.1,0.1-0.1,0.2-0.1,0.3
						c0,0.2,0,0.3-0.2,0.5C23,35.8,23,35.8,23,35.9c0,0,0,0.1,0,0c-0.1-0.1-0.1,0-0.1,0.1s0,0.1,0,0.1s0.1,0.1,0.1,0
						c0.1-0.1,0.1-0.2,0.1-0.3C23.4,35.4,23.6,35.2,23.9,35.2z M25.6,29.4c-0.1,0.1-0.1,0.1-0.1,0.2c-0.1,0.2-0.1,0.3-0.2,0.5
						c0,0.1-0.1,0.1-0.1,0.2c0,0,0,0,0,0.1s-0.1,0.2-0.2,0.2c-0.1,0.1-0.2,0.2-0.3,0.3c0.2,0,0.3-0.1,0.4-0.3l0.1-0.1
						c0.1,0,0.1-0.1,0.1-0.2v-0.1c0.1-0.1,0.1-0.2,0.1-0.3c0-0.1,0.1-0.2,0.2-0.2C25.6,29.7,25.6,29.6,25.6,29.4z M23.1,36.2
						L23.1,36.2C23,36.1,23,36.1,23,36.1c-0.1,0-0.1,0.1-0.1,0.2c0,0.1,0,0.1,0.1,0.1s0.1-0.1,0.1-0.1
						C23.1,36.3,23.1,36.3,23.1,36.2z M22.1,31.9c0.1,0,0.1,0,0.1,0.1c0.1,0.1,0.2,0.1,0.3,0c0,0,0.1,0,0.1-0.1s-0.1,0-0.1,0
						s0,0-0.1,0c-0.1,0.1-0.2,0-0.2-0.1C22.3,31.9,22.2,31.9,22.1,31.9z M24.1,33.4c0.1-0.1,0.3-0.1,0.5-0.1
						c-0.1-0.1-0.1-0.1-0.2-0.1C24.1,33.2,24.1,33.2,24.1,33.4z"/>
					<path class="st1" d="M27,26.9c0.2-0.1,0.2,0,0.3,0.1l0.1,0.1c0.1,0,0.1,0,0.1,0.1s0,0.1-0.1,0.2c-0.1,0-0.1,0.1-0.2,0.2
						c0,0.1-0.1,0.1,0,0.2c0,0,0,0.1,0.1,0.1c0.1,0.1,0.1,0.2,0,0.2c0,0,0,0.1-0.1,0.1s-0.1-0.1-0.1-0.1c0-0.1-0.1-0.2-0.3-0.2h-0.1
						h-0.1c-0.1-0.2-0.4-0.2-0.5-0.4v-0.1v-0.1c-0.1-0.2-0.2-0.2-0.3-0.1c-0.1,0.1-0.1,0.1-0.2,0.2h-0.1c-0.1,0-0.2,0-0.2,0
						c-0.1,0-0.1,0-0.1-0.1s0-0.1-0.1-0.2s-0.1-0.1-0.2,0v0.1c0,0,0,0.1-0.1,0c0,0-0.1,0,0-0.1V27c-0.1,0-0.1,0-0.1-0.1
						s-0.1-0.1-0.1-0.2c-0.1-0.1-0.1-0.2,0-0.3l0,0c-0.1-0.2,0.1-0.3,0.2-0.4s0.1-0.1,0.1-0.2s0-0.2,0-0.3c0.1-0.2,0.1-0.2,0.2-0.1
						c0-0.1,0-0.1-0.1-0.1c0-0.1,0-0.1,0.1-0.1s0.1-0.1,0-0.1c0,0.1-0.1,0-0.1-0.1c0-0.2-0.1-0.5,0-0.7c0-0.2,0-0.2,0.2-0.1
						c0.1,0,0.1,0,0.2,0c-0.1-0.2-0.2-0.4-0.4-0.5v-0.1c0.1-0.1,0.1-0.2,0.3-0.2h0.1c0.1-0.1,0.2,0,0.2,0.1c0,0.2,0.1,0.3,0.2,0.5
						v0.1c0-0.1,0-0.2,0-0.3c0-0.1-0.1-0.1,0-0.2c0-0.1,0-0.2,0-0.3l0,0c-0.1,0-0.1-0.1-0.2-0.1s0-0.1,0-0.1s0.1,0,0.1-0.1
						c-0.1,0-0.1,0-0.2,0.1c0-0.1,0-0.1-0.1-0.1s-0.2-0.1-0.4-0.2v-0.1c0.1-0.2,0.3-0.3,0.4-0.5v-0.1c-0.1-0.1-0.2-0.3-0.3-0.4
						c-0.1-0.1-0.3-0.2-0.4-0.1c0,0-0.1,0-0.1,0.1s0,0,0.1,0s0.1,0,0,0.1h-0.1l0,0c-0.1,0-0.1,0-0.1,0.1c0.1,0.2,0.1,0.4,0.2,0.6
						c0,0,0,0,0,0.1s0,0.1-0.1,0.1c-0.1-0.1-0.2,0-0.3-0.1c-0.1,0-0.2-0.1-0.2-0.1s-0.1,0,0,0c0,0.1,0,0.1-0.1,0
						c-0.3-0.1-0.5-0.1-0.8-0.2l0,0c0-0.1,0.1-0.2,0.1-0.3c0-0.1,0-0.2-0.1-0.2c0,0-0.1,0-0.1-0.1s0-0.1-0.1-0.2
						c0-0.1-0.1-0.1-0.1-0.2c0-0.2,0-0.4-0.1-0.6s-0.1-0.3-0.1-0.5c0-0.1,0-0.1,0.1-0.1s0.1-0.1,0-0.2v-0.1c0-0.2,0.1-0.3,0.1-0.5
						l0.1-0.1c0.1-0.1,0.1-0.2,0-0.3v-0.1c0-0.1,0-0.3,0-0.4v-0.1h0.1c0.1,0.1,0.2,0.1,0.3,0.1c0.1,0,0.2,0,0.2,0.1
						c0,0,0.1,0.1,0.2,0.1c0.2,0,0.4,0,0.5,0c0.2,0,0.3,0.1,0.4,0.3c0.1,0.2,0.2,0.3,0.5,0.4c0,0,0.1,0,0.1,0.1
						c0.1,0.1,0.2,0.1,0.3,0.1c0.2-0.1,0.4,0,0.6,0c0.3,0,0.5-0.1,0.8-0.2v0.1c-0.1,0.1-0.1,0.1-0.1,0.3c0,0.1,0.1,0.2,0.1,0.3
						c0,0.1,0.1,0.1,0,0.2v0.1c0.2,0.1,0.1,0.3,0.1,0.4c0,0,0,0,0,0.1s0.1,0.2,0,0.2c-0.1,0.1,0,0.2-0.1,0.2v0.1
						c0.1,0.1,0.1,0.3,0.1,0.5l0,0c-0.1,0.1,0,0.2,0,0.3c0.1,0.1,0.1,0.2,0.1,0.3v0.1c-0.1,0.1,0,0.2,0,0.3c0,0.1,0,0.2,0.1,0.3
						c0.1,0.2,0.1,0.3-0.1,0.4c-0.1,0-0.1,0-0.2,0.1h-0.1l-0.1-0.1c-0.1,0-0.1,0-0.1,0c0,0.1-0.1,0-0.2,0.1c0,0.1,0,0.1,0,0.2
						s0.1,0.2,0.1,0.4c0,0,0,0.1,0.1,0.1s0.1,0.1,0.1,0.2s0,0.2-0.1,0.3c0,0-0.1,0.1-0.1,0.2s0,0.1-0.1,0.1v0.1c0,0.1,0,0.1,0,0.2
						s0,0.1,0,0.2c0,0.2,0.1,0.3,0.2,0.4l0,0c0.1,0,0.1,0.1,0.2,0.2c0,0.1,0.1,0.1,0.2,0.1s0.1,0,0.1,0.1l0.1,0.1c0,0.1,0,0.1,0,0.2
						c0,0,0,0.1-0.1,0.1s-0.1,0.1-0.1,0.1C27,26.9,27,27,27,27.1v0.1C27,26.7,27,26.8,27,26.9z"/>
					<path class="st1" d="M23.1,12.9c0-0.1,0-0.3,0.1-0.4c0.1-0.2,0.1-0.5,0-0.7s-0.2-0.4-0.3-0.6c-0.1-0.2-0.2-0.4,0-0.6
						c0.1-0.1,0.1-0.2,0-0.3c0-0.1,0-0.2-0.1-0.2c-0.1-0.1-0.1-0.2-0.1-0.3s0-0.1,0.1-0.1s0.2,0,0.3,0.1c0.1,0.1,0.3,0,0.4,0
						c0.1-0.1,0.2-0.2,0.3-0.3c0.1-0.1,0.1-0.3,0-0.4c0-0.1,0-0.1,0-0.2c0-0.1,0-0.2,0-0.3s0-0.2,0.1-0.2l0,0c0.2,0,0.2,0,0.3-0.3V8
						c0-0.1,0-0.1,0.1-0.2c0,0,0,0,0-0.1c0.1-0.2,0.1-0.4,0.2-0.6c0-0.1,0-0.1,0-0.2s0-0.2,0-0.4c0-0.1,0.1-0.2,0.2-0.1
						c0.1,0,0.2,0.1,0.3,0.1c0,0,0.1,0,0.1,0.1v0.1c0.1,0.1,0.2,0.2,0.2,0.3c0,0,0.1,0.1,0.1,0h0.1l0,0c0.1-0.1,0.2-0.1,0.3-0.1
						c0.1,0,0.1-0.1,0.1-0.1c0-0.1,0.1-0.1,0.1,0l0,0C26.1,7,26.2,7,26.4,7c0.1,0,0.1,0,0.1,0.1c0.1,0.2,0.4,0.2,0.6,0.3
						c0.1,0,0.2,0.1,0.3,0.2c0,0.1,0.1,0.1,0.2,0.2c0,0,0.1,0,0.1-0.1s0.1-0.1,0.2-0.2C28,7.5,28,7.4,28,7.3h0.1
						c0.1,0.1,0.1,0.3,0.1,0.4s0,0.1-0.1,0.2V8c0,0.1,0,0.2-0.1,0.3c0,0,0,0.1,0,0.2c0,0.1,0,0.2-0.1,0.2s-0.1,0.1,0,0.1
						c0.2,0.2,0.2,0.5,0,0.6c0,0.1-0.1,0.1-0.1,0.2c0,0.1,0,0.2,0.1,0.3c0.1,0.2,0.1,0.3,0,0.5c-0.1,0.1-0.1,0.2-0.1,0.3
						s0.1,0.2,0,0.4c0,0,0,0.1,0.1,0.1s0.1,0.1,0.1,0.1c0,0.1,0.1,0.1,0.1,0.2c0.1,0.1,0,0.2-0.1,0.2s-0.1,0-0.2,0s-0.2,0-0.3,0
						c-0.1,0-0.2,0-0.2,0.2c0,0.1,0,0.1-0.1,0.1c-0.1,0.1-0.2,0.1-0.3,0.2c-0.1,0-0.1,0-0.1-0.1s0-0.2,0-0.3c0-0.2-0.2-0.3-0.3-0.2
						c0,0,0,0-0.1,0s-0.1,0-0.2,0c-0.1-0.1-0.1-0.1-0.3-0.1c-0.1,0-0.1,0-0.1,0c-0.1-0.1-0.2-0.1-0.2-0.2c0,0-0.1-0.1-0.2-0.1
						c-0.2,0-0.3-0.2-0.4-0.4v-0.1c0-0.1-0.1-0.1-0.2-0.1s-0.1,0-0.2,0c-0.1-0.1-0.2-0.1-0.3-0.1c-0.1,0-0.1,0-0.2,0
						s-0.2,0.1-0.4,0.1c-0.1,0-0.1,0-0.1,0.1s-0.1,0.1-0.1,0.2c0,0.1,0,0.1,0.1,0.2c0.1,0.1,0.1,0.2,0,0.3c-0.1,0-0.1,0.1-0.1,0.2
						c0,0.1,0,0.1,0,0.1c-0.1,0-0.1,0.1-0.1,0.2c0,0.1,0,0.1,0.1,0.2c0,0,0,0,0.1,0c0,0,0.1,0,0,0.1c0,0.1-0.1,0.1-0.1,0.2
						c-0.1,0.1-0.2,0.2-0.3,0.3C23.3,12.7,23.2,12.8,23.1,12.9L23.1,12.9z"/>
					<path class="st1" d="M24.7,15.2c-0.2,0-0.3,0.1-0.4,0.1s-0.1,0-0.2,0.1v0.1c0,0,0,0.1-0.1,0.1s-0.1-0.1-0.1-0.1
						c0-0.2-0.1-0.4-0.1-0.5c-0.1-0.3-0.2-0.5-0.3-0.7c-0.1-0.2-0.1-0.3-0.2-0.5c-0.1-0.1-0.1-0.3-0.1-0.5c0-0.1,0.1-0.2,0.1-0.2
						h0.1v0.1c0,0.1,0.1,0.1,0.2,0c0,0,0,0,0.1-0.1c0,0,0.1,0,0.1-0.1c-0.1,0-0.1-0.1-0.2-0.1c-0.1-0.1-0.1-0.2,0.1-0.3
						c0.1-0.1,0.2-0.2,0.3-0.3c0.2-0.1,0.1-0.3,0-0.4c-0.1-0.1-0.1-0.1,0-0.2c0.1-0.1,0.2-0.3,0.2-0.5c0.1-0.1,0.1-0.3,0-0.4v-0.1
						c0.1,0,0.3-0.1,0.4-0.1h0.1c0.1,0.1,0.3,0.2,0.4,0.1c0.1,0,0.1,0.1,0.1,0.1c0.1,0.2,0.2,0.3,0.3,0.4c0,0,0,0,0.1,0
						c0.2,0,0.3,0.1,0.4,0.2c0.1,0.1,0.2,0.1,0.3,0.1c0.1,0,0.1,0,0.1,0c0.1,0.1,0.1,0.1,0.3,0c0,0,0.1-0.1,0.1,0v0.1v0.1
						c0.1,0.1,0.1,0.1,0,0.2c0,0.1,0.1,0.2,0.2,0.3c0,0,0,0,0.1,0c0.1-0.2,0.3-0.2,0.4-0.3s0.1-0.1,0.1-0.2c0-0.1,0.1-0.1,0.2-0.1
						s0.3,0,0.4,0c0.2,0,0.2,0.1,0.2,0.2c0,0.2,0,0.4,0.1,0.6c0,0.1,0.1,0.2,0.2,0.2c0.1,0.1,0.1,0.1,0,0.2c0,0.1-0.1,0.1-0.1,0.2
						c0,0.1,0,0.1-0.1,0.1s-0.3,0-0.4,0.1H28c-0.1,0-0.1,0-0.2,0.1s-0.1,0.1-0.2,0.1h-0.1c0,0.1-0.1,0.2,0,0.3c0,0.1,0,0.2,0,0.3
						s0,0.2,0,0.3s0,0.3-0.1,0.4c0,0,0,0,0,0.1s0,0.3-0.1,0.4c0,0,0,0.1,0,0.2c0,0,0,0,0,0.1h-0.1c-0.1,0-0.1-0.1-0.1-0.1
						c0-0.1-0.1-0.2-0.3-0.2c-0.1,0-0.1,0-0.2-0.1s-0.3-0.2-0.4,0c-0.1,0-0.1,0.1-0.2,0.1c-0.1,0.1-0.2,0.1-0.3,0
						c-0.1,0-0.2-0.1-0.3-0.1c-0.1,0-0.2,0-0.2-0.1c0,0-0.1-0.1-0.2,0s-0.2,0-0.4,0c-0.1,0-0.1-0.1-0.1-0.2
						C24.7,15.4,24.6,15.3,24.7,15.2z"/>
					<path class="st1" d="M29.6,3.6c0,0.1,0,0.2-0.1,0.2s-0.1,0-0.2,0s-0.1,0.1-0.1,0.3c0,0.1,0.1,0.1,0.2,0.2s0.2,0.1,0.1,0.2
						c0,0.2,0.1,0.3,0.1,0.4s0.1,0.1,0,0.2c0,0,0,0,0,0.1c0.1,0.1,0.1,0.2,0.1,0.3v0.1c0,0.1,0,0.1,0,0.2c-0.1,0-0.1,0.1-0.1,0.2
						s0,0.2,0.1,0.3v0.1c0,0.1-0.1,0.1-0.1,0.2s0,0.1-0.1,0l0,0c-0.2-0.1-0.2-0.1-0.2,0.1c0,0.1-0.1,0.1-0.1,0.2C29,6.8,29,6.9,29,7
						v0.1c0,0.1,0,0.1-0.1,0.1h-0.1c-0.1,0-0.1,0-0.2,0.1c0,0.1,0,0.1-0.1,0.1s-0.1,0-0.1-0.1V7.2c0-0.1-0.2-0.2-0.3-0.1
						c-0.1,0.1-0.2,0.2-0.3,0.2c-0.1,0-0.1,0.1-0.1,0.1c0,0.1-0.1,0.1-0.1,0c-0.1-0.2-0.2-0.2-0.3-0.2c-0.2,0-0.4-0.1-0.5-0.3
						c-0.1-0.1-0.2-0.1-0.3-0.1c-0.1,0-0.1,0-0.1-0.1c-0.1-0.1-0.1-0.2-0.2-0.2C26.1,6.4,26,6.4,26,6.6c0,0.1-0.1,0.1-0.1,0.1l0,0
						c-0.1,0-0.2,0-0.2-0.1h-0.1c-0.1,0-0.2,0-0.2-0.1s-0.1-0.1-0.1-0.1c-0.1,0-0.2,0-0.2-0.1c0,0-0.1,0-0.2,0s-0.1,0,0-0.1
						s0.1-0.3,0.3-0.3c0.1,0,0.1-0.1,0.1-0.2s-0.1-0.2-0.1-0.3c0-0.1,0-0.1,0-0.2l0.1-0.1C25,4.9,25.1,4.8,25,4.6V4.5
						c0.1-0.1,0.1-0.2,0.2-0.3l0.1-0.1c0-0.1,0.1-0.2,0.2-0.2c0.1-0.1,0.2-0.2,0.2-0.3s0-0.2,0-0.3c0-0.2,0.1-0.3,0.2-0.5
						c0.1-0.1,0.1-0.1,0.2,0C26.1,3,26.2,3,26.3,3c0.1,0,0.2,0.1,0.2,0.2c0.1,0.1,0.1,0.1,0.2,0s0.2-0.1,0.3-0.1
						c0.1,0,0.2,0,0.3,0.1c0.1,0,0.1,0,0.1-0.1s0-0.2,0.2-0.1h0.1c0.1-0.1,0.2,0,0.3,0l0,0c0.1,0.1,0.3,0.1,0.4,0.1s0.3,0.1,0.3,0.2
						c0.1,0.1,0.1,0.1,0.3,0.1h0.1c0.1,0,0.2,0.1,0.3,0.1c0,0,0.1,0,0.1,0.1C29.6,3.5,29.6,3.6,29.6,3.6z"/>
					<path class="st0" d="M23.5,17.2c0.1-0.2,0-0.3,0.1-0.5c0-0.1,0-0.1,0-0.2c0.1-0.2,0.2-0.4,0.2-0.6c0-0.1,0.1-0.1,0.2-0.2
						c0.1,0,0.1-0.1,0.2-0.2l0.1-0.1h0.1c0.1,0,0,0.1,0,0.1v0.1c0,0.1,0.1,0.1,0.1,0.1c0.1-0.1,0.3,0,0.4,0s0.1,0,0.2,0
						c0.2,0,0.4,0,0.5,0.2c0,0,0.1,0.1,0.1,0h0.1c0.2,0,0.4,0,0.5-0.2c0,0,0.1-0.1,0.2-0.1s0.1,0,0.1,0c0.1,0.1,0.2,0.1,0.3,0.2
						C27,15.9,27,16,27,16c-0.1,0.2,0,0.5,0,0.7c0,0.1,0,0.1,0.1,0.1c0.1,0.1,0.1,0.1,0,0.2S27,17.2,27,17.3c0,0.1,0,0.1-0.1,0.1
						h-0.1c-0.1,0-0.1,0-0.1,0.1c0,0,0,0,0,0.1c0,0.2,0.1,0.3,0.2,0.4s0.1,0.1,0,0.2c-0.1,0-0.1,0.1-0.2,0.2c0,0.1,0,0.2-0.1,0.2
						l0,0c0,0.2-0.1,0.2-0.2,0.2c-0.1,0.1-0.2,0.1-0.4,0.1c-0.1,0-0.3,0-0.5,0c-0.1,0-0.3,0.1-0.4-0.1H25c-0.1,0-0.1,0-0.2-0.1
						c0,0,0,0-0.1-0.1c-0.1,0-0.1-0.1-0.2-0.2c0-0.1-0.1-0.2-0.2-0.2s-0.2-0.1-0.3-0.1h-0.1c-0.1,0.1-0.2,0-0.3,0h-0.1
						c-0.1,0-0.1,0-0.1-0.1c0.1,0,0,0-0.1,0s-0.1,0-0.2,0s-0.2-0.1-0.1-0.2s0.1-0.3,0-0.4v-0.1h0.1h0.1v-0.1
						C23.3,17.1,23.3,17.1,23.5,17.2z"/>
					<path class="st1" d="M27.6,2.6c0,0.1-0.1,0.2-0.2,0.2l0,0C27.3,3.1,27.1,3,26.9,3c-0.1,0-0.2,0-0.2,0h-0.1
						c-0.1-0.1-0.2-0.1-0.3-0.1c-0.1,0-0.2-0.1-0.2-0.2c0,0,0-0.1-0.1-0.1c-0.2-0.1-0.2-0.2-0.1-0.4c0-0.1,0-0.2,0-0.2
						c0-0.1,0-0.1,0-0.1C26,1.8,26,1.7,26,1.6s0-0.2-0.1-0.3c0-0.1,0-0.1,0-0.2C26,1,26.1,0.8,26.1,0.7s0.1-0.1,0.2,0
						s0.2,0.1,0.4,0.2c0.1,0,0.1,0.1,0.2,0s0.2,0,0.2,0.1c0.1,0.1,0.1,0.1,0.2,0.1s0.1,0,0.2,0.1c0.2,0.3,0.4,0.3,0.7,0.2
						c0.1,0,0.2-0.1,0.2-0.2S28.5,1,28.5,1c0.1,0,0.1-0.1,0.1-0.2s0.1-0.1,0.2-0.1h0.1c0.1-0.1,0.2-0.1,0.3-0.1c0.1,0,0.1,0,0.1,0.1
						s0.1,0.2,0.1,0.3s0.1,0.2,0.2,0.2h0.1c0.1,0,0.1,0,0.1,0.1c0,0.2,0.1,0.2,0.2,0.3c0.2,0.1,0.2,0.4,0,0.6c0.1-0.2,0,0-0.1,0.2
						c0,0.1-0.1,0.2-0.1,0.2c-0.1,0.1-0.1,0.2,0,0.2v0.1c0,0.1,0,0.1-0.1,0.2c0,0,0,0.1-0.1,0.1s-0.2,0-0.2,0
						c-0.1-0.1-0.2-0.1-0.3,0H29C28.9,3,28.7,2.9,28.4,3c-0.1,0-0.2-0.1-0.2-0.1s-0.1-0.1-0.1,0H28h-0.1C27.8,2.8,27.7,2.8,27.6,2.6
						C27.6,2.7,27.6,2.7,27.6,2.6z"/>
					<path class="st1" d="M22.8,22.5c0.1,0,0.2-0.1,0.3-0.2c0.1-0.1,0.2,0,0.3-0.1c0.1,0,0.1,0.1,0.1,0.1s0,0,0,0.1v0.1v0.1
						c-0.1,0.1-0.1,0.1,0,0.2c0,0,0,0.1,0.1,0.1c0.1,0.1,0.1,0.2,0.2,0.3c0,0,0.1,0.1,0,0.2l0,0c0.1,0.1,0.1,0.2,0.1,0.3
						c0,0,0,0.1-0.1,0.1s-0.2,0.1-0.3,0c0,0-0.1,0-0.1,0.1c0,0,0,0.1,0.1,0.1l0,0c0,0.2,0.2,0.2,0.3,0.3c0,0,0,0,0,0.1v0.1h-0.1
						c0-0.1-0.1-0.1-0.2-0.2s-0.2-0.1-0.3-0.1c0,0.1,0.1,0.1,0.1,0.1v0.1c-0.1,0-0.1,0.1-0.2,0.1c0,0-0.1,0-0.1,0.1
						c0.1-0.1,0.2-0.1,0.3-0.1c0.1,0,0.1,0,0.1,0.1s0,0.2,0.1,0.2c0,0,0,0,0,0.1h-0.1c0-0.1-0.1-0.1-0.2-0.1c0,0.1,0.1,0.2,0.2,0.2
						c0.2,0.1,0.2,0.2,0.2,0.3c0,0,0,0.1-0.1,0.1s-0.1,0-0.2,0.1c0.2,0,0.3,0.1,0.5,0.2c0,0,0.1,0,0.1,0.1s-0.1,0-0.1,0
						c-0.1,0-0.2,0-0.3-0.1c0,0.1,0.1,0.2,0.1,0.3c0.1,0.1,0,0.3-0.1,0.3c0,0-0.1,0-0.1,0.1v0.1h-0.1v-0.1c0-0.1,0-0.1,0.1-0.1
						c0,0,0,0,0-0.1c-0.1,0-0.1,0.1-0.1,0.1c-0.1,0-0.1,0-0.1,0l0,0c0.2,0.1,0.2,0.3,0.2,0.5l0,0c0,0.1,0,0.1,0,0.2c0,0-0.1,0-0.2,0
						h-0.1c-0.1,0.1-0.1,0.1-0.2,0s-0.1-0.1-0.2,0l0,0c-0.1-0.1-0.1,0-0.1,0.1l0,0c-0.1-0.1-0.2-0.1-0.3-0.2c-0.1,0-0.2-0.1-0.3-0.1
						c-0.1,0-0.1-0.1,0-0.1c0-0.1,0.1-0.3,0.1-0.4c0,0,0,0,0.1-0.1c0-0.1,0.1-0.1,0.1-0.2c0.1-0.1,0-0.2,0.1-0.3v-0.1
						c0-0.2,0-0.3,0-0.5c0-0.1,0-0.2-0.1-0.3c-0.1-0.1-0.1-0.3-0.1-0.4s0.1-0.2,0-0.4c0-0.1,0-0.2,0.1-0.3c0.1-0.2,0.2-0.3,0.1-0.5
						c0-0.1,0-0.2,0-0.2c0.1-0.1,0-0.1,0-0.2c-0.1-0.1-0.1-0.1,0-0.2c0,0,0.1-0.1,0.1,0h0.1C22.8,22.3,22.8,22.3,22.8,22.5
						L22.8,22.5z"/>
					<path class="st1" d="M22,30.8c-0.1-0.1-0.2-0.3-0.2-0.4c0,0,0-0.1,0.1-0.1c0.2,0,0.3-0.1,0.5-0.1h0.1c0.1,0,0.1,0,0.2,0
						s0.1-0.1,0.2,0c0,0,0.1,0,0.1-0.1s0.1-0.1,0.2-0.1c0-0.1-0.1-0.1-0.1-0.1c-0.1,0-0.2,0-0.3,0.1c-0.1,0.1-0.2,0.1-0.3,0.1
						c-0.1,0-0.2,0-0.3,0.1c-0.1,0-0.2,0-0.2,0h-0.1c-0.1,0-0.1,0-0.2,0s-0.1-0.1-0.1-0.2s0.1-0.1,0.2-0.2h0.1l0,0l0,0
						c-0.1-0.1-0.1-0.1,0-0.1c0,0,0,0,0-0.1c0,0,0-0.1,0.1-0.1c0,0-0.1,0-0.1-0.1c-0.1-0.1-0.1-0.1,0-0.2c0,0,0.1,0,0.1-0.1
						c-0.1-0.1-0.1-0.2-0.2-0.3c0-0.1,0-0.2,0.2-0.2c0.1,0,0.1,0,0.2-0.1l0,0c0.1,0,0.1,0,0.2,0c0,0.1,0,0.1,0,0.2
						c0.1,0,0.1,0.1,0.2,0.1c0,0,0.1,0,0.1-0.1c0.1-0.1,0.1-0.1,0.2,0s0.1,0.1,0.1,0.2s0,0.2,0.1,0.2c0.1,0.1,0,0.2,0,0.3
						c0.1-0.1,0.1-0.1,0.2-0.2l0,0c0.1,0.1,0.1,0.1,0.1,0.3c0,0.1,0,0.1,0,0.1h0.1c0,0,0.1,0,0.1,0.1s0,0.2-0.1,0.2s0,0.1,0,0.1
						c0,0.1,0.1,0.2,0,0.2l0,0c0,0.1,0.1,0.3,0,0.4v0.1c-0.1,0.1-0.2,0.2-0.3,0.1l0,0v-0.1c0-0.2,0-0.3-0.1-0.4s-0.1-0.1-0.2-0.2
						c0,0.1,0.1,0.2,0.1,0.2s0.1,0.1,0,0.1h-0.1l0,0c-0.1-0.1-0.2,0-0.2,0c-0.1,0.1-0.1,0.1-0.2,0.1c0,0-0.1,0-0.1,0.1
						C22.2,30.9,22.2,30.9,22,30.8C22.1,30.9,22.1,30.9,22,30.8z M22.2,29.2C22.3,29.2,22.4,29.2,22.2,29.2c0.1-0.1,0-0.1,0.1-0.2
						h0.1c0,0.1,0.1,0.2,0.1,0.3v0.1c0,0.1,0,0.1,0,0.2s0,0.1,0.1,0.1s0.2,0,0.2,0.1c0,0,0,0,0.1,0s0.3,0,0.4,0l0.1-0.1
						c0,0-0.1,0-0.1-0.1h-0.1c0,0.1-0.1,0.1-0.2,0.1s-0.2-0.1-0.3-0.1c-0.2-0.1-0.2-0.2-0.2-0.3c0-0.1,0-0.2-0.1-0.3
						c0-0.1-0.1-0.1-0.2-0.1c0,0-0.1,0-0.1,0.1S22,29,22,29.1C22.1,29.1,22.2,29.2,22.2,29.2L22.2,29.2c0,0.1,0,0.2-0.1,0.3
						c0,0.2,0.1,0.4,0.3,0.4c0-0.1-0.1-0.1-0.1-0.2l0,0c-0.1,0-0.1-0.1,0-0.2C22.3,29.4,22.3,29.4,22.2,29.2
						C22.3,29.3,22.2,29.2,22.2,29.2z"/>
					<path class="st1" d="M23.4,33.4L23.4,33.4c0,0.1,0.1,0.1,0,0.2c-0.1,0-0.1,0-0.1-0.1s-0.1-0.1-0.1-0.2c0-0.2,0-0.5,0.2-0.7
						c0.1-0.1,0.1-0.1,0.3,0c0.1,0,0.1,0.1,0.1,0.2c0,0.1-0.1,0.2,0,0.3l0,0c-0.1,0.1,0,0.1,0,0.2v0.1c0,0.1-0.1,0.1-0.2,0
						C23.5,33.5,23.4,33.4,23.4,33.4z"/>
					<path class="st1" d="M22.6,31c0,0.1,0.1,0.1,0.1,0.1c0.1,0,0.2,0.1,0.2,0.1c0,0.1,0,0.1-0.1,0.1c-0.1,0.1-0.3,0.1-0.4,0.1
						s-0.1,0-0.2,0c-0.1,0.1-0.2,0-0.3,0c0,0-0.1,0,0-0.1c0-0.1,0,0,0-0.1c0,0-0.1,0-0.1-0.1c0,0-0.1-0.1,0-0.1h0.1
						c0.1,0,0.2,0,0.2,0C22.3,31.1,22.4,31,22.6,31L22.6,31z"/>
					<path class="st1" d="M23,28.4h-0.1c-0.1-0.1-0.2-0.2-0.4-0.2c-0.1,0-0.1,0-0.1-0.1s0.1-0.2,0.2-0.2h0.1h0.1
						c0,0.1,0.1,0.1,0.1,0c0.1-0.1,0.1-0.1,0.3,0c0.1,0.1,0.1,0.2,0.1,0.3l-0.1,0.1C23.1,28.4,23,28.4,23,28.4z"/>
					<path class="st1" d="M23.3,31c0,0.1,0,0.1,0,0.2s-0.1,0.1-0.2,0.1s-0.1-0.1-0.2-0.2V31l0,0l0,0c-0.1,0-0.1,0-0.1,0
						c-0.1,0-0.1,0.1-0.2,0.1l0,0c0-0.1-0.1-0.1-0.2-0.1c0,0-0.1,0-0.1-0.1s0.1-0.1,0.1-0.1c0.1,0,0.1,0,0.2-0.1h0.1
						c0.1,0,0.1,0,0.2,0c0.1-0.1,0.2,0,0.2,0.1C23.2,30.9,23.2,30.9,23.3,31L23.3,31z"/>
					<path class="st1" d="M22.1,30.9c0.1,0.1,0,0.2-0.1,0.2s-0.1,0-0.2-0.1c0,0,0-0.1-0.1-0.1c-0.1-0.1-0.1-0.1,0-0.2
						c-0.1,0-0.2,0-0.3,0c-0.1,0-0.1,0,0-0.1s0.2-0.1,0.3-0.1c0.2,0,0.2,0,0.2,0.2C21.8,30.7,21.9,30.8,22.1,30.9L22.1,30.9z"/>
					<path class="st1" d="M21.3,27.5C21.3,27.5,21.2,27.5,21.3,27.5c-0.1-0.1-0.1-0.1-0.1-0.2s0-0.1,0.1-0.1l0,0c0,0,0-0.1,0.1-0.1
						s0.1,0.1,0.2,0.1c0,0,0,0,0.1,0l0.1,0.1c0,0.1-0.1,0.1-0.1,0.1C21.5,27.4,21.4,27.5,21.3,27.5L21.3,27.5z"/>
					<path class="st1" d="M23.2,28.4c0-0.1,0-0.1,0.1-0.1s0.1,0,0.1,0c0.1,0,0.1,0.1,0.1,0.2v0.1c0.1,0.1,0,0.2-0.1,0.2
						s-0.1,0-0.1-0.1s0-0.1-0.1-0.2V28.4z"/>
					<path class="st1" d="M22,37.9c0-0.1,0-0.2-0.1-0.2v-0.1c0.1-0.1,0.2-0.1,0.3-0.1c0.1,0,0.1,0.1,0.1,0.1
						C22.2,37.6,22.1,37.7,22,37.9z"/>
					<path class="st1" d="M20.6,31.2c0,0.1,0,0.2-0.1,0.2c0,0-0.1,0-0.1-0.1s0-0.1-0.1-0.2c0-0.1,0-0.1,0-0.2c0.1,0,0.1,0,0.2,0
						C20.6,31.1,20.7,31.1,20.6,31.2z"/>
					<path class="st1" d="M23.8,32c0,0.1,0.1,0.1,0.1,0.2c0,0.1,0,0.1-0.1,0.1s-0.1,0-0.2-0.1C23.6,32.2,23.6,32.1,23.8,32L23.8,32
						L23.8,32z"/>
					<path class="st1" d="M21.2,30.4C21.2,30.5,21.2,30.5,21.2,30.4c0,0.1-0.1,0.1-0.1,0.2H21c0-0.1-0.1-0.1-0.1-0.2s0-0.1,0.1-0.1
						S21.1,30.3,21.2,30.4C21.2,30.3,21.2,30.4,21.2,30.4L21.2,30.4z"/>
					<path class="st1" d="M21.3,33.5C21.3,33.6,21.3,33.6,21.3,33.5c-0.1,0-0.2,0-0.2,0c-0.1,0-0.1-0.1-0.2-0.1h-0.1
						c0,0,0-0.1,0.1,0c0.1,0,0.1,0,0.1-0.1h0.1C21.2,33.3,21.3,33.4,21.3,33.5z"/>
					<path class="st1" d="M24.1,24.6c-0.1,0-0.1,0-0.1-0.1v-0.1c0,0,0.1-0.1,0.1,0h0.1c0.1-0.1,0.1,0,0.1,0
						C24.3,24.5,24.2,24.6,24.1,24.6z"/>
					<path class="st1" d="M24.1,24c0,0.1,0,0.1,0,0.1s0.1,0,0,0.1H24h-0.1c-0.1,0-0.1,0-0.1-0.1l0.1-0.1C24,23.9,24,23.9,24.1,24
						C24.1,23.9,24.1,24,24.1,24z"/>
					<path class="st1" d="M23.7,28.7C23.7,28.7,23.8,28.7,23.7,28.7c0.1,0,0.1,0.1,0.1,0.1c0,0.1-0.1,0.1-0.1,0.1h-0.1
						c0,0-0.1,0-0.1-0.1C23.5,28.8,23.7,28.7,23.7,28.7z"/>
					<path class="st1" d="M24.3,23.6C24.3,23.5,24.3,23.5,24.3,23.6c0.1-0.1,0.1-0.1,0.1-0.1c0.1,0,0.1,0,0.1,0.1s0,0.1-0.1,0.1
						h-0.1V23.6L24.3,23.6z"/>
					<path class="st1" d="M24.8,25L24.8,25c-0.1-0.1-0.1-0.1-0.2-0.2v-0.1c0,0,0,0,0.1,0C24.8,24.8,24.9,24.8,24.8,25
						C24.9,24.9,24.8,25,24.8,25z"/>
					<path class="st1" d="M23.3,29.3c-0.1,0-0.2-0.1-0.1-0.3h0.1C23.5,29.1,23.5,29.1,23.3,29.3C23.4,29.3,23.4,29.3,23.3,29.3
						L23.3,29.3z"/>
					<path class="st1" d="M20.6,36.7C20.6,36.8,20.5,36.8,20.6,36.7c-0.1,0-0.2,0-0.2,0s0-0.1,0-0.2c0,0,0,0,0.1,0
						C20.5,36.5,20.6,36.5,20.6,36.7C20.6,36.6,20.6,36.7,20.6,36.7z"/>
					<path class="st1" d="M23.6,24.5C23.6,24.4,23.6,24.4,23.6,24.5c0-0.1,0.1-0.1,0.1-0.1l0,0c0,0.1,0,0.1,0.1,0.1s0,0.1,0,0.1
						s-0.1,0-0.2,0V24.5z"/>
					<path class="st1" d="M24.3,23.6L24.3,23.6c0,0.1-0.1,0.2-0.1,0.2c-0.1,0-0.1,0-0.1-0.1v-0.1C24.1,23.5,24.2,23.5,24.3,23.6
						L24.3,23.6z"/>
					<path class="st1" d="M22.2,28.6L22.2,28.6c-0.1,0-0.1,0-0.2-0.1v-0.1c0.1,0,0.1-0.1,0.2,0C22.3,28.5,22.3,28.5,22.2,28.6
						L22.2,28.6L22.2,28.6z"/>
					<path class="st1" d="M24.6,22C24.6,22,24.5,22,24.6,22c-0.1-0.1-0.1-0.2,0-0.2s0.2,0.1,0.2,0.1C24.8,21.9,24.7,22,24.6,22z"/>
					<path class="st1" d="M21.8,32c0,0.1,0,0.1-0.1,0.1h-0.1c0-0.1,0-0.1,0-0.1C21.7,31.9,21.7,31.9,21.8,32
						C21.8,31.9,21.8,32,21.8,32z"/>
					<path class="st1" d="M22.2,26.8C22.2,26.7,22.2,26.7,22.2,26.8C22.2,26.7,22.3,26.7,22.2,26.8C22.3,26.7,22.3,26.7,22.2,26.8
						c0.1,0,0.1,0,0.1,0c0,0.1,0,0.1,0,0.1C22.3,26.9,22.2,26.8,22.2,26.8z"/>
					<path class="st1" d="M24.1,30.1C24,30.1,24,30,24.1,30.1C24,30,24,30,24.1,30.1c-0.1-0.1-0.1-0.2,0-0.2l0,0
						C24.2,30,24.1,30,24.1,30.1z"/>
				</g>
			</g>
		</g>
	</g>
	<g>
		<g class="st2">
			<path d="M6.1,14.1c0.2,0,0.4,0.1,0.5,0.2c0.1,0.1,0.2,0.2,0.2,0.4c0,0.1,0,0.3-0.1,0.4s-0.2,0.2-0.3,0.2l0.6,0.9H6.7l-0.5-0.8
				H5.6v0.8H5.4v-2H6.1z M6.1,15c0.3,0,0.4-0.1,0.4-0.4c0-0.2-0.1-0.4-0.4-0.4H5.6V15H6.1z"/>
			<path d="M7.9,16.1c-0.1,0-0.3,0-0.4-0.1c-0.1-0.1-0.2-0.2-0.3-0.3c-0.1-0.1-0.1-0.3-0.1-0.4s0-0.3,0.1-0.4
				c0.1-0.1,0.1-0.2,0.3-0.3c0.1-0.1,0.2-0.1,0.4-0.1c0.1,0,0.3,0,0.4,0.1c0.1,0.1,0.2,0.1,0.2,0.2c0.1,0.1,0.1,0.2,0.1,0.3
				c0,0,0,0.1,0,0.1s0,0.1,0,0.1H7.4c0,0.2,0.1,0.3,0.1,0.4c0.1,0.1,0.2,0.1,0.3,0.1c0.1,0,0.2,0,0.3-0.1s0.1-0.1,0.2-0.2l0.2,0.1
				C8.5,15.9,8.4,16,8.3,16C8.2,16.1,8.1,16.1,7.9,16.1z M7.9,14.8c-0.1,0-0.2,0-0.3,0.1c-0.1,0.1-0.1,0.2-0.2,0.3h0.9
				c0-0.1,0-0.2-0.1-0.3S8,14.8,7.9,14.8z"/>
			<path d="M9.8,15.9c0.1,0,0.3,0,0.3,0.1c0.1,0.1,0.1,0.2,0.1,0.3c0,0.1,0,0.2-0.1,0.3s-0.2,0.1-0.3,0.2c-0.1,0-0.2,0.1-0.4,0.1
				c-0.2,0-0.4,0-0.5-0.1c-0.1-0.1-0.2-0.2-0.2-0.3c0-0.1,0-0.1,0.1-0.2C9,16.1,9,16,9.1,16C9.1,16,9,16,9,15.9c0,0,0-0.1,0-0.2
				c0-0.1,0-0.1,0.1-0.2s0.1-0.1,0.2-0.1c-0.1,0-0.1-0.1-0.2-0.2c0-0.1-0.1-0.2-0.1-0.2c0-0.1,0-0.2,0.1-0.3
				c0.1-0.1,0.1-0.1,0.2-0.2c0.1,0,0.2-0.1,0.3-0.1c0.1,0,0.2,0,0.3,0.1c0-0.1,0.1-0.2,0.1-0.2c0.1-0.1,0.2-0.1,0.3-0.1h0l0.1,0.2h0
				c-0.1,0-0.2,0-0.2,0.1c-0.1,0-0.1,0.1-0.1,0.2c0.1,0.1,0.1,0.2,0.1,0.3c0,0.1,0,0.2-0.1,0.3c-0.1,0.1-0.1,0.1-0.2,0.2
				c-0.1,0-0.2,0.1-0.3,0.1c-0.1,0-0.1,0-0.2,0c-0.1,0-0.1,0-0.1,0.1c0,0,0,0.1,0,0.1c0,0.1,0.1,0.2,0.2,0.2H9.8z M9.6,16.5
				c0.2,0,0.3,0,0.4-0.1c0.1-0.1,0.1-0.1,0.1-0.2c0-0.1,0-0.1-0.1-0.1c0,0-0.1,0-0.2,0H9.3c-0.1,0-0.1,0-0.2,0s-0.1,0.1-0.1,0.1
				c0,0.1,0,0.1,0.1,0.2S9.4,16.5,9.6,16.5z M9.5,14.7c-0.1,0-0.2,0-0.3,0.1c-0.1,0.1-0.1,0.1-0.1,0.2c0,0.1,0,0.2,0.1,0.2
				c0.1,0.1,0.2,0.1,0.3,0.1s0.2,0,0.3-0.1c0.1-0.1,0.1-0.1,0.1-0.2c0-0.1,0-0.2-0.1-0.2C9.7,14.8,9.6,14.7,9.5,14.7z"/>
			<path d="M10.7,14.3c-0.1,0-0.1,0-0.1,0c0,0,0-0.1,0-0.1c0-0.1,0-0.1,0-0.1c0,0,0.1,0,0.1,0c0.1,0,0.1,0,0.1,0c0,0,0,0.1,0,0.1
				c0,0.1,0,0.1,0,0.1C10.8,14.3,10.8,14.3,10.7,14.3z M10.9,14.6v1.5h-0.2v-1.5H10.9z"/>
			<path d="M12,14.6c0.1,0,0.3,0,0.4,0.1c0.1,0.1,0.2,0.2,0.3,0.3c0.1,0.1,0.1,0.3,0.1,0.4s0,0.3-0.1,0.4c-0.1,0.1-0.1,0.2-0.3,0.3
				c-0.1,0.1-0.2,0.1-0.4,0.1c-0.1,0-0.3,0-0.4-0.1c-0.1-0.1-0.2-0.2-0.3-0.3c-0.1-0.1-0.1-0.3-0.1-0.4s0-0.3,0.1-0.4
				c0.1-0.1,0.1-0.2,0.3-0.3C11.8,14.6,11.9,14.6,12,14.6z M12,14.8c-0.2,0-0.3,0.1-0.4,0.2c-0.1,0.1-0.1,0.2-0.1,0.4s0,0.3,0.1,0.4
				c0.1,0.1,0.2,0.2,0.4,0.2s0.3-0.1,0.4-0.2c0.1-0.1,0.1-0.2,0.1-0.4s0-0.3-0.1-0.4C12.3,14.8,12.2,14.8,12,14.8z M12.1,13.8h0.3
				l-0.3,0.5h-0.2L12.1,13.8z"/>
			<path d="M13.2,16.1v-1.5h0.2l0,0.2c0.1-0.1,0.1-0.2,0.2-0.2c0.1,0,0.2-0.1,0.3-0.1c0.1,0,0.2,0,0.3,0.1c0.1,0,0.2,0.1,0.2,0.2
				c0.1,0.1,0.1,0.2,0.1,0.3v1h-0.2v-0.9c0-0.2,0-0.3-0.1-0.3c-0.1-0.1-0.2-0.1-0.3-0.1c-0.1,0-0.1,0-0.2,0.1
				c-0.1,0-0.1,0.1-0.2,0.2c0,0.1-0.1,0.2-0.1,0.3v0.8H13.2z"/>
			<path d="M16.7,16.1c-0.1,0-0.2,0-0.3-0.1c-0.1-0.1-0.2-0.2-0.2-0.3C16,15.6,16,15.5,16,15.3c0-0.2,0-0.3,0.1-0.4
				c0.1-0.1,0.2-0.2,0.3-0.3s0.2-0.1,0.3-0.1c0.1,0,0.2,0,0.3,0.1c0.1,0,0.1,0.1,0.2,0.2v-0.9h0.2v2.2h-0.2l0-0.3
				c0,0.1-0.1,0.2-0.2,0.2C16.9,16.1,16.8,16.1,16.7,16.1z M16.7,15.9c0.1,0,0.3-0.1,0.3-0.2c0.1-0.1,0.1-0.2,0.1-0.4
				c0-0.2,0-0.3-0.1-0.4c-0.1-0.1-0.2-0.1-0.3-0.1c-0.2,0-0.3,0.1-0.4,0.2c-0.1,0.1-0.1,0.2-0.1,0.4s0,0.3,0.1,0.4
				C16.4,15.8,16.6,15.9,16.7,15.9z"/>
			<path d="M18.6,16.1c-0.1,0-0.3,0-0.4-0.1C18.1,16,18,15.9,18,15.8c-0.1-0.1-0.1-0.3-0.1-0.4s0-0.3,0.1-0.4
				c0.1-0.1,0.1-0.2,0.3-0.3c0.1-0.1,0.2-0.1,0.4-0.1c0.1,0,0.3,0,0.4,0.1c0.1,0.1,0.2,0.1,0.2,0.2c0.1,0.1,0.1,0.2,0.1,0.3
				c0,0,0,0.1,0,0.1s0,0.1,0,0.1h-1.1c0,0.2,0.1,0.3,0.1,0.4c0.1,0.1,0.2,0.1,0.3,0.1c0.1,0,0.2,0,0.3-0.1s0.1-0.1,0.2-0.2l0.2,0.1
				C19.2,15.9,19.1,16,19,16C18.9,16.1,18.8,16.1,18.6,16.1z M18.6,14.8c-0.1,0-0.2,0-0.3,0.1c-0.1,0.1-0.1,0.2-0.2,0.3H19
				c0-0.1,0-0.2-0.1-0.3S18.7,14.8,18.6,14.8z"/>
		</g>
		<g class="st2">
			<path d="M5.6,19.5h1.1v0.2H5.4v-2h0.2V19.5z"/>
			<path d="M7.7,18.2c0.1,0,0.3,0,0.4,0.1c0.1,0.1,0.2,0.2,0.3,0.3c0.1,0.1,0.1,0.3,0.1,0.4s0,0.3-0.1,0.4c-0.1,0.1-0.1,0.2-0.3,0.3
				c-0.1,0.1-0.2,0.1-0.4,0.1c-0.1,0-0.3,0-0.4-0.1c-0.1-0.1-0.2-0.2-0.3-0.3C7,19.2,7,19.1,7,18.9s0-0.3,0.1-0.4
				c0.1-0.1,0.1-0.2,0.3-0.3C7.5,18.2,7.6,18.2,7.7,18.2z M7.7,18.4c-0.2,0-0.3,0.1-0.4,0.2c-0.1,0.1-0.1,0.2-0.1,0.4s0,0.3,0.1,0.4
				c0.1,0.1,0.2,0.2,0.4,0.2s0.3-0.1,0.4-0.2c0.1-0.1,0.1-0.2,0.1-0.4s0-0.3-0.1-0.4C8,18.4,7.9,18.4,7.7,18.4z"/>
			<path d="M9.4,19.7c-0.1,0-0.3,0-0.4-0.1c-0.1-0.1-0.2-0.1-0.3-0.3L9,19.2c0,0.1,0.1,0.2,0.2,0.2s0.2,0.1,0.3,0.1
				c0.1,0,0.2,0,0.2-0.1s0.1-0.1,0.1-0.2c0,0,0-0.1,0-0.1c0,0-0.1-0.1-0.2-0.1L9.2,19c-0.1,0-0.3-0.1-0.3-0.2
				c-0.1-0.1-0.1-0.2-0.1-0.3c0-0.1,0-0.2,0.1-0.2c0-0.1,0.1-0.1,0.2-0.2s0.2-0.1,0.3-0.1c0.1,0,0.3,0,0.4,0.1
				c0.1,0.1,0.2,0.1,0.2,0.2l-0.2,0.1c0-0.1-0.1-0.2-0.2-0.2c-0.1,0-0.2-0.1-0.2-0.1c-0.1,0-0.2,0-0.3,0.1s-0.1,0.1-0.1,0.2
				c0,0,0,0.1,0,0.1c0,0,0.1,0.1,0.2,0.1l0.4,0.1c0.1,0,0.2,0.1,0.3,0.1c0.1,0.1,0.1,0.1,0.1,0.2c0,0.1-0.1,0.3-0.2,0.3
				S9.6,19.7,9.4,19.7z"/>
			<path d="M12.3,17.7c0.2,0,0.4,0.1,0.5,0.2c0.1,0.1,0.2,0.2,0.2,0.4c0,0.1,0,0.3-0.1,0.4s-0.2,0.2-0.3,0.2l0.6,0.9h-0.3l-0.5-0.8
				h-0.5v0.8h-0.2v-2H12.3z M12.3,18.6c0.3,0,0.4-0.1,0.4-0.4c0-0.2-0.1-0.4-0.4-0.4h-0.5v0.7H12.3z"/>
			<path d="M13.7,17.4h0.3l-0.3,0.5h-0.2L13.7,17.4z M13.7,18.2v1.5h-0.2v-1.5H13.7z"/>
			<path d="M14.9,18.2c0.1,0,0.3,0,0.4,0.1c0.1,0.1,0.2,0.2,0.3,0.3c0.1,0.1,0.1,0.3,0.1,0.4s0,0.3-0.1,0.4
				c-0.1,0.1-0.1,0.2-0.3,0.3c-0.1,0.1-0.2,0.1-0.4,0.1c-0.1,0-0.3,0-0.4-0.1c-0.1-0.1-0.2-0.2-0.3-0.3c-0.1-0.1-0.1-0.3-0.1-0.4
				s0-0.3,0.1-0.4c0.1-0.1,0.1-0.2,0.3-0.3C14.6,18.2,14.8,18.2,14.9,18.2z M14.9,18.4c-0.2,0-0.3,0.1-0.4,0.2
				c-0.1,0.1-0.1,0.2-0.1,0.4s0,0.3,0.1,0.4c0.1,0.1,0.2,0.2,0.4,0.2s0.3-0.1,0.4-0.2c0.1-0.1,0.1-0.2,0.1-0.4s0-0.3-0.1-0.4
				C15.2,18.4,15.1,18.4,14.9,18.4z"/>
			<path d="M16.6,19.7c-0.1,0-0.3,0-0.4-0.1c-0.1-0.1-0.2-0.1-0.3-0.3l0.2-0.1c0,0.1,0.1,0.2,0.2,0.2s0.2,0.1,0.3,0.1
				c0.1,0,0.2,0,0.2-0.1s0.1-0.1,0.1-0.2c0,0,0-0.1,0-0.1c0,0-0.1-0.1-0.2-0.1L16.4,19c-0.1,0-0.3-0.1-0.3-0.2
				C16,18.8,16,18.7,16,18.6c0-0.1,0-0.2,0.1-0.2c0-0.1,0.1-0.1,0.2-0.2s0.2-0.1,0.3-0.1c0.1,0,0.3,0,0.4,0.1
				c0.1,0.1,0.2,0.1,0.2,0.2L17,18.6c0-0.1-0.1-0.2-0.2-0.2c-0.1,0-0.2-0.1-0.2-0.1c-0.1,0-0.2,0-0.3,0.1s-0.1,0.1-0.1,0.2
				c0,0,0,0.1,0,0.1c0,0,0.1,0.1,0.2,0.1l0.4,0.1c0.1,0,0.2,0.1,0.3,0.1c0.1,0.1,0.1,0.1,0.1,0.2c0,0.1-0.1,0.3-0.2,0.3
				S16.8,19.7,16.6,19.7z"/>
		</g>
	</g>
</g>
</svg>
