<svg xmlns="http://www.w3.org/2000/svg" viewBox="0 0 200 83.83"><defs><style>.cls-1{fill:#708088;}.cls-2{fill:#2bbba0;}.cls-3{fill:#ddd;}.cls-4{font-size:2.86px;fill:#fff;font-family:WorkSans-Regular, Work Sans;}.cls-5{fill:none;stroke:#fff;stroke-miterlimit:10;stroke-width:0.1px;}</style></defs><title>riñihuazo</title><g id="Capa_1" data-name="Capa 1"><path class="cls-1" d="M162.59,13.9a18.73,18.73,0,0,1-.22,3.19,2.3,2.3,0,0,0,.09.82c.19.92.09,1.86.2,2.78a.58.58,0,0,0,.48.59c.15,0,.35.07.32.28s-.24.19-.39.18c-.34,0-.67-.06-1-.11a.27.27,0,0,1-.25-.23c-.19-.91-.3-1.83-.46-2.75s-.35-1.83-.53-2.74c0-.05-.05-.08-.12-.2-.13.44-.26.81-.34,1.19a19.09,19.09,0,0,0-.4,2.83c0,.39-.1.78-.09,1.19,0,.78-.45,1.16-1.13,1-.1,0-.21,0-.24-.15s.05-.19.14-.24.2-.27.2-.48a14.78,14.78,0,0,1,.08-3.39,4.51,4.51,0,0,0,0-1.42,5.7,5.7,0,0,1,0-1.37,2.15,2.15,0,0,0,0-.62,1.11,1.11,0,0,1,0-.57c.33-.67.1-1.39.25-2.16a1.92,1.92,0,0,1-.73.65.68.68,0,0,1-.95-.21.27.27,0,0,0-.07-.08c-.32-.33-.38-.83-1-1s-.51-.59-.3-1.09c.07-.18,0-.44.24-.53a.51.51,0,0,1,.66.37,2,2,0,0,0,.66,1.18c.16.12.24.13.35,0a3.37,3.37,0,0,0,.4-.61,2.21,2.21,0,0,1,1.42-1.28c.28-.11.3-.23.17-.48a5,5,0,0,1-.31-1c-.13-.38.21-.67.5-.9a.9.9,0,0,1,1,0,.65.65,0,0,1,.37.72,2.36,2.36,0,0,1-.11,1,.45.45,0,0,0,.22.54.72.72,0,0,0,.23.12,1.85,1.85,0,0,1,1.38,1.84c0,.83.26,1.64.23,2.49a5.55,5.55,0,0,0,.13,1.19,1.68,1.68,0,0,1-.17,1.35c-.09.12-.21.25-.36.21s-.13-.24-.14-.36c0-.4-.05-.8-.07-1.19A.54.54,0,0,0,162.59,13.9Z"/><path class="cls-1" d="M169.47,6.41a.91.91,0,0,1-.16.67.14.14,0,0,0,0,.2c.18.18.27.42.5.58a1.63,1.63,0,0,1,.71,2.11,4.35,4.35,0,0,0-.19,1.92,2.08,2.08,0,0,1-.09.86,1,1,0,0,0-.05.57,1.62,1.62,0,0,1-.06.9,8.69,8.69,0,0,0-.31,2.73c0,.68,0,1.36,0,2a10.3,10.3,0,0,1-.39,1.73c0,.09-.07.17-.16.17a2.53,2.53,0,0,1-1.06-.11c-.19-.07-.13-.23,0-.29.37-.13.41-.43.43-.73a21.24,21.24,0,0,0-.25-3.9,1.43,1.43,0,0,0-.07-.28c0-.07,0-.16-.12-.17s-.11.07-.16.13a3.3,3.3,0,0,0-.52,1.18c-.26.89-.2,1.83-.52,2.7a1.16,1.16,0,0,0,0,.64c.13.71,0,.91-.76.85-.4,0-.79,0-1.19,0-.08,0-.18,0-.21-.11s.06-.19.15-.21c.8-.14.92-.68.94-1.36,0-.52,0-1,.06-1.55a20.16,20.16,0,0,1,.35-2.42,17.46,17.46,0,0,1,.39-1.74c.12-.45.14-.92.28-1.37,0-.15-.08-.23-.18-.3a1.23,1.23,0,0,1-.49-1.47,7.78,7.78,0,0,0,.22-1.28,1.42,1.42,0,0,1,1-1.2c.23-.09.29-.19.21-.4s-.1-.6-.33-.84c-.06-.06-.11-.22,0-.26.29-.12.3-.4.44-.6a1,1,0,0,1,1-.42C169.32,5.45,169.49,5.75,169.47,6.41Z"/><rect class="cls-2" x="50.05" y="25.53" width="99.89" height="35.63"/></g><g id="Capa_2" data-name="Capa 2"><polygon class="cls-3" points="0 17.05 25.61 17.05 28.38 18.75 33.48 17.9 43.05 17.9 50.73 20.54 53.25 25.63 54.7 30.61 57.15 32.34 57.78 37.66 59.82 39.85 61.5 43.09 60.45 47.37 60.13 53.01 60.45 56.45 62.95 59.41 82.85 59.9 88.36 59.25 94.48 59.1 100.35 59.1 137.56 59.6 140.71 54.63 141.96 51.28 141.02 45.96 142.89 42.67 146.78 36.24 146.34 28.33 147.06 22.95 150.42 21.15 156.39 20.76 157.89 20.96 167.02 19.83 172.88 19.83 200 20.3 200 83.83 0 83.83 0 17.05"/><text class="cls-4" transform="translate(97.63 44.25)">25 m</text><line class="cls-5" x1="97.07" y1="43.24" x2="62.67" y2="43.24"/><line class="cls-5" x1="62.67" y1="42.19" x2="62.67" y2="44.22"/><line class="cls-5" x1="105.28" y1="43.17" x2="140.61" y2="43.17"/><line class="cls-5" x1="140.61" y1="44.22" x2="140.61" y2="42.19"/></g></svg>