<svg xmlns="http://www.w3.org/2000/svg" viewBox="0 0 100 100"><defs><style>.cls-1{fill:#2bbba0;}.cls-2{fill:#474747;}.cls-3{font-size:4px;fill:#fff;font-family:WorkSans-Regular, Work Sans;}.cls-4{letter-spacing:-0.02em;}.cls-5{letter-spacing:-0.01em;}.cls-6{letter-spacing:-0.02em;}.cls-7{letter-spacing:-0.01em;}.cls-8,.cls-9{fill:none;stroke:#fff;stroke-miterlimit:10;stroke-width:0.25px;}.cls-8{stroke-dasharray:1;}</style></defs><title>riñihuazo</title><g id="Figura_3" data-name="Figura 3"><rect class="cls-1" y="0.04" width="100" height="83.94"/><path class="cls-2" d="M92.44,79.19a25.2,25.2,0,0,0-1.74,2.94c-.07.14-.09.33-.29.34a.32.32,0,0,1-.28-.18c-.1-.19,0-.34.11-.47a37.47,37.47,0,0,0,2.11-3.48.51.51,0,0,0,.09-.26,14.26,14.26,0,0,0,0-2.53c0-.06,0-.16,0-.19-.58-.36-.24-.89-.23-1.34a1.88,1.88,0,0,1,.16-.65c.13-.36.27-.7-.15-1-.1-.07-.07-.21-.07-.33a13.78,13.78,0,0,1,.09-1.82,2.07,2.07,0,0,1,.45-1l.3-.46a.39.39,0,0,0-.11-.61,1.56,1.56,0,0,1-.58-1.51.77.77,0,0,1,.43-.66,4.82,4.82,0,0,1,1.52-.4c.27-.06.29.29.31.45a.7.7,0,0,0,.42.65.27.27,0,0,1,.1.11,2,2,0,0,1-.22,1.45c-.21.21-.08.35.09.48A7.57,7.57,0,0,1,96.05,70a1.79,1.79,0,0,1,.4,1.13c0,.94,0,1.87,0,2.81a1.5,1.5,0,0,0,.19.55c.25.64.17.9-.42,1.2a.4.4,0,0,0-.2.36,36.36,36.36,0,0,0-.65,5.3c0,.38-.24.41-.53.42.1.19.25.12.37.14a.35.35,0,0,1,.29.37c0,.18-.16.17-.29.2a4.16,4.16,0,0,1-1.61.12c-.13,0-.34,0-.36-.11-.08-.62-.72-1-.75-1.6S92.47,79.76,92.44,79.19Z"/><path class="cls-2" d="M10.93,71.43a27,27,0,0,1-.29,4.43A3,3,0,0,0,10.76,77c.26,1.28.12,2.59.27,3.88a.8.8,0,0,0,.65.81c.2.06.48.1.44.39s-.33.27-.54.26c-.45,0-.9-.09-1.35-.15a.37.37,0,0,1-.34-.32c-.26-1.27-.42-2.56-.63-3.84s-.48-2.54-.73-3.82c0-.06-.06-.11-.16-.28-.17.62-.36,1.13-.46,1.66a27.45,27.45,0,0,0-.54,3.94,15.26,15.26,0,0,0-.13,1.66c0,1.08-.61,1.62-1.54,1.36-.13,0-.28,0-.32-.2A.28.28,0,0,1,5.56,82c.3-.15.28-.38.28-.67A20.23,20.23,0,0,1,6,76.63a6.5,6.5,0,0,0,0-2,8.71,8.71,0,0,1-.07-1.91,2.76,2.76,0,0,0,0-.86,1.45,1.45,0,0,1,0-.8c.44-.93.14-1.93.34-3a2.91,2.91,0,0,1-1,.91.92.92,0,0,1-1.29-.3l-.1-.12c-.43-.45-.52-1.14-1.29-1.39-.61-.19-.7-.82-.42-1.52.1-.24,0-.6.34-.73a.69.69,0,0,1,.89.51,3,3,0,0,0,.89,1.65c.23.16.34.18.49,0a4.33,4.33,0,0,0,.54-.85,3.06,3.06,0,0,1,1.93-1.79c.38-.15.42-.31.23-.67A9.3,9.3,0,0,1,7,62.36c-.16-.53.29-.93.69-1.25a1.22,1.22,0,0,1,1.39,0,.92.92,0,0,1,.51,1,3.57,3.57,0,0,1-.15,1.37.63.63,0,0,0,.3.75,1.46,1.46,0,0,0,.3.17A2.56,2.56,0,0,1,11.91,67c.05,1.16.36,2.29.32,3.47a6.88,6.88,0,0,0,.18,1.65A2.38,2.38,0,0,1,12.18,74c-.12.17-.29.34-.5.3s-.18-.34-.19-.51c-.05-.55-.06-1.11-.09-1.66A.74.74,0,0,0,10.93,71.43Z"/><path class="cls-2" d="M77.14,82.63c.12-2.92-.69-10.09-.67-13a22.8,22.8,0,0,1,.77-5.1c.16-.68.46-1.63,1.1-1.63,1,0,2-.68,3,.23.43.4,1,.21,1.4-.26.19-.23.37-.47.56-.69.65-.73.59-1.17-.3-1.84a1.35,1.35,0,0,1,1.52,1.16.79.79,0,0,0,.59.73A3.59,3.59,0,0,1,87,63.31c.46.36,1,.4,1.31-.11a10.86,10.86,0,0,0,1.12-1.75c.34-.82.57-1.77,1.64-2a.56.56,0,0,0,.33-.34c.21-1.1.93-1,1.74-.8.48.13,1-.1,1-.54,0-.86.62-1.21,1.17-1.55.76-.48,1.18-1.35,2.24-1.5.73-.11.77-1.21,1.38-1.67-.59-.65-.07-1.85-1.14-2.26a.45.45,0,0,1-.32-.45c.08-1.06-1.15-1.7-.88-2.9.07-.32-.27-.86-.07-1.36s.21-.91-.58-1a1.43,1.43,0,0,1-1.54-1.27c-.15-.81-.37-1.93-1.66-2.06A1.58,1.58,0,0,1,91.31,40a2.92,2.92,0,0,1,.49-1.78.81.81,0,0,0-.14-1.3,2,2,0,0,0-2.14-.08c-.52.43-.64.22-1.08-.09-.72-.52-1.23-1.91-2.54-.85.26-1.75-.06-2.06-1.62-1.59-.46.14-.41-.18-.43-.43,0-.45-.14-1-.56-1.09a10,10,0,0,0-3.14-.6c-.51.06-1,.3-.81-.54.07-.36-.19-.46-.48-.48s-.62,0-.86-.2c-.71-.68-1.89-.39-2.53-1.24-.15-.19-.5-.13-.76,0s-.43.17-.65,0c-.67-.61-.83-.08-1,.45-.08.37-.11.76-.16,1.14h-.15c-.35-.39-.76-1-1.3-.63s-1.58.29-1.38,1.46a.64.64,0,0,1-.89.7c-1.81-.53-2.25-.34-3.29,1.26-.22.34-.52.84-1,.28s-.85-.21-1.25-.05a.89.89,0,0,0-.62,1c.11.59.07.81-.62.58s-1.15.21-1.23,1c0,.28.16.59-.17.87-.8-.75-1.86-.32-2.8-.57-.71-.19-1,.56-.81,1.23s0,1.71.83,2.59c-.4-.09-.49-.08-.52-.12-.4-.39-.77-.94-1.43-.54s-.53,1-.26,1.59c.15.34.15.63-.22.84a1,1,0,0,0-.47.74c-.1.84-.6,1.13-1.41,1.22s-1.38.4-1,1.37a.7.7,0,0,1-.15.74,1.47,1.47,0,0,0,0,1.9c.39.65-.1,1.43,0,2.15,0,0-.22.22-.3.2-1-.26-1.3.56-1.79,1.11a1.15,1.15,0,0,0-.24,1.29c.21.51.66.57,1.17.51.35,0,.68-.08.95.32.54.78,1,1.6,2.25,1.56a1,1,0,0,1,1,1.26c-.35,1.33.59,1.38,1.4,1.59a1.77,1.77,0,0,1,1.39,1.09c.37.94.57,2,1.73,2.46.26.1.59,0,.85.31a2.33,2.33,0,0,0,3.41-.11,1,1,0,0,1,1.65,0c.36.43,1.1.89,1.3.59.55-.81,1.3-.63,2-.75a3.29,3.29,0,0,1,3.51,2.84c0,1.89,0,3.79.06,5.67.12,2.82-.51,9-.75,11.85Z"/><path class="cls-2" d="M36.44,75.34c-.69,1.19-1.26,2.15-1.82,3.12a1.22,1.22,0,0,0,.05,1.2,1.21,1.21,0,0,1,.12,1.19c-.2.35-.45.67-.91.61s-.46-.41-.51-.74a4,4,0,0,1,.36-3,7.73,7.73,0,0,0,.49-1,1,1,0,0,0-.07-.94A2.4,2.4,0,0,0,31,74.93a10.69,10.69,0,0,1-1.63.52.89.89,0,0,0-.75,1.17,28.34,28.34,0,0,1,.46,3.54,8.09,8.09,0,0,1-.27,2c-.1.43-1.13.62-1.68.33s-.12-.57,0-.8a.72.72,0,0,0,0-.82,6.44,6.44,0,0,1-.78-3.26c.05-.82-.31-1.6.1-2.5.2-.43-.3-1.31-.68-1.85a8.52,8.52,0,0,1-.93-2.21c-.16-.48.25-.93.47-1.37A5.25,5.25,0,0,0,25.13,67a.46.46,0,0,0-.64-.11c-.4.18-.84.3-1.15-.1A1.42,1.42,0,0,1,23,65.31a3.52,3.52,0,0,0,.15-2.77,1,1,0,0,1,.26-1.08,1.48,1.48,0,0,0,.49-1.75c-.1-.26-.17-.74.21-.86s.33.34.48.54c.36.46.67.63.94-.07.09-.21.11-.51.44-.46a.49.49,0,0,1,.38.46c.26,2,1.65,3.25,2.71,4.73.28.39.12.87.37,1.25s.26,1,1,.55c.24-.15.52.14.71.27a3.78,3.78,0,0,0,2.3.6,16.1,16.1,0,0,1,2.41.07,8.35,8.35,0,0,0,6-1.42,1.56,1.56,0,0,0,.89-1.58c-.23-4.11-.38-8.22-.62-12.32,0-.44-.49-.85.06-1.35A12.07,12.07,0,0,1,42.43,53c.23,3.39.36,6.78.57,10.17,0,.47-.15,1.17.38,1.37s1-.3,1.46-.67.71-1.27,1.57-1.5c.38-.11.23-.84.14-1.24-.2-.91.5-1.11,1-1.26a1,1,0,0,1,1.19.91c.06.41.37.86-.13,1.23-.29.21-.1.43.09.59a2.08,2.08,0,0,0,1.07.63,2.81,2.81,0,0,1,1.68.68,2.88,2.88,0,0,1-.32-1.79.87.87,0,0,1,1-.86c.54,0,1.07.36,1,.85-.25,1.19.4,1.73,1.36,2.2.21-.53.55-1.11,1.3-.82a1.25,1.25,0,0,1,.77,1.68c-.11.37,0,.7.44.73s.29-.36.33-.61a9.58,9.58,0,0,1,.19-1.59,1.06,1.06,0,0,1,.94-.83c.55,0,.68.39.83.79a9.52,9.52,0,0,0,1.87,3.56c.31.33.29.87-.28,1s0,.64-.37.73c.68.17.16.55.13.83s-.21.61-.15.87c.18.75-.08,1-.82,1-.57,0-.66,1.41-.16,1.89a5.67,5.67,0,0,1,.28,7.4c-1.06,1.18-2.71,1.06-3.25-.46s-1.66-1.4-2.72-1.72c-.43-.13-.41.23-.47.47a5.71,5.71,0,0,1-.86,2c-1,1.36-2.28,1.38-3.31,0a1.62,1.62,0,0,0-.72-.65A2.47,2.47,0,0,1,46.93,79a1.11,1.11,0,0,0-1.17-.87,2.83,2.83,0,0,1-.71-.1c-.82-.18-1.5-.13-1.62.92a1.46,1.46,0,0,1-.23.49,2.48,2.48,0,0,1-2.47,1.58,2.65,2.65,0,0,1-2-2.19c-.08-.35-.12-.71-.18-1.06a.54.54,0,0,0-.49-.45c-.35-.06-.41.21-.46.43A4.1,4.1,0,0,0,37.47,79c.12.88-.42,1.65-.31,2.53,0,.29-.2.49-.51.52a1.24,1.24,0,0,1-1-.16c-.29-.26-.07-.58.08-.8C36.9,79.4,36.61,77.5,36.44,75.34Zm8.2-7.94a14.78,14.78,0,0,1-2.32.1c-1-.1-2-.12-3-.13s-1.34.41-1,1.37a3.25,3.25,0,0,1,.17.61,13.79,13.79,0,0,0,1.83,4c.09.15.21.35.41.25s.1-.36,0-.53a7.75,7.75,0,0,0-1-1.7c-.25-.34-.47-.91.07-1s.53-.51.56-.9,0-.84.08-1.25a.42.42,0,0,1,.3-.41c.22,0,.32.12.38.3.14.48.53.47.93.51A3.56,3.56,0,0,0,44.64,67.4Zm15.41,9.94A4.89,4.89,0,0,0,59.51,75c-.08-.13-.17-.27-.34-.23S59,75,59,75a1.29,1.29,0,0,1,.15,1.8s.15.17.23.26c.47.53.3.93-.34,1s-1,1-1.84.63c0,0-.13.14-.12.2A1.87,1.87,0,0,0,58,80.33c.51.29.93,0,1.24-.4A5.43,5.43,0,0,0,60.05,77.34Zm-19.78-1.2a3.06,3.06,0,0,0,0,3.44.9.9,0,0,0,1.52,0,1.43,1.43,0,0,0,.52-1.09c-.84.37-1.21-.46-1.85-.67C39.34,77.47,40.66,76.69,40.27,76.14ZM40,66.8l.06.18c.76,0,1.52.07,2.28.09.57,0,.6-.36.5-.78s-.15-.87-.71-.61C41.42,66,40.73,66.42,40,66.8ZM45.08,66c0-.05.36-.4-.15-.46s-1.68.47-1.72.84c-.05.56.28.7.76.75C44.74,67.23,45.22,67.06,45.08,66Z"/><path class="cls-2" d="M17.66,82.63,16,82.47c-.32,0-.4-.23-.52-.54-.31-.82.12-1.55.14-2.32,0-.53,0-1.06,0-1.59a3.27,3.27,0,0,1,.17-1.23,2.1,2.1,0,0,0-.06-1.33,7.11,7.11,0,0,0-1.1-2.62,1.84,1.84,0,0,1-.21-1.27,3.77,3.77,0,0,1,.28-1.79c.13-.27-.06-.38-.25-.46s-.39.06-.44-.17a1.4,1.4,0,0,1,0-.73,5,5,0,0,0,.18-1,.42.42,0,0,0,0-.27c-.53-1,0-1.93.14-2.85a3.16,3.16,0,0,1,1.28-1.61,1.38,1.38,0,0,1,1.55-.11,2.92,2.92,0,0,0,.72.18,1.21,1.21,0,0,1,1.05.89,1,1,0,0,1-.65,1.09c-.46.23-.71.72-1.21.91-.17.06,0,.21.09.28.36.34.74.68,1.12,1a1.26,1.26,0,0,1,.42.76,46.41,46.41,0,0,1,.74,5.1c0,.34,0,.6-.41.65s-.33.23-.34.47c0,.47-.11.94-.14,1.4a9.46,9.46,0,0,1-.84,2.43,8.58,8.58,0,0,0-.46,2.75,1.22,1.22,0,0,1,0,.38c-.19.67.19.93.74,1.13.22.08.65.07.58.41s-.45.16-.7.19a1.41,1.41,0,0,1-.29,0Z"/><text class="cls-3" transform="translate(27.89 42.83)">Ol<tspan class="cls-4" x="4.22" y="0">a</tspan><tspan x="6.39" y="0" xml:space="preserve"> de 8 </tspan><tspan class="cls-5" x="17.76" y="0">m</tspan><tspan x="21.54" y="0">ts de a</tspan><tspan class="cls-6" x="35.14" y="0">l</tspan><tspan x="36.28" y="0">tu</tspan><tspan class="cls-7" x="40.42" y="0">r</tspan><tspan class="cls-4" x="42" y="0">a</tspan></text><line class="cls-8" x1="50.35" y1="78.47" x2="50.35" y2="45.58"/><polyline class="cls-9" points="51.76 78.06 50.3 79.52 48.93 78.15"/><line class="cls-8" x1="50.35" y1="5.52" x2="50.35" y2="37.92"/><polyline class="cls-9" points="48.93 6 50.4 4.54 51.76 5.91"/><rect class="cls-2" y="81.93" width="99.99" height="18.55"/></g></svg>