<svg xmlns="http://www.w3.org/2000/svg" viewBox="0 0 100 72.48"><defs><style>.cls-1{fill:#708088;}.cls-2{fill:#2bbba0;}.cls-3{fill:#ccc;}.cls-4{font-size:2.86px;fill:#fff;font-family:WorkSans-Regular, Work Sans;}.cls-5{fill:none;stroke:#fff;stroke-miterlimit:10;stroke-width:0.1px;}</style></defs><title>riñihuazo</title><g id="Capa_1" data-name="Capa 1"><path class="cls-1" d="M88.75,14.63a13.11,13.11,0,0,1-.15,2.28,1.75,1.75,0,0,0,.06.6c.14.65.07,1.32.15,2a.41.41,0,0,0,.34.42c.11,0,.25,0,.23.2s-.17.14-.28.13l-.71-.08a.19.19,0,0,1-.18-.16c-.14-.66-.22-1.32-.34-2s-.25-1.31-.38-2c0,0,0-.06-.08-.15-.09.32-.19.59-.25.86a15.25,15.25,0,0,0-.28,2,7.91,7.91,0,0,0-.06.85c0,.56-.33.83-.82.7-.06,0-.14,0-.16-.11s0-.13.09-.16.15-.2.15-.35a9.89,9.89,0,0,1,.06-2.43,3.42,3.42,0,0,0,0-1,4.11,4.11,0,0,1,0-1,1.63,1.63,0,0,0,0-.44.71.71,0,0,1,0-.41c.23-.48.07-1,.17-1.55a1.35,1.35,0,0,1-.52.47.5.5,0,0,1-.68-.15l0-.06c-.23-.23-.27-.59-.68-.72s-.37-.42-.22-.78c0-.12,0-.31.18-.37a.36.36,0,0,1,.47.26,1.57,1.57,0,0,0,.47.85c.12.08.17.09.25,0a2,2,0,0,0,.29-.43,1.59,1.59,0,0,1,1-.92c.2-.08.22-.17.13-.35a4.52,4.52,0,0,1-.23-.71c-.08-.28.15-.48.37-.65a.65.65,0,0,1,.72,0,.48.48,0,0,1,.27.52,1.73,1.73,0,0,1-.08.71.32.32,0,0,0,.16.38.65.65,0,0,0,.16.09,1.32,1.32,0,0,1,1,1.32c0,.59.19,1.17.17,1.78a3.62,3.62,0,0,0,.09.85,1.24,1.24,0,0,1-.12,1c-.06.09-.15.18-.26.15s-.09-.17-.1-.26c0-.28,0-.57,0-.85A.4.4,0,0,0,88.75,14.63Z"/><path class="cls-1" d="M93.68,9.26a.62.62,0,0,1-.11.48.11.11,0,0,0,0,.15c.13.13.19.3.36.41a1.18,1.18,0,0,1,.51,1.52,3.09,3.09,0,0,0-.14,1.38,1.27,1.27,0,0,1-.07.61.71.71,0,0,0,0,.41,1.17,1.17,0,0,1,0,.64,5.91,5.91,0,0,0-.22,2c0,.48,0,1,0,1.45a6.53,6.53,0,0,1-.27,1.24.13.13,0,0,1-.12.12,1.63,1.63,0,0,1-.76-.08c-.13-.05-.09-.16,0-.2.27-.1.3-.31.31-.53A15.33,15.33,0,0,0,92.9,16a1.17,1.17,0,0,0-.05-.2c0-.05,0-.12-.08-.12s-.08,0-.12.09a2.54,2.54,0,0,0-.37.84c-.19.64-.15,1.31-.37,1.94a.8.8,0,0,0,0,.46c.1.5,0,.65-.54.61-.29,0-.57,0-.85,0-.07,0-.14,0-.16-.07a.12.12,0,0,1,.11-.15c.57-.1.66-.49.67-1s0-.74,0-1.1a16.92,16.92,0,0,1,.24-1.74c.07-.42.18-.83.29-1.24s.1-.67.2-1c0-.1-.06-.16-.13-.21a.87.87,0,0,1-.35-1.05,5.81,5.81,0,0,0,.15-.93,1,1,0,0,1,.72-.85c.17-.07.21-.14.15-.29s-.07-.43-.23-.6-.08-.16,0-.18.22-.29.32-.44a.75.75,0,0,1,.74-.3C93.58,8.58,93.7,8.79,93.68,9.26Z"/><rect class="cls-2" x="14.71" y="22.97" width="71.55" height="25.52"/></g><g id="Capa_2" data-name="Capa 2"><polygon class="cls-3" points="0 17.89 2.35 17.5 9.21 17.5 14.71 19.39 16.51 23.04 17.56 26.6 19.31 27.84 19.76 31.65 21.22 33.22 22.42 35.54 21.67 38.61 21.45 42.65 21.67 45.11 23.46 47.23 37.72 47.58 41.66 47.11 46.05 47.01 50.25 47.01 76.9 47.37 79.16 43.8 80.05 41.41 79.38 37.6 80.72 35.24 83.51 30.63 83.19 24.97 83.7 21.11 86.12 19.83 90.39 19.55 91.47 19.69 98 18.88 100 18.88 100 81.51 0 81.51 0 17.89"/><text class="cls-4" transform="translate(46.78 36.75)">25 m</text><line class="cls-5" x1="45.73" y1="35.75" x2="23.23" y2="35.75"/><line class="cls-5" x1="23.23" y1="34.7" x2="23.23" y2="36.73"/><line class="cls-5" x1="55.04" y1="35.68" x2="78.49" y2="35.68"/><line class="cls-5" x1="78.49" y1="36.73" x2="78.49" y2="34.7"/></g></svg>